<?xml version="1.0" standalone="no"?>
 <!DOCTYPE svg PUBLIC "-//W3C//DTD SVG 1.1//EN" 
 "http://www.w3.org/Graphics/SVG/1.1/DTD/svg11.dtd"> 
<svg xmlns="http://www.w3.org/2000/svg" version="1.1" 
    width="29.7002cm" height="21.0007cm" viewBox="0 0 116930 82680 ">
<title>SVG Picture created as keyman64-F.SilkS.svg date 2016/08/24 11:54:58 </title>
  <desc>Picture generated by PCBNEW </desc>
<g style="fill:#000000; fill-opacity:1;stroke:#000000; stroke-opacity:1;
stroke-linecap:round; stroke-linejoin:round; "
 transform="translate(0 0) scale(1 1)">
</g>
<g style="fill:#000000; fill-opacity:0.0; 
stroke:#000000; stroke-width:-0.000393701; stroke-opacity:1; 
stroke-linecap:round; stroke-linejoin:round;">
</g>
<g style="fill:#000000; fill-opacity:0.0; 
stroke:#000000; stroke-width:59.0551; stroke-opacity:1; 
stroke-linecap:round; stroke-linejoin:round;">
<path d="M46306 51063
L46404 51358
L46503 51063
" />
<path d="M46770 51330
L46756 51344
L46714 51358
L46685 51358
L46643 51344
L46615 51316
L46601 51288
L46587 51232
L46587 51189
L46601 51133
L46615 51105
L46643 51077
L46685 51063
L46714 51063
L46756 51077
L46770 51091
" />
<path d="M47065 51330
L47051 51344
L47009 51358
L46981 51358
L46939 51344
L46910 51316
L46896 51288
L46882 51232
L46882 51189
L46896 51133
L46910 51105
L46939 51077
L46981 51063
L47009 51063
L47051 51077
L47065 51091
" />
<path d="M48377 50288
L48377 50527
L48391 50555
L48405 50569
L48433 50583
L48489 50583
L48517 50569
L48532 50555
L48546 50527
L48546 50288
" />
<path d="M48672 50569
L48714 50583
L48785 50583
L48813 50569
L48827 50555
L48841 50527
L48841 50499
L48827 50471
L48813 50457
L48785 50442
L48728 50428
L48700 50414
L48686 50400
L48672 50372
L48672 50344
L48686 50316
L48700 50302
L48728 50288
L48799 50288
L48841 50302
" />
<path d="M49066 50428
L49108 50442
L49122 50457
L49136 50485
L49136 50527
L49122 50555
L49108 50569
L49080 50583
L48967 50583
L48967 50288
L49066 50288
L49094 50302
L49108 50316
L49122 50344
L49122 50372
L49108 50400
L49094 50414
L49066 50428
L48967 50428
" />
<path d="M44425 50555
L44410 50569
L44368 50583
L44340 50583
L44298 50569
L44270 50541
L44256 50513
L44242 50457
L44242 50414
L44256 50358
L44270 50330
L44298 50302
L44340 50288
L44368 50288
L44410 50302
L44425 50316
" />
<path d="M44650 50428
L44692 50442
L44706 50457
L44720 50485
L44720 50527
L44706 50555
L44692 50569
L44664 50583
L44551 50583
L44551 50288
L44650 50288
L44678 50302
L44692 50316
L44706 50344
L44706 50372
L44692 50400
L44678 50414
L44650 50428
L44551 50428
" />
<path d="M44846 50583
L44846 50288
L44945 50499
L45043 50288
L45043 50583
" />
<path d="M52224 38995
L52224 39152
" />
<path d="M52224 39074
L51949 39074
L51988 39100
L52014 39126
L52027 39152
" />
<path d="M52067 38837
L52054 38864
L52040 38877
L52014 38890
L52001 38890
L51975 38877
L51962 38864
L51949 38837
L51949 38785
L51962 38759
L51975 38745
L52001 38732
L52014 38732
L52040 38745
L52054 38759
L52067 38785
L52067 38837
L52080 38864
L52093 38877
L52119 38890
L52172 38890
L52198 38877
L52211 38864
L52224 38837
L52224 38785
L52211 38759
L52198 38745
L52172 38732
L52119 38732
L52093 38745
L52080 38759
L52067 38785
" />
<path d="M52040 38614
L52316 38614
" />
<path d="M52054 38614
L52040 38588
L52040 38535
L52054 38509
L52067 38496
L52093 38483
L52172 38483
L52198 38496
L52211 38509
L52224 38535
L52224 38588
L52211 38614
" />
<path d="M52080 38273
L52080 38365
" />
<path d="M52224 38365
L51949 38365
L51949 38234
" />
<path d="M52224 41145
L52224 41302
" />
<path d="M52224 41224
L51949 41224
L51988 41250
L52014 41276
L52027 41302
" />
<path d="M52067 40987
L52054 41014
L52040 41027
L52014 41040
L52001 41040
L51975 41027
L51962 41014
L51949 40987
L51949 40935
L51962 40909
L51975 40895
L52001 40882
L52014 40882
L52040 40895
L52054 40909
L52067 40935
L52067 40987
L52080 41014
L52093 41027
L52119 41040
L52172 41040
L52198 41027
L52211 41014
L52224 40987
L52224 40935
L52211 40909
L52198 40895
L52172 40882
L52119 40882
L52093 40895
L52080 40909
L52067 40935
" />
<path d="M52040 40764
L52316 40764
" />
<path d="M52054 40764
L52040 40738
L52040 40685
L52054 40659
L52067 40646
L52093 40633
L52172 40633
L52198 40646
L52211 40659
L52224 40685
L52224 40738
L52211 40764
" />
<path d="M52080 40423
L52080 40515
" />
<path d="M52224 40515
L51949 40515
L51949 40384
" />
<path d="M70666 29324
L70652 29310
L70638 29282
L70638 29212
L70652 29184
L70666 29170
L70694 29156
L70722 29156
L70764 29170
L70933 29339
L70933 29156
" />
<path d="M70638 28973
L70638 28945
L70652 28917
L70666 28903
L70694 28889
L70750 28875
L70821 28875
L70877 28889
L70905 28903
L70919 28917
L70933 28945
L70933 28973
L70919 29001
L70905 29015
L70877 29029
L70821 29043
L70750 29043
L70694 29029
L70666 29015
L70652 29001
L70638 28973
" />
<path d="M70933 48715
L70933 48884
" />
<path d="M70933 48800
L70638 48800
L70680 48828
L70708 48856
L70722 48884
" />
<path d="M42966 29324
L42952 29310
L42938 29282
L42938 29212
L42952 29184
L42966 29170
L42994 29156
L43022 29156
L43064 29170
L43233 29339
L43233 29156
" />
<path d="M42938 28973
L42938 28945
L42952 28917
L42966 28903
L42994 28889
L43050 28875
L43121 28875
L43177 28889
L43205 28903
L43219 28917
L43233 28945
L43233 28973
L43219 29001
L43205 29015
L43177 29029
L43121 29043
L43050 29043
L42994 29029
L42966 29015
L42952 29001
L42938 28973
" />
<path d="M43233 48715
L43233 48884
" />
<path d="M43233 48800
L42938 48800
L42980 48828
L43008 48856
L43022 48884
" />
</g>
<g style="fill:#000000; fill-opacity:0.0; 
stroke:#000000; stroke-width:39.3701; stroke-opacity:1; 
stroke-linecap:round; stroke-linejoin:round;">
<path d="M72680 51605
L72680 50625
" />
<path d="M41190 51605
L72680 51605
" />
<path d="M41190 50625
L41190 51605
" />
<path d="M72680 26130
L72680 27115
" />
<path d="M41190 26130
L72680 26130
" />
<path d="M41190 27115
L41190 26130
" />
</g>
<g style="fill:#000000; fill-opacity:0.0; 
stroke:#000000; stroke-width:59.0551; stroke-opacity:1; 
stroke-linecap:round; stroke-linejoin:round;">
<path d="M59507 50583
L59507 50288
L59577 50288
L59619 50302
L59647 50330
L59661 50358
L59675 50414
L59675 50457
L59661 50513
L59647 50541
L59619 50569
L59577 50583
L59507 50583
" />
<path d="M59788 50499
L59928 50499
" />
<path d="M59760 50583
L59858 50288
L59957 50583
" />
<path d="M60013 50288
L60182 50288
" />
<path d="M60097 50583
L60097 50288
" />
<path d="M60266 50499
L60406 50499
" />
<path d="M60238 50583
L60336 50288
L60435 50583
" />
<path d="M56574 50555
L56560 50569
L56517 50583
L56489 50583
L56447 50569
L56419 50541
L56405 50513
L56391 50457
L56391 50414
L56405 50358
L56419 50330
L56447 50302
L56489 50288
L56517 50288
L56560 50302
L56574 50316
" />
<path d="M56841 50583
L56700 50583
L56700 50288
" />
<path d="M56939 50583
L56939 50288
" />
<path d="M57108 50583
L56982 50414
" />
<path d="M57108 50288
L56939 50457
" />
<path d="M56335 50237
L57164 50237
" />
<path d="M69291 50634
L69328 50634
L69366 50653
L69384 50671
L69403 50709
L69422 50784
L69422 50878
L69403 50953
L69384 50990
L69366 51009
L69328 51028
L69291 51028
L69253 51009
L69235 50990
L69216 50953
L69197 50878
L69197 50784
L69216 50709
L69235 50671
L69253 50653
L69291 50634
" />
<path d="M62183 50679
L62446 50679
L62277 51073
" />
<path d="M70133 50011
L70189 50030
L70208 50049
L70226 50086
L70226 50143
L70208 50180
L70189 50199
L70151 50218
L70001 50218
L70001 49824
L70133 49824
L70170 49843
L70189 49861
L70208 49899
L70208 49936
L70189 49974
L70170 49993
L70133 50011
L70001 50011
" />
<path d="M69996 49080
L70183 49080
" />
<path d="M69958 49193
L70090 48799
L70221 49193
" />
<path d="M45013 26687
L45013 26392
" />
<path d="M45182 26687
L45055 26518
" />
<path d="M45182 26392
L45013 26561
" />
<path d="M45421 26673
L45392 26687
L45336 26687
L45308 26673
L45294 26645
L45294 26532
L45308 26504
L45336 26490
L45392 26490
L45421 26504
L45435 26532
L45435 26561
L45294 26589
" />
<path d="M45533 26490
L45603 26687
" />
<path d="M45674 26490
L45603 26687
L45575 26757
L45561 26771
L45533 26786
" />
<path d="M45786 26687
L45786 26490
" />
<path d="M45786 26518
L45800 26504
L45828 26490
L45871 26490
L45899 26504
L45913 26532
L45913 26687
" />
<path d="M45913 26532
L45927 26504
L45955 26490
L45997 26490
L46025 26504
L46039 26532
L46039 26687
" />
<path d="M46306 26687
L46306 26532
L46292 26504
L46264 26490
L46208 26490
L46180 26504
" />
<path d="M46306 26673
L46278 26687
L46208 26687
L46180 26673
L46166 26645
L46166 26617
L46180 26589
L46208 26575
L46278 26575
L46306 26561
" />
<path d="M46447 26490
L46447 26687
" />
<path d="M46447 26518
L46461 26504
L46489 26490
L46531 26490
L46560 26504
L46574 26532
L46574 26687
" />
<path d="M46841 26392
L46784 26392
L46756 26406
L46742 26420
L46714 26462
L46700 26518
L46700 26631
L46714 26659
L46728 26673
L46756 26687
L46813 26687
L46841 26673
L46855 26659
L46869 26631
L46869 26561
L46855 26532
L46841 26518
L46813 26504
L46756 26504
L46728 26518
L46714 26532
L46700 26561
" />
<path d="M47122 26490
L47122 26687
" />
<path d="M47052 26378
L46981 26589
L47164 26589
" />
<path d="M47670 26687
L47572 26546
" />
<path d="M47502 26687
L47502 26392
L47614 26392
L47642 26406
L47656 26420
L47670 26448
L47670 26490
L47656 26518
L47642 26532
L47614 26546
L47502 26546
" />
<path d="M47909 26673
L47881 26687
L47825 26687
L47797 26673
L47783 26645
L47783 26532
L47797 26504
L47825 26490
L47881 26490
L47909 26504
L47923 26532
L47923 26561
L47783 26589
" />
<path d="M48022 26490
L48092 26687
L48162 26490
" />
<path d="M48275 26659
L48289 26673
L48275 26687
L48261 26673
L48275 26659
L48275 26687
" />
<path d="M48542 26490
L48542 26687
" />
<path d="M48472 26378
L48401 26589
L48584 26589
" />
<path d="M44331 26992
L44387 27189
L44443 27048
L44500 27189
L44556 26992
" />
<path d="M44640 26992
L44696 27189
L44753 27048
L44809 27189
L44865 26992
" />
<path d="M44950 26992
L45006 27189
L45062 27048
L45118 27189
L45175 26992
" />
<path d="M45287 27161
L45301 27175
L45287 27189
L45273 27175
L45287 27161
L45287 27189
" />
<path d="M45428 27189
L45428 26894
" />
<path d="M45554 27189
L45554 27034
L45540 27006
L45512 26992
L45470 26992
L45442 27006
L45428 27020
" />
<path d="M45807 27175
L45779 27189
L45723 27189
L45695 27175
L45681 27147
L45681 27034
L45695 27006
L45723 26992
L45779 26992
L45807 27006
L45821 27034
L45821 27063
L45681 27091
" />
<path d="M45948 26992
L45948 27189
" />
<path d="M45948 27020
L45962 27006
L45990 26992
L46032 26992
L46060 27006
L46074 27034
L46074 27189
" />
<path d="M46215 26992
L46215 27189
" />
<path d="M46215 27020
L46229 27006
L46257 26992
L46299 26992
L46328 27006
L46342 27034
L46342 27189
" />
<path d="M46482 27189
L46482 26992
" />
<path d="M46482 26894
L46468 26908
L46482 26922
L46496 26908
L46482 26894
L46482 26922
" />
<path d="M46623 26992
L46623 27189
" />
<path d="M46623 27020
L46637 27006
L46665 26992
L46707 26992
L46735 27006
L46749 27034
L46749 27189
" />
<path d="M47017 26992
L47017 27231
L47002 27259
L46988 27273
L46960 27287
L46918 27287
L46890 27273
" />
<path d="M47017 27175
L46988 27189
L46932 27189
L46904 27175
L46890 27161
L46876 27133
L46876 27048
L46890 27020
L46904 27006
L46932 26992
L46988 26992
L47017 27006
" />
<path d="M47157 27077
L47382 27077
" />
<path d="M47523 27189
L47523 26894
" />
<path d="M47523 27006
L47551 26992
L47607 26992
L47635 27006
L47649 27020
L47663 27048
L47663 27133
L47649 27161
L47635 27175
L47607 27189
L47551 27189
L47523 27175
" />
<path d="M47902 27175
L47874 27189
L47818 27189
L47790 27175
L47776 27147
L47776 27034
L47790 27006
L47818 26992
L47874 26992
L47902 27006
L47916 27034
L47916 27063
L47776 27091
" />
<path d="M48043 27189
L48043 26894
" />
<path d="M48071 27077
L48155 27189
" />
<path d="M48155 26992
L48043 27105
" />
<path d="M48394 27175
L48366 27189
L48310 27189
L48282 27175
L48268 27147
L48268 27034
L48282 27006
L48310 26992
L48366 26992
L48394 27006
L48409 27034
L48409 27063
L48268 27091
" />
<path d="M48577 27189
L48549 27175
L48535 27147
L48535 26894
" />
<path d="M48690 27161
L48704 27175
L48690 27189
L48676 27175
L48690 27161
L48690 27189
" />
<path d="M48957 27189
L48957 26894
" />
<path d="M48957 27175
L48929 27189
L48873 27189
L48844 27175
L48830 27161
L48816 27133
L48816 27048
L48830 27020
L48844 27006
L48873 26992
L48929 26992
L48957 27006
" />
<path d="M49210 27175
L49182 27189
L49126 27189
L49097 27175
L49083 27147
L49083 27034
L49097 27006
L49126 26992
L49182 26992
L49210 27006
L49224 27034
L49224 27063
L49083 27091
" />
</g>
<g style="fill:#000000; fill-opacity:0.0; 
stroke:#000000; stroke-width:39.3701; stroke-opacity:1; 
stroke-linecap:round; stroke-linejoin:round;">
<path d="M72680 50625
L72680 27115
" />
<path d="M41190 27115
L41190 50625
" />
</g>
<g style="fill:#000000; fill-opacity:0.0; 
stroke:#000000; stroke-width:59.0551; stroke-opacity:1; 
stroke-linecap:round; stroke-linejoin:round;">
<path d="M64828 27727
L63647 27727
" />
<path d="M63647 26742
L64828 26742
" />
<path d="M50842 39298
L50842 38117
" />
<path d="M51827 38117
L51827 39298
" />
<path d="M50842 41478
L50842 40297
" />
<path d="M51827 40297
L51827 41478
" />
<path d="M69108 27727
L67927 27727
" />
<path d="M67927 26742
L69108 26742
" />
<path d="M64828 38217
L63647 38217
" />
<path d="M63647 37232
L64828 37232
" />
<path d="M69133 38232
L67952 38232
" />
<path d="M67952 37247
L69133 37247
" />
<path d="M50842 37043
L50842 35862
" />
<path d="M51827 35862
L51827 37043
" />
<path d="M53973 37217
L52792 37217
" />
<path d="M52792 36232
L53973 36232
" />
<path d="M58744 27285
L58744 27785
" />
<path d="M58744 27785
L57744 27785
" />
<path d="M57744 27785
L57744 27285
" />
<path d="M60744 27285
L60744 48285
" />
<path d="M60744 48285
L55744 48285
" />
<path d="M55744 48285
L55744 27285
" />
<path d="M55744 27285
L60744 27285
" />
<path d="M51284 51679
L51284 48136
" />
<path d="M51284 48136
L54315 48136
" />
<path d="M54315 48136
L54315 51679
" />
<path d="M54315 51679
L51284 51679
" />
<path d="M54532 49120
L54532 48136
" />
<path d="M54532 48136
L53981 48136
" />
<path d="M53981 48136
L53981 49120
" />
<path d="M53981 49120
L54532 49120
" />
<path d="M51067 49120
L51067 48136
" />
<path d="M51067 48136
L51618 48136
" />
<path d="M51618 48136
L51618 49120
" />
<path d="M51618 49120
L51067 49120
" />
<path d="M51540 50596
L54059 50596
" />
<path d="M54059 50596
L54059 51876
" />
<path d="M54059 51876
L51540 51876
" />
<path d="M51540 51876
L51540 50596
" />
<path d="M65225 27875
L65225 35875
" />
<path d="M63225 35875
L63225 27875
" />
<path d="M63225 27875
L65225 27875
" />
<path d="M64725 27875
L64725 28375
" />
<path d="M64725 28375
L63725 28375
" />
<path d="M63725 28375
L63725 27875
" />
<path d="M65225 35875
L63225 35875
" />
<path d="M64735 38359
L64735 38359
" />
<path d="M64735 38359
L64735 38859
" />
<path d="M64735 38859
L63735 38859
" />
<path d="M63735 38859
L63735 38359
" />
<path d="M65235 38359
L65235 47359
" />
<path d="M65235 47359
L63235 47359
" />
<path d="M63235 47359
L63235 38359
" />
<path d="M63235 38359
L65235 38359
" />
<path d="M69014 27880
L69014 27880
" />
<path d="M69014 27880
L69014 28380
" />
<path d="M69014 28380
L68014 28380
" />
<path d="M68014 28380
L68014 27880
" />
<path d="M69514 27880
L69514 36880
" />
<path d="M69514 36880
L67514 36880
" />
<path d="M67514 36880
L67514 27880
" />
<path d="M67514 27880
L69514 27880
" />
<path d="M69050 38355
L69050 38355
" />
<path d="M69050 38355
L69050 38855
" />
<path d="M69050 38855
L68050 38855
" />
<path d="M68050 38855
L68050 38355
" />
<path d="M69550 38355
L69550 47355
" />
<path d="M69550 47355
L67550 47355
" />
<path d="M67550 47355
L67550 38355
" />
<path d="M67550 38355
L69550 38355
" />
<path d="M47309 27440
L47309 27440
" />
<path d="M47309 27440
L47309 27940
" />
<path d="M47309 27940
L46309 27940
" />
<path d="M46309 27940
L46309 27440
" />
<path d="M49309 27440
L49309 42440
" />
<path d="M49309 42440
L44309 42440
" />
<path d="M44309 42440
L44309 27440
" />
<path d="M44309 27440
L49309 27440
" />
<path d="M54374 41050
L54374 38550
" />
<path d="M52374 41050
L52374 38550
" />
<path d="M53374.8 37550 A1000 1000 0.0 0 0 52374.8 38550 " />
<path d="M54374.8 38550 A1000 1000 0.0 0 0 53374.8 37550 " />
<path d="M52374.8 41050 A1000 1000 0.0 0 0 53374.8 42050 " />
<path d="M53374.8 42050 A1000 1000 0.0 0 0 54374.8 41050 " />
<path d="M57300 49950
L59300 49950
" />
<path d="M57300 50950
L59300 50950
" />
</g>
<g style="fill:#000000; fill-opacity:0.0; 
stroke:#000000; stroke-width:59; stroke-opacity:1; 
stroke-linecap:round; stroke-linejoin:round;">
<path d="M57300 50950
L57300 49950
" />
<path d="M59300 49950
L59300 50950
" />
</g>
<g style="fill:#000000; fill-opacity:0.0; 
stroke:#000000; stroke-width:120; stroke-opacity:1; 
stroke-linecap:round; stroke-linejoin:round;">
<path d="M69759 48629
L69759 50429
" />
<path d="M69759 50429
L61959 50429
" />
<path d="M61959 50429
L61959 48629
" />
<path d="M61959 48629
L69759 48629
" />
</g>
<g style="fill:#000000; fill-opacity:0.0; 
stroke:#000000; stroke-width:59.0551; stroke-opacity:1; 
stroke-linecap:round; stroke-linejoin:round;">
<path d="M45200 50950
L48200 50950
" />
<path d="M48200 49950
L45200 49950
" />
</g>
<g style="fill:#000000; fill-opacity:0.0; 
stroke:#000000; stroke-width:59; stroke-opacity:1; 
stroke-linecap:round; stroke-linejoin:round;">
<path d="M48200 49950
L48200 50950
" />
<path d="M45200 50950
L45200 49950
" />
</g>
<g style="fill:#000000; fill-opacity:0.0; 
stroke:#000000; stroke-width:59.0551; stroke-opacity:1; 
stroke-linecap:round; stroke-linejoin:round;">
<path d="M44200 42600
L43200 43600
" />
<path d="M43200 43600
L43200 49600
" />
<path d="M43200 49600
L50200 49600
" />
<path d="M50200 49600
L50200 42600
" />
<path d="M50200 42600
L44200 42600
" />
<path d="M54150 43350
L53950 43350
" />
<path d="M51150 43350
L51350 43350
" />
<path d="M51350 43350
L51350 43750
" />
<path d="M51350 43750
L53950 43750
" />
<path d="M53950 43750
L53950 42950
" />
<path d="M53950 42950
L51350 42950
" />
<path d="M51350 42950
L51350 43350
" />
<path d="M53950 43550
L53750 43750
" />
<path d="M52150 47300
L52150 47100
" />
<path d="M52150 44300
L52150 44500
" />
<path d="M52150 44500
L51750 44500
" />
<path d="M51750 44500
L51750 47100
" />
<path d="M51750 47100
L52550 47100
" />
<path d="M52550 47100
L52550 44500
" />
<path d="M52550 44500
L52150 44500
" />
<path d="M51950 47100
L51750 46900
" />
<path d="M53150 47300
L53150 47100
" />
<path d="M53150 44300
L53150 44500
" />
<path d="M53150 44500
L52750 44500
" />
<path d="M52750 44500
L52750 47100
" />
<path d="M52750 47100
L53550 47100
" />
<path d="M53550 47100
L53550 44500
" />
<path d="M53550 44500
L53150 44500
" />
<path d="M52950 47100
L52750 46900
" />
<path d="M51490 46530
L50720 46530
" />
<path d="M50730 46630
L51470 46630
" />
<path d="M50700 46580
L51490 46580
" />
<path d="M51100 47300
L51100 47100
" />
<path d="M51100 44300
L51100 44500
" />
<path d="M51100 44500
L50700 44500
" />
<path d="M50700 44500
L50700 47100
" />
<path d="M50700 47100
L51500 47100
" />
<path d="M51500 47100
L51500 44500
" />
<path d="M51500 44500
L51100 44500
" />
<path d="M54590 46530
L53820 46530
" />
<path d="M53830 46630
L54570 46630
" />
<path d="M53800 46580
L54590 46580
" />
<path d="M54200 47300
L54200 47100
" />
<path d="M54200 44300
L54200 44500
" />
<path d="M54200 44500
L53800 44500
" />
<path d="M53800 44500
L53800 47100
" />
<path d="M53800 47100
L54600 47100
" />
<path d="M54600 47100
L54600 44500
" />
<path d="M54600 44500
L54200 44500
" />
<path d="M72094 48870
L72094 28870
" />
<path d="M71094 28870
L71094 48870
" />
<path d="M71094 28870
L72094 28870
" />
</g>
<g style="fill:#000000; fill-opacity:0.0; 
stroke:#000000; stroke-width:59; stroke-opacity:1; 
stroke-linecap:round; stroke-linejoin:round;">
<path d="M72094 48870
L71094 48870
" />
</g>
<g style="fill:#000000; fill-opacity:0.0; 
stroke:#000000; stroke-width:59.0551; stroke-opacity:1; 
stroke-linecap:round; stroke-linejoin:round;">
<path d="M42774 48870
L42774 28870
" />
<path d="M41774 28870
L41774 48870
" />
<path d="M41774 28870
L42774 28870
" />
</g>
<g style="fill:#000000; fill-opacity:0.0; 
stroke:#000000; stroke-width:59; stroke-opacity:1; 
stroke-linecap:round; stroke-linejoin:round;">
<path d="M42774 48870
L41774 48870
" />
</g>
<g style="fill:#000000; fill-opacity:0.0; 
stroke:#000000; stroke-width:59.0551; stroke-opacity:1; 
stroke-linecap:round; stroke-linejoin:round;">
<circle cx="52479.5" cy="32414.2" r="556.777" /> 
<path d="M51298 33595
L51298 31233
" />
<path d="M51298 31233
L53660 31233
" />
<path d="M53660 31233
L53660 33595
" />
<path d="M53660 33595
L51298 33595
" />
<circle cx="52479.5" cy="28514.2" r="556.777" /> 
<path d="M51298 29695
L51298 27333
" />
<path d="M51298 27333
L53660 27333
" />
<path d="M53660 27333
L53660 29695
" />
<path d="M53660 29695
L51298 29695
" />
<path d="M62659 27375
L62640 27394
L62584 27413
L62546 27413
L62490 27394
L62453 27356
L62434 27319
L62415 27244
L62415 27188
L62434 27113
L62453 27075
L62490 27038
L62546 27019
L62584 27019
L62640 27038
L62659 27056
" />
<path d="M62884 27188
L62846 27169
L62828 27150
L62809 27113
L62809 27094
L62828 27056
L62846 27038
L62884 27019
L62959 27019
L62996 27038
L63015 27056
L63034 27094
L63034 27113
L63015 27150
L62996 27169
L62959 27188
L62884 27188
L62846 27206
L62828 27225
L62809 27263
L62809 27338
L62828 27375
L62846 27394
L62884 27413
L62959 27413
L62996 27394
L63015 27375
L63034 27338
L63034 27263
L63015 27225
L62996 27206
L62959 27188
" />
<path d="M63685 27383
L63460 27383
" />
<path d="M63573 27383
L63573 26989
L63535 27045
L63498 27083
L63460 27101
" />
<path d="M63929 26989
L63966 26989
L64004 27008
L64023 27026
L64041 27064
L64060 27139
L64060 27233
L64041 27308
L64023 27345
L64004 27364
L63966 27383
L63929 27383
L63891 27364
L63873 27345
L63854 27308
L63835 27233
L63835 27139
L63854 27064
L63873 27026
L63891 27008
L63929 26989
" />
<path d="M64304 26989
L64341 26989
L64379 27008
L64398 27026
L64416 27064
L64435 27139
L64435 27233
L64416 27308
L64398 27345
L64379 27364
L64341 27383
L64304 27383
L64266 27364
L64248 27345
L64229 27308
L64210 27233
L64210 27139
L64229 27064
L64248 27026
L64266 27008
L64304 26989
" />
<path d="M64604 27120
L64604 27383
" />
<path d="M64604 27158
L64623 27139
L64660 27120
L64716 27120
L64754 27139
L64772 27176
L64772 27383
" />
<path d="M65091 27176
L64960 27176
" />
<path d="M64960 27383
L64960 26989
L65147 26989
" />
<path d="M50700 38840
L50719 38859
L50738 38915
L50738 38953
L50719 39009
L50681 39046
L50644 39065
L50569 39084
L50513 39084
L50438 39065
L50400 39046
L50363 39009
L50344 38953
L50344 38915
L50363 38859
L50381 38840
" />
<path d="M50738 38465
L50738 38690
" />
<path d="M50738 38578
L50344 38578
L50400 38615
L50438 38653
L50456 38690
" />
<path d="M51523 39156
L51523 39381
" />
<path d="M51523 39269
L51129 39269
L51185 39306
L51223 39344
L51241 39381
" />
<path d="M51298 38931
L51279 38969
L51260 38988
L51223 39006
L51204 39006
L51166 38988
L51148 38969
L51129 38931
L51129 38856
L51148 38819
L51166 38800
L51204 38781
L51223 38781
L51260 38800
L51279 38819
L51298 38856
L51298 38931
L51316 38969
L51335 38988
L51373 39006
L51448 39006
L51485 38988
L51504 38969
L51523 38931
L51523 38856
L51504 38819
L51485 38800
L51448 38781
L51373 38781
L51335 38800
L51316 38819
L51298 38856
" />
<path d="M51260 38613
L51654 38613
" />
<path d="M51279 38613
L51260 38575
L51260 38500
L51279 38463
L51298 38444
L51335 38425
L51448 38425
L51485 38444
L51504 38463
L51523 38500
L51523 38575
L51504 38613
" />
<path d="M51316 38125
L51316 38256
" />
<path d="M51523 38256
L51129 38256
L51129 38069
" />
<path d="M50675 41020
L50694 41039
L50713 41095
L50713 41133
L50694 41189
L50656 41226
L50619 41245
L50544 41264
L50488 41264
L50413 41245
L50375 41226
L50338 41189
L50319 41133
L50319 41095
L50338 41039
L50356 41020
" />
<path d="M50356 40870
L50338 40851
L50319 40814
L50319 40720
L50338 40683
L50356 40664
L50394 40645
L50431 40645
L50488 40664
L50713 40889
L50713 40645
" />
<path d="M51528 41326
L51528 41551
" />
<path d="M51528 41439
L51134 41439
L51190 41476
L51228 41514
L51246 41551
" />
<path d="M51303 41101
L51284 41139
L51265 41158
L51228 41176
L51209 41176
L51171 41158
L51153 41139
L51134 41101
L51134 41026
L51153 40989
L51171 40970
L51209 40951
L51228 40951
L51265 40970
L51284 40989
L51303 41026
L51303 41101
L51321 41139
L51340 41158
L51378 41176
L51453 41176
L51490 41158
L51509 41139
L51528 41101
L51528 41026
L51509 40989
L51490 40970
L51453 40951
L51378 40951
L51340 40970
L51321 40989
L51303 41026
" />
<path d="M51265 40783
L51659 40783
" />
<path d="M51284 40783
L51265 40745
L51265 40670
L51284 40633
L51303 40614
L51340 40595
L51453 40595
L51490 40614
L51509 40633
L51528 40670
L51528 40745
L51509 40783
" />
<path d="M51321 40295
L51321 40426
" />
<path d="M51528 40426
L51134 40426
L51134 40239
" />
<path d="M66939 27375
L66920 27394
L66864 27413
L66826 27413
L66770 27394
L66733 27356
L66714 27319
L66695 27244
L66695 27188
L66714 27113
L66733 27075
L66770 27038
L66826 27019
L66864 27019
L66920 27038
L66939 27056
" />
<path d="M67126 27413
L67201 27413
L67239 27394
L67257 27375
L67295 27319
L67314 27244
L67314 27094
L67295 27056
L67276 27038
L67239 27019
L67164 27019
L67126 27038
L67107 27056
L67089 27094
L67089 27188
L67107 27225
L67126 27244
L67164 27263
L67239 27263
L67276 27244
L67295 27225
L67314 27188
" />
<path d="M67910 27413
L67685 27413
" />
<path d="M67798 27413
L67798 27019
L67760 27075
L67723 27113
L67685 27131
" />
<path d="M68154 27019
L68191 27019
L68229 27038
L68248 27056
L68266 27094
L68285 27169
L68285 27263
L68266 27338
L68248 27375
L68229 27394
L68191 27413
L68154 27413
L68116 27394
L68098 27375
L68079 27338
L68060 27263
L68060 27169
L68079 27094
L68098 27056
L68116 27038
L68154 27019
" />
<path d="M68529 27019
L68566 27019
L68604 27038
L68622 27056
L68641 27094
L68660 27169
L68660 27263
L68641 27338
L68622 27375
L68604 27394
L68566 27413
L68529 27413
L68491 27394
L68472 27375
L68454 27338
L68435 27263
L68435 27169
L68454 27094
L68472 27056
L68491 27038
L68529 27019
" />
<path d="M68829 27150
L68829 27413
" />
<path d="M68829 27188
L68847 27169
L68885 27150
L68941 27150
L68979 27169
L68997 27206
L68997 27413
" />
<path d="M69316 27206
L69185 27206
" />
<path d="M69185 27413
L69185 27019
L69372 27019
" />
<path d="M62471 37865
L62453 37884
L62396 37903
L62359 37903
L62303 37884
L62265 37846
L62246 37809
L62228 37734
L62228 37678
L62246 37603
L62265 37565
L62303 37528
L62359 37509
L62396 37509
L62453 37528
L62471 37546
" />
<path d="M62846 37903
L62621 37903
" />
<path d="M62734 37903
L62734 37509
L62696 37565
L62659 37603
L62621 37621
" />
<path d="M63090 37509
L63127 37509
L63165 37528
L63184 37546
L63202 37584
L63221 37659
L63221 37753
L63202 37828
L63184 37865
L63165 37884
L63127 37903
L63090 37903
L63053 37884
L63034 37865
L63015 37828
L62996 37753
L62996 37659
L63015 37584
L63034 37546
L63053 37528
L63090 37509
" />
<path d="M63685 37903
L63460 37903
" />
<path d="M63573 37903
L63573 37509
L63535 37565
L63498 37603
L63460 37621
" />
<path d="M63929 37509
L63966 37509
L64004 37528
L64023 37546
L64041 37584
L64060 37659
L64060 37753
L64041 37828
L64023 37865
L64004 37884
L63966 37903
L63929 37903
L63891 37884
L63873 37865
L63854 37828
L63835 37753
L63835 37659
L63854 37584
L63873 37546
L63891 37528
L63929 37509
" />
<path d="M64304 37509
L64341 37509
L64379 37528
L64398 37546
L64416 37584
L64435 37659
L64435 37753
L64416 37828
L64398 37865
L64379 37884
L64341 37903
L64304 37903
L64266 37884
L64248 37865
L64229 37828
L64210 37753
L64210 37659
L64229 37584
L64248 37546
L64266 37528
L64304 37509
" />
<path d="M64604 37640
L64604 37903
" />
<path d="M64604 37678
L64623 37659
L64660 37640
L64716 37640
L64754 37659
L64772 37696
L64772 37903
" />
<path d="M65091 37696
L64960 37696
" />
<path d="M64960 37903
L64960 37509
L65147 37509
" />
<path d="M66776 37880
L66758 37899
L66701 37918
L66664 37918
L66608 37899
L66570 37861
L66551 37824
L66533 37749
L66533 37693
L66551 37618
L66570 37580
L66608 37543
L66664 37524
L66701 37524
L66758 37543
L66776 37561
" />
<path d="M67151 37918
L66926 37918
" />
<path d="M67039 37918
L67039 37524
L67001 37580
L66964 37618
L66926 37636
" />
<path d="M67526 37918
L67301 37918
" />
<path d="M67414 37918
L67414 37524
L67376 37580
L67339 37618
L67301 37636
" />
<path d="M67975 37908
L67750 37908
" />
<path d="M67863 37908
L67863 37514
L67825 37570
L67788 37608
L67750 37626
" />
<path d="M68219 37514
L68256 37514
L68294 37533
L68313 37551
L68331 37589
L68350 37664
L68350 37758
L68331 37833
L68313 37870
L68294 37889
L68256 37908
L68219 37908
L68181 37889
L68163 37870
L68144 37833
L68125 37758
L68125 37664
L68144 37589
L68163 37551
L68181 37533
L68219 37514
" />
<path d="M68594 37514
L68631 37514
L68669 37533
L68688 37551
L68706 37589
L68725 37664
L68725 37758
L68706 37833
L68688 37870
L68669 37889
L68631 37908
L68594 37908
L68556 37889
L68538 37870
L68519 37833
L68500 37758
L68500 37664
L68519 37589
L68538 37551
L68556 37533
L68594 37514
" />
<path d="M68894 37645
L68894 37908
" />
<path d="M68894 37683
L68913 37664
L68950 37645
L69006 37645
L69044 37664
L69063 37701
L69063 37908
" />
<path d="M69381 37701
L69250 37701
" />
<path d="M69250 37908
L69250 37514
L69438 37514
" />
<path d="M50720 36585
L50739 36604
L50758 36660
L50758 36698
L50739 36754
L50701 36791
L50664 36810
L50589 36829
L50533 36829
L50458 36810
L50420 36791
L50383 36754
L50364 36698
L50364 36660
L50383 36604
L50401 36585
" />
<path d="M50364 36248
L50364 36323
L50383 36360
L50401 36379
L50458 36416
L50533 36435
L50683 36435
L50720 36416
L50739 36398
L50758 36360
L50758 36285
L50739 36248
L50720 36229
L50683 36210
L50589 36210
L50551 36229
L50533 36248
L50514 36285
L50514 36360
L50533 36398
L50551 36416
L50589 36435
" />
<path d="M51573 37079
L51573 37304
" />
<path d="M51573 37191
L51179 37191
L51235 37229
L51273 37266
L51291 37304
" />
<path d="M51179 36835
L51179 36798
L51198 36760
L51216 36741
L51254 36723
L51329 36704
L51423 36704
L51498 36723
L51535 36741
L51554 36760
L51573 36798
L51573 36835
L51554 36873
L51535 36891
L51498 36910
L51423 36929
L51329 36929
L51254 36910
L51216 36891
L51198 36873
L51179 36835
" />
<path d="M51179 36460
L51179 36423
L51198 36385
L51216 36366
L51254 36348
L51329 36329
L51423 36329
L51498 36348
L51535 36366
L51554 36385
L51573 36423
L51573 36460
L51554 36498
L51535 36516
L51498 36535
L51423 36554
L51329 36554
L51254 36535
L51216 36516
L51198 36498
L51179 36460
" />
<path d="M51310 36160
L51573 36160
" />
<path d="M51348 36160
L51329 36141
L51310 36104
L51310 36048
L51329 36010
L51366 35991
L51573 35991
" />
<path d="M51366 35673
L51366 35804
" />
<path d="M51573 35804
L51179 35804
L51179 35616
" />
<path d="M53279 36060
L53260 36079
L53204 36098
L53166 36098
L53110 36079
L53072 36041
L53054 36004
L53035 35929
L53035 35873
L53054 35798
L53072 35760
L53110 35723
L53166 35704
L53204 35704
L53260 35723
L53279 35741
" />
<path d="M53410 35704
L53672 35704
L53504 36098
" />
<path d="M52780 36898
L52555 36898
" />
<path d="M52668 36898
L52668 36504
L52630 36560
L52593 36598
L52555 36616
" />
<path d="M53024 36504
L53061 36504
L53099 36523
L53117 36541
L53136 36579
L53155 36654
L53155 36748
L53136 36823
L53117 36860
L53099 36879
L53061 36898
L53024 36898
L52986 36879
L52967 36860
L52949 36823
L52930 36748
L52930 36654
L52949 36579
L52967 36541
L52986 36523
L53024 36504
" />
<path d="M53399 36504
L53436 36504
L53474 36523
L53492 36541
L53511 36579
L53530 36654
L53530 36748
L53511 36823
L53492 36860
L53474 36879
L53436 36898
L53399 36898
L53361 36879
L53342 36860
L53324 36823
L53305 36748
L53305 36654
L53324 36579
L53342 36541
L53361 36523
L53399 36504
" />
<path d="M53699 36635
L53699 36898
" />
<path d="M53699 36673
L53717 36654
L53755 36635
L53811 36635
L53849 36654
L53867 36691
L53867 36898
" />
<path d="M54186 36691
L54055 36691
" />
<path d="M54055 36898
L54055 36504
L54242 36504
" />
<path d="M56295 27514
L56295 27833
L56313 27870
L56332 27889
L56370 27908
L56445 27908
L56482 27889
L56501 27870
L56520 27833
L56520 27514
" />
<path d="M56688 27551
L56707 27533
L56744 27514
L56838 27514
L56876 27533
L56894 27551
L56913 27589
L56913 27626
L56894 27683
L56669 27908
L56913 27908
" />
<path d="M58310 40395
L58310 40208
" />
<path d="M58423 40433
L58029 40302
L58423 40170
" />
<path d="M58029 40095
L58029 39870
" />
<path d="M58423 39983
L58029 39983
" />
<path d="M58423 39739
L58029 39739
L58310 39608
L58029 39477
L58423 39477
" />
<path d="M58216 39289
L58216 39158
" />
<path d="M58423 39102
L58423 39289
L58029 39289
L58029 39102
" />
<path d="M58048 38727
L58029 38764
L58029 38821
L58048 38877
L58085 38914
L58123 38933
L58198 38952
L58254 38952
L58329 38933
L58366 38914
L58404 38877
L58423 38821
L58423 38783
L58404 38727
L58385 38708
L58254 38708
L58254 38783
" />
<path d="M58310 38558
L58310 38371
" />
<path d="M58423 38596
L58029 38464
L58423 38333
" />
<path d="M58423 37996
L58423 38221
" />
<path d="M58423 38108
L58029 38108
L58085 38146
L58123 38183
L58141 38221
" />
<path d="M58066 37846
L58048 37827
L58029 37790
L58029 37696
L58048 37658
L58066 37640
L58104 37621
L58141 37621
L58198 37640
L58423 37864
L58423 37621
" />
<path d="M58198 37396
L58179 37433
L58160 37452
L58123 37471
L58104 37471
L58066 37452
L58048 37433
L58029 37396
L58029 37321
L58048 37283
L58066 37265
L58104 37246
L58123 37246
L58160 37265
L58179 37283
L58198 37321
L58198 37396
L58216 37433
L58235 37452
L58273 37471
L58348 37471
L58385 37452
L58404 37433
L58423 37396
L58423 37321
L58404 37283
L58385 37265
L58348 37246
L58273 37246
L58235 37265
L58216 37283
L58198 37321
" />
<path d="M58160 36908
L58423 36908
" />
<path d="M58010 37002
L58291 37096
L58291 36852
" />
<path d="M58423 36702
L58029 36702
L58029 36552
L58048 36515
L58066 36496
L58104 36477
L58160 36477
L58198 36496
L58216 36515
L58235 36552
L58235 36702
" />
<path d="M58273 36308
L58273 36008
" />
<path d="M58423 35821
L58029 35821
L58029 35671
L58048 35634
L58066 35615
L58104 35596
L58160 35596
L58198 35615
L58216 35634
L58235 35671
L58235 35821
" />
<path d="M58029 35427
L58348 35427
L58385 35409
L58404 35390
L58423 35352
L58423 35277
L58404 35240
L58385 35221
L58348 35202
L58029 35202
" />
<path d="M52509 49728
L52509 49334
L52659 49334
L52696 49353
L52715 49371
L52734 49409
L52734 49465
L52715 49503
L52696 49521
L52659 49540
L52509 49540
" />
<path d="M52865 49334
L53109 49334
L52978 49484
L53034 49484
L53071 49503
L53090 49521
L53109 49559
L53109 49653
L53090 49690
L53071 49709
L53034 49728
L52921 49728
L52884 49709
L52865 49690
" />
<path d="M52303 49934
L52303 50253
L52321 50290
L52340 50309
L52378 50328
L52453 50328
L52490 50309
L52509 50290
L52528 50253
L52528 49934
" />
<path d="M52696 50309
L52753 50328
L52846 50328
L52884 50309
L52903 50290
L52921 50253
L52921 50215
L52903 50178
L52884 50159
L52846 50140
L52771 50121
L52734 50103
L52715 50084
L52696 50046
L52696 50009
L52715 49971
L52734 49953
L52771 49934
L52865 49934
L52921 49953
" />
<path d="M53221 50121
L53278 50140
L53296 50159
L53315 50196
L53315 50253
L53296 50290
L53278 50309
L53240 50328
L53090 50328
L53090 49934
L53221 49934
L53259 49953
L53278 49971
L53296 50009
L53296 50046
L53278 50084
L53259 50103
L53221 50121
L53090 50121
" />
<path d="M63395 28529
L63395 28848
L63413 28885
L63432 28904
L63470 28923
L63545 28923
L63582 28904
L63601 28885
L63620 28848
L63620 28529
" />
<path d="M63769 28529
L64013 28529
L63882 28679
L63938 28679
L63976 28698
L63994 28716
L64013 28754
L64013 28848
L63994 28885
L63976 28904
L63938 28923
L63826 28923
L63788 28904
L63769 28885
" />
<path d="M64009 32568
L64009 32306
L64403 32474
" />
<path d="M64140 31987
L64403 31987
" />
<path d="M63990 32081
L64271 32174
L64271 31931
" />
<path d="M64009 31706
L64009 31668
L64028 31631
L64046 31612
L64084 31593
L64159 31575
L64253 31575
L64328 31593
L64365 31612
L64384 31631
L64403 31668
L64403 31706
L64384 31743
L64365 31762
L64328 31781
L64253 31800
L64159 31800
L64084 31781
L64046 31762
L64028 31743
L64009 31706
" />
<path d="M64009 31331
L64009 31293
L64028 31256
L64046 31237
L64084 31218
L64159 31200
L64253 31200
L64328 31218
L64365 31237
L64384 31256
L64403 31293
L64403 31331
L64384 31368
L64365 31387
L64328 31406
L64253 31425
L64159 31425
L64084 31406
L64046 31387
L64028 31368
L64009 31331
" />
<path d="M63425 39044
L63425 39363
L63443 39400
L63462 39419
L63500 39438
L63575 39438
L63612 39419
L63631 39400
L63650 39363
L63650 39044
" />
<path d="M64024 39044
L63837 39044
L63818 39231
L63837 39213
L63874 39194
L63968 39194
L64006 39213
L64024 39231
L64043 39269
L64043 39363
L64024 39400
L64006 39419
L63968 39438
L63874 39438
L63837 39419
L63818 39400
" />
<path d="M64150 43352
L64413 43352
" />
<path d="M64000 43446
L64281 43539
L64281 43296
" />
<path d="M64019 42958
L64019 43146
L64206 43164
L64188 43146
L64169 43108
L64169 43014
L64188 42977
L64206 42958
L64244 42939
L64338 42939
L64375 42958
L64394 42977
L64413 43014
L64413 43108
L64394 43146
L64375 43164
" />
<path d="M64056 42790
L64038 42771
L64019 42733
L64019 42640
L64038 42602
L64056 42583
L64094 42565
L64131 42565
L64188 42583
L64413 42808
L64413 42565
" />
<path d="M64019 42321
L64019 42283
L64038 42246
L64056 42227
L64094 42208
L64169 42190
L64263 42190
L64338 42208
L64375 42227
L64394 42246
L64413 42283
L64413 42321
L64394 42358
L64375 42377
L64338 42396
L64263 42415
L64169 42415
L64094 42396
L64056 42377
L64038 42358
L64019 42321
" />
<path d="M67670 28514
L67670 28833
L67688 28870
L67707 28889
L67745 28908
L67820 28908
L67857 28889
L67876 28870
L67895 28833
L67895 28514
" />
<path d="M68251 28645
L68251 28908
" />
<path d="M68157 28495
L68063 28776
L68307 28776
" />
<path d="M68430 32867
L68693 32867
" />
<path d="M68280 32961
L68561 33054
L68561 32811
" />
<path d="M68299 32586
L68299 32548
L68318 32511
L68336 32492
L68374 32473
L68449 32454
L68543 32454
L68618 32473
L68655 32492
L68674 32511
L68693 32548
L68693 32586
L68674 32623
L68655 32642
L68618 32661
L68543 32679
L68449 32679
L68374 32661
L68336 32642
L68318 32623
L68299 32586
" />
<path d="M68299 32098
L68299 32286
L68486 32305
L68468 32286
L68449 32248
L68449 32155
L68468 32117
L68486 32098
L68524 32080
L68618 32080
L68655 32098
L68674 32117
L68693 32155
L68693 32248
L68674 32286
L68655 32305
" />
<path d="M68693 31705
L68693 31930
" />
<path d="M68693 31817
L68299 31817
L68355 31855
L68393 31892
L68411 31930
" />
<path d="M67710 38989
L67710 39308
L67728 39345
L67747 39364
L67785 39383
L67860 39383
L67897 39364
L67916 39345
L67935 39308
L67935 38989
" />
<path d="M68291 38989
L68216 38989
L68178 39008
L68159 39026
L68122 39083
L68103 39158
L68103 39308
L68122 39345
L68141 39364
L68178 39383
L68253 39383
L68291 39364
L68309 39345
L68328 39308
L68328 39214
L68309 39176
L68291 39158
L68253 39139
L68178 39139
L68141 39158
L68122 39176
L68103 39214
" />
<path d="M68465 43347
L68728 43347
" />
<path d="M68315 43441
L68596 43534
L68596 43291
" />
<path d="M68334 43066
L68334 43028
L68353 42991
L68371 42972
L68409 42953
L68484 42934
L68578 42934
L68653 42953
L68690 42972
L68709 42991
L68728 43028
L68728 43066
L68709 43103
L68690 43122
L68653 43141
L68578 43159
L68484 43159
L68409 43141
L68371 43122
L68353 43103
L68334 43066
" />
<path d="M68334 42578
L68334 42766
L68521 42785
L68503 42766
L68484 42728
L68484 42635
L68503 42597
L68521 42578
L68559 42560
L68653 42560
L68690 42578
L68709 42597
L68728 42635
L68728 42728
L68709 42766
L68690 42785
" />
<path d="M68728 42185
L68728 42410
" />
<path d="M68728 42297
L68334 42297
L68390 42335
L68428 42372
L68446 42410
" />
<path d="M44580 27659
L44580 27978
L44598 28015
L44617 28034
L44655 28053
L44730 28053
L44767 28034
L44786 28015
L44805 27978
L44805 27659
" />
<path d="M45198 28053
L44973 28053
" />
<path d="M45086 28053
L45086 27659
L45048 27715
L45011 27753
L44973 27771
" />
<path d="M46988 35976
L46594 35976
L46875 35844
L46594 35713
L46988 35713
" />
<path d="M46594 35582
L46594 35357
" />
<path d="M46988 35469
L46594 35469
" />
<path d="M46763 35169
L46744 35207
L46725 35226
L46688 35244
L46669 35244
L46631 35226
L46613 35207
L46594 35169
L46594 35094
L46613 35057
L46631 35038
L46669 35019
L46688 35019
L46725 35038
L46744 35057
L46763 35094
L46763 35169
L46781 35207
L46800 35226
L46838 35244
L46913 35244
L46950 35226
L46969 35207
L46988 35169
L46988 35094
L46969 35057
L46950 35038
L46913 35019
L46838 35019
L46800 35038
L46781 35057
L46763 35094
" />
<path d="M46763 34795
L46744 34832
L46725 34851
L46688 34870
L46669 34870
L46631 34851
L46613 34832
L46594 34795
L46594 34720
L46613 34682
L46631 34663
L46669 34645
L46688 34645
L46725 34663
L46744 34682
L46763 34720
L46763 34795
L46781 34832
L46800 34851
L46838 34870
L46913 34870
L46950 34851
L46969 34832
L46988 34795
L46988 34720
L46969 34682
L46950 34663
L46913 34645
L46838 34645
L46800 34663
L46781 34682
L46763 34720
" />
<path d="M46594 34401
L46594 34363
L46613 34326
L46631 34307
L46669 34288
L46744 34270
L46838 34270
L46913 34288
L46950 34307
L46969 34326
L46988 34363
L46988 34401
L46969 34438
L46950 34457
L46913 34476
L46838 34495
L46744 34495
L46669 34476
L46631 34457
L46613 34438
L46594 34401
" />
<path d="M46763 34045
L46744 34082
L46725 34101
L46688 34120
L46669 34120
L46631 34101
L46613 34082
L46594 34045
L46594 33970
L46613 33932
L46631 33913
L46669 33895
L46688 33895
L46725 33913
L46744 33932
L46763 33970
L46763 34045
L46781 34082
L46800 34101
L46838 34120
L46913 34120
L46950 34101
L46969 34082
L46988 34045
L46988 33970
L46969 33932
L46950 33913
L46913 33895
L46838 33895
L46800 33913
L46781 33932
L46763 33970
" />
<path d="M53159 40118
L53553 39856
" />
<path d="M53159 39856
L53553 40118
" />
<path d="M53553 39500
L53553 39725
" />
<path d="M53553 39612
L53159 39612
L53215 39650
L53253 39687
L53271 39725
" />
<path d="M54178 40465
L54178 40690
" />
<path d="M54178 40578
L53784 40578
L53840 40615
L53878 40653
L53896 40690
" />
<path d="M53784 40128
L53784 40203
L53803 40240
L53821 40259
L53878 40296
L53953 40315
L54103 40315
L54140 40296
L54159 40278
L54178 40240
L54178 40165
L54159 40128
L54140 40109
L54103 40090
L54009 40090
L53971 40109
L53953 40128
L53934 40165
L53934 40240
L53953 40278
L53971 40296
L54009 40315
" />
<path d="M54178 39921
L53784 39921
L54065 39790
L53784 39659
L54178 39659
" />
<path d="M54178 39471
L53784 39471
" />
<path d="M53971 39471
L53971 39246
" />
<path d="M54178 39246
L53784 39246
" />
<path d="M53915 39096
L53915 38890
L54178 39096
L54178 38890
" />
</g>
<g style="fill:#000000; fill-opacity:0.0; 
stroke:#000000; stroke-width:80; stroke-opacity:1; 
stroke-linecap:round; stroke-linejoin:round;">
<path d="M57966 52163
L57966 51746
L58125 51746
L58165 51766
L58185 51786
L58205 51825
L58205 51885
L58185 51925
L58165 51945
L58125 51965
L57966 51965
" />
<path d="M58563 51885
L58563 52163
" />
<path d="M58463 51726
L58364 52024
L58622 52024
" />
</g>
<g style="fill:#000000; fill-opacity:0.0; 
stroke:#000000; stroke-width:59.0551; stroke-opacity:1; 
stroke-linecap:round; stroke-linejoin:round;">
<path d="M57618 49819
L57660 49833
L57730 49833
L57758 49819
L57772 49805
L57786 49777
L57786 49749
L57772 49721
L57758 49707
L57730 49692
L57674 49678
L57646 49664
L57632 49650
L57618 49622
L57618 49594
L57632 49566
L57646 49552
L57674 49538
L57744 49538
L57786 49552
" />
<path d="M57913 49678
L58011 49678
" />
<path d="M58053 49833
L57913 49833
L57913 49538
L58053 49538
" />
<path d="M58349 49833
L58250 49692
" />
<path d="M58180 49833
L58180 49538
L58292 49538
L58321 49552
L58335 49566
L58349 49594
L58349 49636
L58335 49664
L58321 49678
L58292 49692
L58180 49692
" />
<path d="M58475 49833
L58475 49538
" />
<path d="M58602 49749
L58742 49749
" />
<path d="M58574 49833
L58672 49538
L58771 49833
" />
<path d="M59010 49833
L58869 49833
L58869 49538
" />
</g>
<g style="fill:#000000; fill-opacity:0.0; 
stroke:#000000; stroke-width:80; stroke-opacity:1; 
stroke-linecap:round; stroke-linejoin:round;">
<path d="M65559 48410
L65559 48010
L65711 48010
L65750 48029
L65769 48048
L65788 48087
L65788 48144
L65769 48182
L65750 48201
L65711 48220
L65559 48220
" />
<path d="M66150 48010
L65959 48010
L65940 48201
L65959 48182
L65997 48163
L66092 48163
L66131 48182
L66150 48201
L66169 48239
L66169 48334
L66150 48372
L66131 48391
L66092 48410
L65997 48410
L65959 48391
L65940 48372
" />
<path d="M64835 51012
L64816 51031
L64759 51050
L64721 51050
L64664 51031
L64626 50993
L64607 50955
L64588 50879
L64588 50822
L64607 50746
L64626 50708
L64664 50669
L64721 50650
L64759 50650
L64816 50669
L64835 50688
" />
<path d="M65083 50650
L65159 50650
L65197 50669
L65235 50708
L65254 50784
L65254 50917
L65235 50993
L65197 51031
L65159 51050
L65083 51050
L65045 51031
L65007 50993
L64988 50917
L64988 50784
L65007 50708
L65045 50669
L65083 50650
" />
<path d="M65426 51050
L65426 50650
L65654 51050
L65654 50650
" />
<path d="M65788 50650
L66016 50650
" />
<path d="M65902 51050
L65902 50650
" />
<path d="M66378 51050
L66245 50860
" />
<path d="M66150 51050
L66150 50650
L66302 50650
L66340 50669
L66359 50688
L66378 50727
L66378 50784
L66359 50822
L66340 50841
L66302 50860
L66150 50860
" />
<path d="M66626 50650
L66702 50650
L66740 50669
L66778 50708
L66797 50784
L66797 50917
L66778 50993
L66740 51031
L66702 51050
L66626 51050
L66588 51031
L66550 50993
L66531 50917
L66531 50784
L66550 50708
L66588 50669
L66626 50650
" />
<path d="M67159 51050
L66969 51050
L66969 50650
" />
</g>
<g style="fill:#000000; fill-opacity:0.0; 
stroke:#000000; stroke-width:62; stroke-opacity:1; 
stroke-linecap:round; stroke-linejoin:round;">
<path d="M46617 52113
L46617 52291
L46605 52327
L46581 52350
L46545 52362
L46522 52362
" />
<path d="M46866 52362
L46723 52362
" />
<path d="M46794 52362
L46794 52113
L46771 52149
L46747 52172
L46723 52184
" />
</g>
<g style="fill:#000000; fill-opacity:0.0; 
stroke:#000000; stroke-width:59.0551; stroke-opacity:1; 
stroke-linecap:round; stroke-linejoin:round;">
<path d="M46018 52808
L46018 52513
L46130 52513
L46158 52527
L46172 52541
L46186 52569
L46186 52611
L46172 52639
L46158 52653
L46130 52667
L46018 52667
" />
<path d="M46369 52513
L46425 52513
L46453 52527
L46482 52555
L46496 52611
L46496 52710
L46482 52766
L46453 52794
L46425 52808
L46369 52808
L46341 52794
L46313 52766
L46299 52710
L46299 52611
L46313 52555
L46341 52527
L46369 52513
" />
<path d="M46594 52513
L46664 52808
L46721 52597
L46777 52808
L46847 52513
" />
<path d="M46960 52653
L47058 52653
" />
<path d="M47100 52808
L46960 52808
L46960 52513
L47100 52513
" />
<path d="M47396 52808
L47297 52667
" />
<path d="M47227 52808
L47227 52513
L47339 52513
L47367 52527
L47381 52541
L47396 52569
L47396 52611
L47381 52639
L47367 52653
L47339 52667
L47227 52667
" />
<path d="M43150 42584
L43150 42903
L43168 42940
L43187 42959
L43225 42978
L43300 42978
L43337 42959
L43356 42940
L43375 42903
L43375 42584
" />
<path d="M43524 42584
L43787 42584
L43618 42978
" />
<path d="M45668 46278
L45668 45884
L45800 46165
L45931 45884
L45931 46278
" />
<path d="M46062 45884
L46287 45884
" />
<path d="M46175 46278
L46175 45884
" />
<path d="M46475 46053
L46437 46034
L46418 46015
L46400 45978
L46400 45959
L46418 45921
L46437 45903
L46475 45884
L46550 45884
L46587 45903
L46606 45921
L46625 45959
L46625 45978
L46606 46015
L46587 46034
L46550 46053
L46475 46053
L46437 46071
L46418 46090
L46400 46128
L46400 46203
L46418 46240
L46437 46259
L46475 46278
L46550 46278
L46587 46259
L46606 46240
L46625 46203
L46625 46128
L46606 46090
L46587 46071
L46550 46053
" />
<path d="M46849 46053
L46812 46034
L46793 46015
L46774 45978
L46774 45959
L46793 45921
L46812 45903
L46849 45884
L46924 45884
L46962 45903
L46981 45921
L46999 45959
L46999 45978
L46981 46015
L46962 46034
L46924 46053
L46849 46053
L46812 46071
L46793 46090
L46774 46128
L46774 46203
L46793 46240
L46812 46259
L46849 46278
L46924 46278
L46962 46259
L46981 46240
L46999 46203
L46999 46128
L46981 46090
L46962 46071
L46924 46053
" />
<path d="M47243 45884
L47281 45884
L47318 45903
L47337 45921
L47356 45959
L47374 46034
L47374 46128
L47356 46203
L47337 46240
L47318 46259
L47281 46278
L47243 46278
L47206 46259
L47187 46240
L47168 46203
L47149 46128
L47149 46034
L47168 45959
L47187 45921
L47206 45903
L47243 45884
" />
<path d="M47599 46053
L47562 46034
L47543 46015
L47524 45978
L47524 45959
L47543 45921
L47562 45903
L47599 45884
L47674 45884
L47712 45903
L47731 45921
L47749 45959
L47749 45978
L47731 46015
L47712 46034
L47674 46053
L47599 46053
L47562 46071
L47543 46090
L47524 46128
L47524 46203
L47543 46240
L47562 46259
L47599 46278
L47674 46278
L47712 46259
L47731 46240
L47749 46203
L47749 46128
L47731 46090
L47712 46071
L47674 46053
" />
<path d="M51884 43528
L51753 43340
" />
<path d="M51659 43528
L51659 43134
L51809 43134
L51846 43153
L51865 43171
L51884 43209
L51884 43265
L51865 43303
L51846 43321
L51809 43340
L51659 43340
" />
<path d="M52259 43528
L52034 43528
" />
<path d="M52146 43528
L52146 43134
L52109 43190
L52071 43228
L52034 43246
" />
<path d="M52965 43528
L52740 43528
" />
<path d="M52853 43528
L52853 43134
L52815 43190
L52778 43228
L52740 43246
" />
<path d="M53134 43528
L53134 43134
" />
<path d="M53171 43378
L53284 43528
" />
<path d="M53284 43265
L53134 43415
" />
<path d="M53640 43134
L53453 43134
L53434 43321
L53453 43303
L53490 43284
L53584 43284
L53621 43303
L53640 43321
L53659 43359
L53659 43453
L53640 43490
L53621 43509
L53584 43528
L53490 43528
L53453 43509
L53434 43490
" />
<path d="M52328 46565
L52140 46696
" />
<path d="M52328 46790
L51934 46790
L51934 46640
L51953 46603
L51971 46584
L52009 46565
L52065 46565
L52103 46584
L52121 46603
L52140 46640
L52140 46790
" />
<path d="M51971 46415
L51953 46396
L51934 46359
L51934 46265
L51953 46228
L51971 46209
L52009 46190
L52046 46190
L52103 46209
L52328 46434
L52328 46190
" />
<path d="M51934 45112
L51934 45187
L51953 45224
L51971 45243
L52028 45281
L52103 45299
L52253 45299
L52290 45281
L52309 45262
L52328 45224
L52328 45149
L52309 45112
L52290 45093
L52253 45074
L52159 45074
L52121 45093
L52103 45112
L52084 45149
L52084 45224
L52103 45262
L52121 45281
L52159 45299
" />
<path d="M52103 44850
L52084 44887
L52065 44906
L52028 44925
L52009 44925
L51971 44906
L51953 44887
L51934 44850
L51934 44775
L51953 44737
L51971 44718
L52009 44700
L52028 44700
L52065 44718
L52084 44737
L52103 44775
L52103 44850
L52121 44887
L52140 44906
L52178 44925
L52253 44925
L52290 44906
L52309 44887
L52328 44850
L52328 44775
L52309 44737
L52290 44718
L52253 44700
L52178 44700
L52140 44718
L52121 44737
L52103 44775
" />
<path d="M53328 46565
L53140 46696
" />
<path d="M53328 46790
L52934 46790
L52934 46640
L52953 46603
L52971 46584
L53009 46565
L53065 46565
L53103 46584
L53121 46603
L53140 46640
L53140 46790
" />
<path d="M52934 46434
L52934 46190
L53084 46321
L53084 46265
L53103 46228
L53121 46209
L53159 46190
L53253 46190
L53290 46209
L53309 46228
L53328 46265
L53328 46378
L53309 46415
L53290 46434
" />
<path d="M52934 45112
L52934 45187
L52953 45224
L52971 45243
L53028 45281
L53103 45299
L53253 45299
L53290 45281
L53309 45262
L53328 45224
L53328 45149
L53309 45112
L53290 45093
L53253 45074
L53159 45074
L53121 45093
L53103 45112
L53084 45149
L53084 45224
L53103 45262
L53121 45281
L53159 45299
" />
<path d="M53103 44850
L53084 44887
L53065 44906
L53028 44925
L53009 44925
L52971 44906
L52953 44887
L52934 44850
L52934 44775
L52953 44737
L52971 44718
L53009 44700
L53028 44700
L53065 44718
L53084 44737
L53103 44775
L53103 44850
L53121 44887
L53140 44906
L53178 44925
L53253 44925
L53290 44906
L53309 44887
L53328 44850
L53328 44775
L53309 44737
L53290 44718
L53253 44700
L53178 44700
L53140 44718
L53121 44737
L53103 44775
" />
<path d="M51278 46390
L50884 46390
L50884 46296
L50903 46240
L50940 46203
L50978 46184
L51053 46165
L51109 46165
L51184 46184
L51221 46203
L51259 46240
L51278 46296
L51278 46390
" />
<path d="M51278 45790
L51278 46015
" />
<path d="M51278 45903
L50884 45903
L50940 45940
L50978 45978
L50996 46015
" />
<path d="M50884 45512
L50884 45268
L51034 45399
L51034 45343
L51053 45306
L51071 45287
L51109 45268
L51203 45268
L51240 45287
L51259 45306
L51278 45343
L51278 45456
L51259 45493
L51240 45512
" />
<path d="M51240 45100
L51259 45081
L51278 45100
L51259 45118
L51240 45100
L51278 45100
" />
<path d="M50884 44743
L50884 44818
L50903 44856
L50921 44875
L50978 44912
L51053 44931
L51203 44931
L51240 44912
L51259 44893
L51278 44856
L51278 44781
L51259 44743
L51240 44725
L51203 44706
L51109 44706
L51071 44725
L51053 44743
L51034 44781
L51034 44856
L51053 44893
L51071 44912
L51109 44931
" />
<path d="M54378 46390
L53984 46390
L53984 46296
L54003 46240
L54040 46203
L54078 46184
L54153 46165
L54209 46165
L54284 46184
L54321 46203
L54359 46240
L54378 46296
L54378 46390
" />
<path d="M54021 46015
L54003 45996
L53984 45959
L53984 45865
L54003 45828
L54021 45809
L54059 45790
L54096 45790
L54153 45809
L54378 46034
L54378 45790
" />
<path d="M53984 45512
L53984 45268
L54134 45399
L54134 45343
L54153 45306
L54171 45287
L54209 45268
L54303 45268
L54340 45287
L54359 45306
L54378 45343
L54378 45456
L54359 45493
L54340 45512
" />
<path d="M54340 45100
L54359 45081
L54378 45100
L54359 45118
L54340 45100
L54378 45100
" />
<path d="M53984 44743
L53984 44818
L54003 44856
L54021 44875
L54078 44912
L54153 44931
L54303 44931
L54340 44912
L54359 44893
L54378 44856
L54378 44781
L54359 44743
L54340 44725
L54303 44706
L54209 44706
L54171 44725
L54153 44743
L54134 44781
L54134 44856
L54153 44893
L54171 44912
L54209 44931
" />
</g>
<g style="fill:#000000; fill-opacity:0.0; 
stroke:#000000; stroke-width:62; stroke-opacity:1; 
stroke-linecap:round; stroke-linejoin:round;">
<path d="M71426 28732
L71426 28483
L71520 28483
L71544 28495
L71556 28507
L71568 28531
L71568 28566
L71556 28590
L71544 28602
L71520 28614
L71426 28614
" />
<path d="M71663 28507
L71675 28495
L71698 28483
L71758 28483
L71781 28495
L71793 28507
L71805 28531
L71805 28554
L71793 28590
L71651 28732
L71805 28732
" />
<path d="M70907 39765
L70658 39765
" />
<path d="M70907 39622
L70765 39729
" />
<path d="M70658 39622
L70800 39765
" />
<path d="M70777 39516
L70777 39433
" />
<path d="M70907 39397
L70907 39516
L70658 39516
L70658 39397
" />
<path d="M70788 39243
L70907 39243
" />
<path d="M70658 39326
L70788 39243
L70658 39160
" />
<path d="M70777 38994
L70788 38958
L70800 38947
L70824 38935
L70860 38935
L70883 38947
L70895 38958
L70907 38982
L70907 39077
L70658 39077
L70658 38994
L70670 38970
L70682 38958
L70705 38947
L70729 38947
L70753 38958
L70765 38970
L70777 38994
L70777 39077
" />
<path d="M70658 38781
L70658 38733
L70670 38709
L70694 38686
L70741 38674
L70824 38674
L70871 38686
L70895 38709
L70907 38733
L70907 38781
L70895 38804
L70871 38828
L70824 38840
L70741 38840
L70694 38828
L70670 38804
L70658 38781
" />
<path d="M70836 38579
L70836 38460
" />
<path d="M70907 38603
L70658 38520
L70907 38437
" />
<path d="M70907 38211
L70788 38294
" />
<path d="M70907 38354
L70658 38354
L70658 38259
L70670 38235
L70682 38223
L70705 38211
L70741 38211
L70765 38223
L70777 38235
L70788 38259
L70788 38354
" />
<path d="M70907 38105
L70658 38105
L70658 38045
L70670 38010
L70694 37986
L70717 37974
L70765 37962
L70800 37962
L70848 37974
L70871 37986
L70895 38010
L70907 38045
L70907 38105
" />
<path d="M42106 28732
L42106 28483
L42200 28483
L42224 28495
L42236 28507
L42248 28531
L42248 28566
L42236 28590
L42224 28602
L42200 28614
L42106 28614
" />
<path d="M42485 28732
L42343 28732
" />
<path d="M42414 28732
L42414 28483
L42390 28519
L42366 28542
L42343 28554
" />
<path d="M43188 39657
L43200 39669
L43212 39704
L43212 39728
L43200 39764
L43177 39787
L43153 39799
L43105 39811
L43070 39811
L43022 39799
L42999 39787
L42975 39764
L42963 39728
L42963 39704
L42975 39669
L42987 39657
" />
<path d="M42963 39503
L42963 39455
L42975 39432
L42999 39408
L43046 39396
L43129 39396
L43177 39408
L43200 39432
L43212 39455
L43212 39503
L43200 39527
L43177 39550
L43129 39562
L43046 39562
L42999 39550
L42975 39527
L42963 39503
" />
<path d="M43212 39289
L42963 39289
L43141 39206
L42963 39123
L43212 39123
" />
<path d="M43212 39005
L42963 39005
L42963 38910
L42975 38886
L42987 38875
L43011 38863
L43046 38863
L43070 38875
L43082 38886
L43094 38910
L43094 39005
" />
<path d="M42963 38756
L43165 38756
L43188 38744
L43200 38732
L43212 38709
L43212 38661
L43200 38637
L43188 38626
L43165 38614
L42963 38614
" />
<path d="M42963 38531
L42963 38388
" />
<path d="M43212 38460
L42963 38460
" />
<path d="M43082 38305
L43082 38222
" />
<path d="M43212 38187
L43212 38305
L42963 38305
L42963 38187
" />
<path d="M43212 37938
L43094 38021
" />
<path d="M43212 38080
L42963 38080
L42963 37985
L42975 37962
L42987 37950
L43011 37938
L43046 37938
L43070 37950
L43082 37962
L43094 37985
L43094 38080
" />
</g>
<g style="fill:#000000; fill-opacity:0.0; 
stroke:#000000; stroke-width:59.0551; stroke-opacity:1; 
stroke-linecap:round; stroke-linejoin:round;">
<path d="M51950 31084
L52006 31103
L52100 31103
L52137 31084
L52156 31065
L52175 31028
L52175 30990
L52156 30953
L52137 30934
L52100 30915
L52025 30896
L51987 30878
L51968 30859
L51950 30821
L51950 30784
L51968 30746
L51987 30728
L52025 30709
L52118 30709
L52175 30728
" />
<path d="M52306 30709
L52400 31103
L52475 30821
L52549 31103
L52643 30709
" />
<path d="M52774 30746
L52793 30728
L52831 30709
L52924 30709
L52962 30728
L52981 30746
L52999 30784
L52999 30821
L52981 30878
L52756 31103
L52999 31103
" />
<path d="M51940 34046
L51996 34065
L52015 34084
L52034 34121
L52034 34178
L52015 34215
L51996 34234
L51959 34253
L51809 34253
L51809 33859
L51940 33859
L51978 33878
L51996 33896
L52015 33934
L52015 33971
L51996 34009
L51978 34028
L51940 34046
L51809 34046
" />
<path d="M52278 33859
L52353 33859
L52390 33878
L52428 33915
L52446 33990
L52446 34121
L52428 34196
L52390 34234
L52353 34253
L52278 34253
L52240 34234
L52203 34196
L52184 34121
L52184 33990
L52203 33915
L52240 33878
L52278 33859
" />
<path d="M52690 33859
L52765 33859
L52803 33878
L52840 33915
L52859 33990
L52859 34121
L52840 34196
L52803 34234
L52765 34253
L52690 34253
L52653 34234
L52615 34196
L52596 34121
L52596 33990
L52615 33915
L52653 33878
L52690 33859
" />
<path d="M52971 33859
L53196 33859
" />
<path d="M53084 34253
L53084 33859
" />
<path d="M51950 27184
L52006 27203
L52100 27203
L52137 27184
L52156 27165
L52175 27128
L52175 27090
L52156 27053
L52137 27034
L52100 27015
L52025 26996
L51987 26978
L51968 26959
L51950 26921
L51950 26884
L51968 26846
L51987 26828
L52025 26809
L52118 26809
L52175 26828
" />
<path d="M52306 26809
L52400 27203
L52475 26921
L52549 27203
L52643 26809
" />
<path d="M52999 27203
L52774 27203
" />
<path d="M52887 27203
L52887 26809
L52849 26865
L52812 26903
L52774 26921
" />
<path d="M51903 30353
L51771 30165
" />
<path d="M51678 30353
L51678 29959
L51828 29959
L51865 29978
L51884 29996
L51903 30034
L51903 30090
L51884 30128
L51865 30146
L51828 30165
L51678 30165
" />
<path d="M52071 30146
L52203 30146
" />
<path d="M52259 30353
L52071 30353
L52071 29959
L52259 29959
" />
<path d="M52409 30334
L52465 30353
L52559 30353
L52596 30334
L52615 30315
L52634 30278
L52634 30240
L52615 30203
L52596 30184
L52559 30165
L52484 30146
L52446 30128
L52428 30109
L52409 30071
L52409 30034
L52428 29996
L52446 29978
L52484 29959
L52578 29959
L52634 29978
" />
<path d="M52803 30146
L52934 30146
" />
<path d="M52990 30353
L52803 30353
L52803 29959
L52990 29959
" />
<path d="M53103 29959
L53328 29959
" />
<path d="M53215 30353
L53215 29959
" />
</g> 
</svg>
