G04 #@! TF.FileFunction,Soldermask,Bot*
%FSLAX46Y46*%
G04 Gerber Fmt 4.6, Leading zero omitted, Abs format (unit mm)*
G04 Created by KiCad (PCBNEW 4.0.3-stable) date 08/24/16 11:57:24*
%MOMM*%
%LPD*%
G01*
G04 APERTURE LIST*
%ADD10C,0.150000*%
%ADD11R,1.300000X1.300000*%
%ADD12C,1.300000*%
%ADD13R,1.397000X1.397000*%
%ADD14C,1.397000*%
%ADD15O,1.100000X2.300000*%
%ADD16C,1.000000*%
%ADD17C,1.422400*%
%ADD18R,1.524000X1.524000*%
%ADD19C,1.524000*%
%ADD20C,4.000000*%
G04 APERTURE END LIST*
D10*
D11*
X164414000Y-69176900D03*
D12*
X161914000Y-69176900D03*
D11*
X130391000Y-99568000D03*
D12*
X130391000Y-97068000D03*
D11*
X130391000Y-105105000D03*
D12*
X130391000Y-102605000D03*
D11*
X175285000Y-69176900D03*
D12*
X172785000Y-69176900D03*
D11*
X164414000Y-95821500D03*
D12*
X161914000Y-95821500D03*
D11*
X175349000Y-95859600D03*
D12*
X172849000Y-95859600D03*
D11*
X130391000Y-93840300D03*
D12*
X130391000Y-91340300D03*
D11*
X136842000Y-93281500D03*
D12*
X134342000Y-93281500D03*
D13*
X140322000Y-71843900D03*
D14*
X140322000Y-74383900D03*
X140322000Y-76923900D03*
X140322000Y-79463900D03*
X140322000Y-82003900D03*
X140322000Y-84543900D03*
X140322000Y-87083900D03*
X140322000Y-89623900D03*
X140322000Y-92163900D03*
X140322000Y-94703900D03*
X140322000Y-97243900D03*
X140322000Y-99783900D03*
X140322000Y-102323900D03*
X140322000Y-104863900D03*
X140322000Y-107403900D03*
X140322000Y-109943900D03*
X140322000Y-112483900D03*
X140322000Y-115023900D03*
X140322000Y-117563900D03*
X140322000Y-120103900D03*
X155562000Y-120103900D03*
X155562000Y-117563900D03*
X155562000Y-115023900D03*
X155562000Y-112483900D03*
X155562000Y-109943900D03*
X155562000Y-107403900D03*
X155562000Y-104863900D03*
X155562000Y-102323900D03*
X155562000Y-99783900D03*
X155562000Y-97243900D03*
X155562000Y-94703900D03*
X155562000Y-92163900D03*
X155562000Y-89623900D03*
X155562000Y-87083900D03*
X155562000Y-84543900D03*
X155562000Y-82003900D03*
X155562000Y-79463900D03*
X155562000Y-76923900D03*
X155562000Y-74383900D03*
X155562000Y-71843900D03*
D15*
X137762000Y-128016000D03*
X130462000Y-128016000D03*
D16*
X134912000Y-124166000D03*
X133312000Y-124166000D03*
X135712000Y-122966000D03*
X134112000Y-122966000D03*
X132512000Y-122966000D03*
D13*
X159322000Y-73342500D03*
D14*
X159322000Y-75882500D03*
X159322000Y-78422500D03*
X159322000Y-80962500D03*
X159322000Y-83502500D03*
X159322000Y-86042500D03*
X159322000Y-88582500D03*
X166942000Y-88582500D03*
X166942000Y-86042500D03*
X166942000Y-83502500D03*
X166942000Y-80962500D03*
X166942000Y-78422500D03*
X166942000Y-75882500D03*
X166942000Y-73342500D03*
D13*
X159347000Y-99974000D03*
D14*
X159347000Y-102514000D03*
X159347000Y-105054000D03*
X159347000Y-107594000D03*
X159347000Y-110134000D03*
X159347000Y-112674000D03*
X159347000Y-115214000D03*
X159347000Y-117754000D03*
X166967000Y-117754000D03*
X166967000Y-115214000D03*
X166967000Y-112674000D03*
X166967000Y-110134000D03*
X166967000Y-107594000D03*
X166967000Y-105054000D03*
X166967000Y-102514000D03*
X166967000Y-99974000D03*
D13*
X170218000Y-73355200D03*
D14*
X170218000Y-75895200D03*
X170218000Y-78435200D03*
X170218000Y-80975200D03*
X170218000Y-83515200D03*
X170218000Y-86055200D03*
X170218000Y-88595200D03*
X170218000Y-91135200D03*
X177838000Y-91135200D03*
X177838000Y-88595200D03*
X177838000Y-86055200D03*
X177838000Y-83515200D03*
X177838000Y-80975200D03*
X177838000Y-78435200D03*
X177838000Y-75895200D03*
X177838000Y-73355200D03*
D13*
X170307000Y-99962000D03*
D14*
X170307000Y-102502000D03*
X170307000Y-105042000D03*
X170307000Y-107582000D03*
X170307000Y-110122000D03*
X170307000Y-112662000D03*
X170307000Y-115202000D03*
X170307000Y-117742000D03*
X177927000Y-117742000D03*
X177927000Y-115202000D03*
X177927000Y-112662000D03*
X177927000Y-110122000D03*
X177927000Y-107582000D03*
X177927000Y-105042000D03*
X177927000Y-102502000D03*
X177927000Y-99962000D03*
D13*
X111277000Y-72237600D03*
D14*
X111277000Y-74777600D03*
X111277000Y-77317600D03*
X111277000Y-79857600D03*
X111277000Y-82397600D03*
X111277000Y-84937600D03*
X111277000Y-87477600D03*
X111277000Y-90017600D03*
X111277000Y-92557600D03*
X111277000Y-95097600D03*
X111277000Y-97637600D03*
X111277000Y-100177600D03*
X111277000Y-102717600D03*
X111277000Y-105257600D03*
X126517000Y-105257600D03*
X126517000Y-102717600D03*
X126517000Y-100177600D03*
X126517000Y-97637600D03*
X126517000Y-95097600D03*
X126517000Y-92557600D03*
X126517000Y-90017600D03*
X126517000Y-87477600D03*
X126517000Y-84937600D03*
X126517000Y-82397600D03*
X126517000Y-79857600D03*
X126517000Y-77317600D03*
X126517000Y-74777600D03*
X126517000Y-72237600D03*
D17*
X135572000Y-103632000D03*
X135572000Y-98552000D03*
D18*
X149352000Y-128143000D03*
D19*
X146812000Y-128143000D03*
D18*
X176174000Y-124536000D03*
D19*
X176174000Y-127076000D03*
X173634000Y-124536000D03*
X173634000Y-127076000D03*
X171094000Y-124536000D03*
X171094000Y-127076000D03*
X168554000Y-124536000D03*
X168554000Y-127076000D03*
X166014000Y-124536000D03*
X166014000Y-127076000D03*
X163474000Y-124536000D03*
X163474000Y-127076000D03*
X160934000Y-124536000D03*
X160934000Y-127076000D03*
X158394000Y-124536000D03*
X158394000Y-127076000D03*
D18*
X116078000Y-128143000D03*
D19*
X118618000Y-128143000D03*
X121158000Y-128143000D03*
D20*
X107793000Y-127906000D03*
X181437000Y-127906000D03*
X107793000Y-69540400D03*
X181462000Y-69540400D03*
D13*
X119888000Y-113284000D03*
D14*
X117348000Y-110744000D03*
X117348000Y-113284000D03*
X114808000Y-110744000D03*
X112268000Y-113284000D03*
X114808000Y-113284000D03*
X112268000Y-115824000D03*
X114808000Y-115824000D03*
X112268000Y-118364000D03*
X114808000Y-118364000D03*
X112268000Y-120904000D03*
X114808000Y-123444000D03*
X114808000Y-120904000D03*
X117348000Y-123444000D03*
X117348000Y-120904000D03*
X119888000Y-123444000D03*
X119888000Y-120904000D03*
X122428000Y-123444000D03*
X124968000Y-120904000D03*
X122428000Y-120904000D03*
X124968000Y-118364000D03*
X122428000Y-118364000D03*
X124968000Y-115824000D03*
X122428000Y-115824000D03*
X124968000Y-113284000D03*
X122428000Y-110744000D03*
X122428000Y-113284000D03*
X119888000Y-110744000D03*
X137541000Y-110109000D03*
X129921000Y-110109000D03*
X132461000Y-120142000D03*
X132461000Y-112522000D03*
X135001000Y-120142000D03*
X135001000Y-112522000D03*
X129794000Y-120142000D03*
X129794000Y-112522000D03*
X137668000Y-120142000D03*
X137668000Y-112522000D03*
D18*
X181851000Y-122859800D03*
D19*
X181851000Y-117779800D03*
X181851000Y-115239800D03*
X181851000Y-112699800D03*
X181851000Y-110159800D03*
X181851000Y-107619800D03*
X181851000Y-105079800D03*
X181851000Y-102539800D03*
X181851000Y-99999800D03*
X181851000Y-97459800D03*
X181851000Y-94919800D03*
X181851000Y-92379800D03*
X181851000Y-89839800D03*
X181851000Y-87299800D03*
X181851000Y-84759800D03*
X181851000Y-82219800D03*
X181851000Y-79679800D03*
X181851000Y-77139800D03*
X181851000Y-74599800D03*
D18*
X107378000Y-122859800D03*
D19*
X107378000Y-117779800D03*
X107378000Y-115239800D03*
X107378000Y-112699800D03*
X107378000Y-110159800D03*
X107378000Y-107619800D03*
X107378000Y-105079800D03*
X107378000Y-102539800D03*
X107378000Y-99999800D03*
X107378000Y-97459800D03*
X107378000Y-94919800D03*
X107378000Y-92379800D03*
X107378000Y-89839800D03*
X107378000Y-87299800D03*
X107378000Y-84759800D03*
X107378000Y-82219800D03*
X107378000Y-79679800D03*
X107378000Y-77139800D03*
X107378000Y-74599800D03*
X136548000Y-84582000D03*
X130048000Y-84582000D03*
X136548000Y-80082000D03*
X130048000Y-80082000D03*
X136548000Y-74676000D03*
X130048000Y-74676000D03*
X136548000Y-70176000D03*
X130048000Y-70176000D03*
M02*
