M48
;DRILL file {KiCad 4.0.0-rc2-stable} date 03.12.2015 10:47:31
;FORMAT={-:-/ absolute / inch / decimal}
FMAT,2
INCH,TZ
T1C0.015
T2C0.028
T3C0.030
T4C0.031
T5C0.032
T6C0.032
T7C0.040
T8C0.118
%
G90
G05
M72
T1
X4.669Y-4.1965
X4.7115Y-4.734
X4.9415Y-4.964
X5.4005Y-2.837
X5.663Y-4.136
X5.691Y-4.9075
X5.9194Y-4.7306
X5.978Y-5.0355
X5.983Y-4.3225
X6.147Y-4.9275
X6.1679Y-4.8208
X6.373Y-4.169
X6.373Y-4.338
X6.4215Y-4.4845
X6.5834Y-3.5497
X6.8448Y-4.0928
X7.0765Y-4.1495
X7.088Y-3.4455
T2
X5.1915Y-4.8521
X5.223Y-4.8994
X5.2545Y-4.8521
X5.286Y-4.8994
X5.3175Y-4.8521
T3
X5.3375Y-3.88
X5.3375Y-4.08
T4
X4.4265Y-4.6
X4.638Y-4.887
X4.7345Y-4.3075
X5.1335Y-3.6945
X5.1335Y-3.92
X5.1335Y-4.138
X5.3875Y-3.6725
X6.473Y-2.7235
X6.473Y-3.7725
X6.901Y-2.7235
X6.9035Y-3.774
T5
X4.4265Y-4.6984
X4.6361Y-4.3075
X4.7364Y-4.887
X5.1335Y-3.5961
X5.1335Y-3.8216
X5.1335Y-4.0396
X5.2891Y-3.6725
X6.3746Y-2.7235
X6.3746Y-3.7725
X6.8026Y-2.7235
X6.8051Y-3.774
T6
X4.381Y-2.844
X4.381Y-2.944
X4.381Y-3.044
X4.381Y-3.144
X4.381Y-3.244
X4.381Y-3.344
X4.381Y-3.444
X4.381Y-3.544
X4.381Y-3.644
X4.381Y-3.744
X4.381Y-3.844
X4.381Y-3.944
X4.381Y-4.044
X4.381Y-4.144
X4.5375Y-4.45
X4.5375Y-4.55
X4.5375Y-4.65
X4.5375Y-4.75
X4.8375Y-4.45
X4.8375Y-4.55
X4.8375Y-4.65
X4.8375Y-4.75
X4.981Y-2.844
X4.981Y-2.944
X4.981Y-3.044
X4.981Y-3.144
X4.981Y-3.244
X4.981Y-3.344
X4.981Y-3.444
X4.981Y-3.544
X4.981Y-3.644
X4.981Y-3.744
X4.981Y-3.844
X4.981Y-3.944
X4.981Y-4.044
X4.981Y-4.144
X5.025Y-4.395
X5.0635Y-4.529
X5.1015Y-2.735
X5.1015Y-2.935
X5.1015Y-3.156
X5.1015Y-3.356
X5.125Y-4.395
X5.1635Y-4.529
X5.1635Y-4.638
X5.1635Y-4.738
X5.314Y-4.5295
X5.314Y-4.6375
X5.314Y-4.7375
X5.4015Y-2.735
X5.4015Y-2.935
X5.4015Y-3.156
X5.4015Y-3.356
X5.414Y-4.5295
X5.5245Y-2.8285
X5.5245Y-2.9285
X5.5245Y-3.0285
X5.5245Y-3.1285
X5.5245Y-3.2285
X5.5245Y-3.3285
X5.5245Y-3.4285
X5.5245Y-3.5285
X5.5245Y-3.6285
X5.5245Y-3.7285
X5.5245Y-3.8285
X5.5245Y-3.9285
X5.5245Y-4.0285
X5.5245Y-4.1285
X5.5245Y-4.2285
X5.5245Y-4.3285
X5.5245Y-4.4285
X5.5245Y-4.5285
X5.5245Y-4.6285
X5.5245Y-4.7285
X6.1245Y-2.8285
X6.1245Y-2.9285
X6.1245Y-3.0285
X6.1245Y-3.1285
X6.1245Y-3.2285
X6.1245Y-3.3285
X6.1245Y-3.4285
X6.1245Y-3.5285
X6.1245Y-3.6285
X6.1245Y-3.7285
X6.1245Y-3.8285
X6.1245Y-3.9285
X6.1245Y-4.0285
X6.1245Y-4.1285
X6.1245Y-4.2285
X6.1245Y-4.3285
X6.1245Y-4.4285
X6.1245Y-4.5285
X6.1245Y-4.6285
X6.1245Y-4.7285
X6.2725Y-2.8875
X6.2725Y-2.9875
X6.2725Y-3.0875
X6.2725Y-3.1875
X6.2725Y-3.2875
X6.2725Y-3.3875
X6.2725Y-3.4875
X6.2735Y-3.936
X6.2735Y-4.036
X6.2735Y-4.136
X6.2735Y-4.236
X6.2735Y-4.336
X6.2735Y-4.436
X6.2735Y-4.536
X6.2735Y-4.636
X6.5725Y-2.8875
X6.5725Y-2.9875
X6.5725Y-3.0875
X6.5725Y-3.1875
X6.5725Y-3.2875
X6.5725Y-3.3875
X6.5725Y-3.4875
X6.5735Y-3.936
X6.5735Y-4.036
X6.5735Y-4.136
X6.5735Y-4.236
X6.5735Y-4.336
X6.5735Y-4.436
X6.5735Y-4.536
X6.5735Y-4.636
X6.7015Y-2.888
X6.7015Y-2.988
X6.7015Y-3.088
X6.7015Y-3.188
X6.7015Y-3.288
X6.7015Y-3.388
X6.7015Y-3.488
X6.7015Y-3.588
X6.705Y-3.9355
X6.705Y-4.0355
X6.705Y-4.1355
X6.705Y-4.2355
X6.705Y-4.3355
X6.705Y-4.4355
X6.705Y-4.5355
X6.705Y-4.6355
X7.0015Y-2.888
X7.0015Y-2.988
X7.0015Y-3.088
X7.0015Y-3.188
X7.0015Y-3.288
X7.0015Y-3.388
X7.0015Y-3.488
X7.0015Y-3.588
X7.005Y-3.9355
X7.005Y-4.0355
X7.005Y-4.1355
X7.005Y-4.2355
X7.005Y-4.3355
X7.005Y-4.4355
X7.005Y-4.5355
X7.005Y-4.6355
T7
X4.2275Y-2.937
X4.2275Y-3.037
X4.2275Y-3.137
X4.2275Y-3.237
X4.2275Y-3.337
X4.2275Y-3.437
X4.2275Y-3.537
X4.2275Y-3.637
X4.2275Y-3.737
X4.2275Y-3.837
X4.2275Y-3.937
X4.2275Y-4.037
X4.2275Y-4.137
X4.2275Y-4.237
X4.2275Y-4.337
X4.2275Y-4.437
X4.2275Y-4.537
X4.2275Y-4.637
X4.2275Y-4.737
X4.2275Y-4.837
X4.5905Y-5.046
X4.6905Y-5.046
X4.7905Y-5.046
X5.7815Y-4.962
X5.8815Y-4.962
X6.236Y-4.903
X6.236Y-5.003
X6.336Y-4.903
X6.336Y-5.003
X6.436Y-4.903
X6.436Y-5.003
X6.536Y-4.903
X6.536Y-5.003
X6.636Y-4.903
X6.636Y-5.003
X6.736Y-4.903
X6.736Y-5.003
X6.836Y-4.903
X6.836Y-5.003
X6.936Y-4.903
X6.936Y-5.003
X7.1595Y-2.937
X7.1595Y-3.037
X7.1595Y-3.137
X7.1595Y-3.237
X7.1595Y-3.337
X7.1595Y-3.437
X7.1595Y-3.537
X7.1595Y-3.637
X7.1595Y-3.737
X7.1595Y-3.837
X7.1595Y-3.937
X7.1595Y-4.037
X7.1595Y-4.137
X7.1595Y-4.237
X7.1595Y-4.337
X7.1595Y-4.437
X7.1595Y-4.537
X7.1595Y-4.637
X7.1595Y-4.737
X7.1595Y-4.837
T8
X4.232Y-2.726
X4.232Y-5.0475
X7.155Y-5.0475
X7.156Y-2.726
T2
X5.1108Y-5.0273G85X5.1108Y-5.0746
G05
X5.3982Y-5.0273G85X5.3982Y-5.0746
G05
T0
M30
