G04 #@! TF.FileFunction,Legend,Top*
%FSLAX46Y46*%
G04 Gerber Fmt 4.6, Leading zero omitted, Abs format (unit mm)*
G04 Created by KiCad (PCBNEW 4.0.0-rc2-stable) date 03.12.2015 10:46:45*
%MOMM*%
G01*
G04 APERTURE LIST*
%ADD10C,0.150000*%
%ADD11C,0.300000*%
%ADD12C,0.100000*%
%ADD13C,0.149860*%
%ADD14C,0.304800*%
%ADD15C,0.157480*%
%ADD16C,0.203200*%
%ADD17C,0.075000*%
%ADD18R,1.300000X1.300000*%
%ADD19C,1.300000*%
%ADD20R,1.397000X1.397000*%
%ADD21C,1.397000*%
%ADD22O,1.100000X2.300000*%
%ADD23C,1.000000*%
%ADD24C,1.422400*%
%ADD25R,1.524000X1.524000*%
%ADD26C,1.524000*%
G04 APERTURE END LIST*
D10*
D11*
X115074772Y-124236943D02*
X116217629Y-124236943D01*
X115646200Y-124808371D02*
X115646200Y-123665514D01*
X111861672Y-114750043D02*
X113004529Y-114750043D01*
X112433100Y-115321471D02*
X112433100Y-114178614D01*
D12*
X184607200Y-131076700D02*
X184607200Y-128587500D01*
X104622600Y-131076700D02*
X184607200Y-131076700D01*
X104622600Y-128587500D02*
X104622600Y-131076700D01*
X184607200Y-66370200D02*
X184607200Y-68872100D01*
X104622600Y-66370200D02*
X184607200Y-66370200D01*
X104622600Y-68872100D02*
X104622600Y-66370200D01*
D10*
X151224200Y-126374086D02*
X151224200Y-125624086D01*
X151402772Y-125624086D01*
X151509915Y-125659800D01*
X151581343Y-125731229D01*
X151617058Y-125802657D01*
X151652772Y-125945514D01*
X151652772Y-126052657D01*
X151617058Y-126195514D01*
X151581343Y-126266943D01*
X151509915Y-126338371D01*
X151402772Y-126374086D01*
X151224200Y-126374086D01*
X151938486Y-126159800D02*
X152295629Y-126159800D01*
X151867058Y-126374086D02*
X152117058Y-125624086D01*
X152367058Y-126374086D01*
X152509915Y-125624086D02*
X152938486Y-125624086D01*
X152724200Y-126374086D02*
X152724200Y-125624086D01*
X153152772Y-126159800D02*
X153509915Y-126159800D01*
X153081344Y-126374086D02*
X153331344Y-125624086D01*
X153581344Y-126374086D01*
X143558872Y-126302657D02*
X143523158Y-126338371D01*
X143416015Y-126374086D01*
X143344586Y-126374086D01*
X143237443Y-126338371D01*
X143166015Y-126266943D01*
X143130300Y-126195514D01*
X143094586Y-126052657D01*
X143094586Y-125945514D01*
X143130300Y-125802657D01*
X143166015Y-125731229D01*
X143237443Y-125659800D01*
X143344586Y-125624086D01*
X143416015Y-125624086D01*
X143523158Y-125659800D01*
X143558872Y-125695514D01*
X144237443Y-126374086D02*
X143880300Y-126374086D01*
X143880300Y-125624086D01*
X144487443Y-126374086D02*
X144487443Y-125624086D01*
X144916015Y-126374086D02*
X144594586Y-125945514D01*
X144916015Y-125624086D02*
X144487443Y-126052657D01*
X142951729Y-125494800D02*
X145058872Y-125494800D01*
X175999781Y-128611381D02*
X176095020Y-128611381D01*
X176190258Y-128659000D01*
X176237877Y-128706619D01*
X176285496Y-128801857D01*
X176333115Y-128992333D01*
X176333115Y-129230429D01*
X176285496Y-129420905D01*
X176237877Y-129516143D01*
X176190258Y-129563762D01*
X176095020Y-129611381D01*
X175999781Y-129611381D01*
X175904543Y-129563762D01*
X175856924Y-129516143D01*
X175809305Y-129420905D01*
X175761686Y-129230429D01*
X175761686Y-128992333D01*
X175809305Y-128801857D01*
X175856924Y-128706619D01*
X175904543Y-128659000D01*
X175999781Y-128611381D01*
X157946767Y-128725681D02*
X158613434Y-128725681D01*
X158184862Y-129725681D01*
X178138129Y-127030171D02*
X178280986Y-127077790D01*
X178328605Y-127125410D01*
X178376224Y-127220648D01*
X178376224Y-127363505D01*
X178328605Y-127458743D01*
X178280986Y-127506362D01*
X178185748Y-127553981D01*
X177804795Y-127553981D01*
X177804795Y-126553981D01*
X178138129Y-126553981D01*
X178233367Y-126601600D01*
X178280986Y-126649219D01*
X178328605Y-126744457D01*
X178328605Y-126839695D01*
X178280986Y-126934933D01*
X178233367Y-126982552D01*
X178138129Y-127030171D01*
X177804795Y-127030171D01*
X177790505Y-124664767D02*
X178266696Y-124664767D01*
X177695267Y-124950481D02*
X178028600Y-123950481D01*
X178361934Y-124950481D01*
X114005774Y-67823986D02*
X114099524Y-67073986D01*
X114434346Y-67823986D02*
X114166489Y-67395414D01*
X114528096Y-67073986D02*
X114045953Y-67502557D01*
X115045954Y-67788271D02*
X114970060Y-67823986D01*
X114827203Y-67823986D01*
X114760239Y-67788271D01*
X114733453Y-67716843D01*
X114769167Y-67431129D01*
X114813810Y-67359700D01*
X114889703Y-67323986D01*
X115032560Y-67323986D01*
X115099525Y-67359700D01*
X115126310Y-67431129D01*
X115117382Y-67502557D01*
X114751310Y-67573986D01*
X115389703Y-67323986D02*
X115505774Y-67823986D01*
X115746846Y-67323986D02*
X115505774Y-67823986D01*
X115412025Y-68002557D01*
X115371846Y-68038271D01*
X115295953Y-68073986D01*
X115970060Y-67823986D02*
X116032560Y-67323986D01*
X116023632Y-67395414D02*
X116063811Y-67359700D01*
X116139703Y-67323986D01*
X116246846Y-67323986D01*
X116313811Y-67359700D01*
X116340596Y-67431129D01*
X116291489Y-67823986D01*
X116340596Y-67431129D02*
X116385239Y-67359700D01*
X116461132Y-67323986D01*
X116568275Y-67323986D01*
X116635239Y-67359700D01*
X116662025Y-67431129D01*
X116612918Y-67823986D01*
X117291489Y-67823986D02*
X117340596Y-67431129D01*
X117313811Y-67359700D01*
X117246846Y-67323986D01*
X117103989Y-67323986D01*
X117028096Y-67359700D01*
X117295954Y-67788271D02*
X117220060Y-67823986D01*
X117041489Y-67823986D01*
X116974525Y-67788271D01*
X116947739Y-67716843D01*
X116956668Y-67645414D01*
X117001310Y-67573986D01*
X117077204Y-67538271D01*
X117255775Y-67538271D01*
X117331668Y-67502557D01*
X117711131Y-67323986D02*
X117648631Y-67823986D01*
X117702203Y-67395414D02*
X117742382Y-67359700D01*
X117818274Y-67323986D01*
X117925417Y-67323986D01*
X117992382Y-67359700D01*
X118019167Y-67431129D01*
X117970060Y-67823986D01*
X118742381Y-67073986D02*
X118599524Y-67073986D01*
X118523631Y-67109700D01*
X118483453Y-67145414D01*
X118398631Y-67252557D01*
X118345060Y-67395414D01*
X118309345Y-67681129D01*
X118336131Y-67752557D01*
X118367382Y-67788271D01*
X118434345Y-67823986D01*
X118577202Y-67823986D01*
X118653096Y-67788271D01*
X118693274Y-67752557D01*
X118737917Y-67681129D01*
X118760239Y-67502557D01*
X118733452Y-67431129D01*
X118702203Y-67395414D01*
X118635238Y-67359700D01*
X118492381Y-67359700D01*
X118416489Y-67395414D01*
X118376309Y-67431129D01*
X118331667Y-67502557D01*
X119425417Y-67323986D02*
X119362917Y-67823986D01*
X119282561Y-67038271D02*
X119037024Y-67573986D01*
X119501310Y-67573986D01*
X120755775Y-67823986D02*
X120550418Y-67466843D01*
X120327203Y-67823986D02*
X120420953Y-67073986D01*
X120706668Y-67073986D01*
X120773632Y-67109700D01*
X120804883Y-67145414D01*
X120831668Y-67216843D01*
X120818275Y-67323986D01*
X120773633Y-67395414D01*
X120733453Y-67431129D01*
X120657561Y-67466843D01*
X120371846Y-67466843D01*
X121367383Y-67788271D02*
X121291489Y-67823986D01*
X121148632Y-67823986D01*
X121081668Y-67788271D01*
X121054882Y-67716843D01*
X121090596Y-67431129D01*
X121135239Y-67359700D01*
X121211132Y-67323986D01*
X121353989Y-67323986D01*
X121420954Y-67359700D01*
X121447739Y-67431129D01*
X121438811Y-67502557D01*
X121072739Y-67573986D01*
X121711132Y-67323986D02*
X121827203Y-67823986D01*
X122068275Y-67323986D01*
X122300418Y-67752557D02*
X122331669Y-67788271D01*
X122291489Y-67823986D01*
X122260240Y-67788271D01*
X122300418Y-67752557D01*
X122291489Y-67823986D01*
X122697740Y-67145414D02*
X122737918Y-67109700D01*
X122813811Y-67073986D01*
X122992382Y-67073986D01*
X123059347Y-67109700D01*
X123090597Y-67145414D01*
X123117383Y-67216843D01*
X123108455Y-67288271D01*
X123059347Y-67395414D01*
X122577204Y-67823986D01*
X123041490Y-67823986D01*
X112621849Y-68523986D02*
X112702206Y-69023986D01*
X112889706Y-68666843D01*
X112987920Y-69023986D01*
X113193277Y-68523986D01*
X113407563Y-68523986D02*
X113487920Y-69023986D01*
X113675420Y-68666843D01*
X113773634Y-69023986D01*
X113978991Y-68523986D01*
X114193277Y-68523986D02*
X114273634Y-69023986D01*
X114461134Y-68666843D01*
X114559348Y-69023986D01*
X114764705Y-68523986D01*
X114996848Y-68952557D02*
X115028099Y-68988271D01*
X114987919Y-69023986D01*
X114956670Y-68988271D01*
X114996848Y-68952557D01*
X114987919Y-69023986D01*
X115345062Y-69023986D02*
X115438812Y-68273986D01*
X115666491Y-69023986D02*
X115715598Y-68631129D01*
X115688813Y-68559700D01*
X115621848Y-68523986D01*
X115514705Y-68523986D01*
X115438813Y-68559700D01*
X115398634Y-68595414D01*
X116313813Y-68988271D02*
X116237919Y-69023986D01*
X116095062Y-69023986D01*
X116028098Y-68988271D01*
X116001312Y-68916843D01*
X116037026Y-68631129D01*
X116081669Y-68559700D01*
X116157562Y-68523986D01*
X116300419Y-68523986D01*
X116367384Y-68559700D01*
X116394169Y-68631129D01*
X116385241Y-68702557D01*
X116019169Y-68773986D01*
X116728990Y-68523986D02*
X116666490Y-69023986D01*
X116720062Y-68595414D02*
X116760241Y-68559700D01*
X116836133Y-68523986D01*
X116943276Y-68523986D01*
X117010241Y-68559700D01*
X117037026Y-68631129D01*
X116987919Y-69023986D01*
X117407561Y-68523986D02*
X117345061Y-69023986D01*
X117398633Y-68595414D02*
X117438812Y-68559700D01*
X117514704Y-68523986D01*
X117621847Y-68523986D01*
X117688812Y-68559700D01*
X117715597Y-68631129D01*
X117666490Y-69023986D01*
X118023632Y-69023986D02*
X118086132Y-68523986D01*
X118117382Y-68273986D02*
X118077204Y-68309700D01*
X118108454Y-68345414D01*
X118148633Y-68309700D01*
X118117382Y-68273986D01*
X118108454Y-68345414D01*
X118443275Y-68523986D02*
X118380775Y-69023986D01*
X118434347Y-68595414D02*
X118474526Y-68559700D01*
X118550418Y-68523986D01*
X118657561Y-68523986D01*
X118724526Y-68559700D01*
X118751311Y-68631129D01*
X118702204Y-69023986D01*
X119443275Y-68523986D02*
X119367382Y-69131129D01*
X119322740Y-69202557D01*
X119282561Y-69238271D01*
X119206668Y-69273986D01*
X119099525Y-69273986D01*
X119032561Y-69238271D01*
X119385240Y-68988271D02*
X119309346Y-69023986D01*
X119166489Y-69023986D01*
X119099526Y-68988271D01*
X119068275Y-68952557D01*
X119041489Y-68881129D01*
X119068275Y-68666843D01*
X119112918Y-68595414D01*
X119153097Y-68559700D01*
X119228989Y-68523986D01*
X119371846Y-68523986D01*
X119438811Y-68559700D01*
X119773632Y-68738271D02*
X120345061Y-68738271D01*
X120666488Y-69023986D02*
X120760238Y-68273986D01*
X120724524Y-68559700D02*
X120800417Y-68523986D01*
X120943274Y-68523986D01*
X121010239Y-68559700D01*
X121041489Y-68595414D01*
X121068274Y-68666843D01*
X121041488Y-68881129D01*
X120996846Y-68952557D01*
X120956668Y-68988271D01*
X120880774Y-69023986D01*
X120737917Y-69023986D01*
X120670953Y-68988271D01*
X121635239Y-68988271D02*
X121559345Y-69023986D01*
X121416488Y-69023986D01*
X121349524Y-68988271D01*
X121322738Y-68916843D01*
X121358452Y-68631129D01*
X121403095Y-68559700D01*
X121478988Y-68523986D01*
X121621845Y-68523986D01*
X121688810Y-68559700D01*
X121715595Y-68631129D01*
X121706667Y-68702557D01*
X121340595Y-68773986D01*
X121987916Y-69023986D02*
X122081666Y-68273986D01*
X122095060Y-68738271D02*
X122273631Y-69023986D01*
X122336131Y-68523986D02*
X122014702Y-68809700D01*
X122885239Y-68988271D02*
X122809345Y-69023986D01*
X122666488Y-69023986D01*
X122599524Y-68988271D01*
X122572738Y-68916843D01*
X122608452Y-68631129D01*
X122653095Y-68559700D01*
X122728988Y-68523986D01*
X122871845Y-68523986D01*
X122938810Y-68559700D01*
X122965595Y-68631129D01*
X122956667Y-68702557D01*
X122590595Y-68773986D01*
X123345059Y-69023986D02*
X123278096Y-68988271D01*
X123251309Y-68916843D01*
X123331666Y-68273986D01*
X123639702Y-68952557D02*
X123670953Y-68988271D01*
X123630773Y-69023986D01*
X123599524Y-68988271D01*
X123639702Y-68952557D01*
X123630773Y-69023986D01*
X124309345Y-69023986D02*
X124403095Y-68273986D01*
X124313810Y-68988271D02*
X124237916Y-69023986D01*
X124095059Y-69023986D01*
X124028096Y-68988271D01*
X123996845Y-68952557D01*
X123970059Y-68881129D01*
X123996845Y-68666843D01*
X124041488Y-68595414D01*
X124081667Y-68559700D01*
X124157559Y-68523986D01*
X124300416Y-68523986D01*
X124367381Y-68559700D01*
X124956667Y-68988271D02*
X124880773Y-69023986D01*
X124737916Y-69023986D01*
X124670952Y-68988271D01*
X124644166Y-68916843D01*
X124679880Y-68631129D01*
X124724523Y-68559700D01*
X124800416Y-68523986D01*
X124943273Y-68523986D01*
X125010238Y-68559700D01*
X125037023Y-68631129D01*
X125028095Y-68702557D01*
X124662023Y-68773986D01*
D12*
X184607200Y-128587500D02*
X184607200Y-68872100D01*
X104622600Y-68872100D02*
X104622600Y-128587500D01*
D10*
X164664200Y-70426900D02*
X161664200Y-70426900D01*
X161664200Y-67926900D02*
X164664200Y-67926900D01*
X129140900Y-99818000D02*
X129140900Y-96818000D01*
X131640900Y-96818000D02*
X131640900Y-99818000D01*
X129140900Y-105355200D02*
X129140900Y-102355200D01*
X131640900Y-102355200D02*
X131640900Y-105355200D01*
X113683100Y-116590000D02*
X113683100Y-119590000D01*
X111183100Y-119590000D02*
X111183100Y-116590000D01*
X117555200Y-122879800D02*
X120555200Y-122879800D01*
X120555200Y-125379800D02*
X117555200Y-125379800D01*
X175535400Y-70426900D02*
X172535400Y-70426900D01*
X172535400Y-67926900D02*
X175535400Y-67926900D01*
X164664200Y-97071500D02*
X161664200Y-97071500D01*
X161664200Y-94571500D02*
X164664200Y-94571500D01*
X175598900Y-97109600D02*
X172598900Y-97109600D01*
X172598900Y-94609600D02*
X175598900Y-94609600D01*
X120506300Y-110660500D02*
X117506300Y-110660500D01*
X117506300Y-108160500D02*
X120506300Y-108160500D01*
X129140900Y-94090300D02*
X129140900Y-91090300D01*
X131640900Y-91090300D02*
X131640900Y-94090300D01*
X137092500Y-94531500D02*
X134092500Y-94531500D01*
X134092500Y-92031500D02*
X137092500Y-92031500D01*
X149212000Y-69303900D02*
X149212000Y-70573900D01*
X149212000Y-70573900D02*
X146672000Y-70573900D01*
X146672000Y-70573900D02*
X146672000Y-69303900D01*
X154292000Y-69303900D02*
X154292000Y-122643900D01*
X154292000Y-122643900D02*
X141592000Y-122643900D01*
X141592000Y-122643900D02*
X141592000Y-69303900D01*
X141592000Y-69303900D02*
X154292000Y-69303900D01*
X129614000Y-131544000D02*
X129614000Y-122544000D01*
X129614000Y-122544000D02*
X137314000Y-122544000D01*
X137314000Y-122544000D02*
X137314000Y-131544000D01*
X137314000Y-131544000D02*
X129614000Y-131544000D01*
X137864000Y-125044000D02*
X137864000Y-122544000D01*
X137864000Y-122544000D02*
X136464000Y-122544000D01*
X136464000Y-122544000D02*
X136464000Y-125044000D01*
X136464000Y-125044000D02*
X137864000Y-125044000D01*
X129064000Y-125044000D02*
X129064000Y-122544000D01*
X129064000Y-122544000D02*
X130464000Y-122544000D01*
X130464000Y-122544000D02*
X130464000Y-125044000D01*
X130464000Y-125044000D02*
X129064000Y-125044000D01*
X130264000Y-128794000D02*
X136664000Y-128794000D01*
X136664000Y-128794000D02*
X136664000Y-132044000D01*
X136664000Y-132044000D02*
X130264000Y-132044000D01*
X130264000Y-132044000D02*
X130264000Y-128794000D01*
X127635000Y-111633000D02*
X130175000Y-111633000D01*
X129054903Y-111633000D02*
G75*
G03X129054903Y-111633000I-1419903J0D01*
G01*
X131153000Y-117805000D02*
X131153000Y-120345000D01*
X132572903Y-117805000D02*
G75*
G03X132572903Y-117805000I-1419903J0D01*
G01*
X134976000Y-117792000D02*
X134976000Y-120332000D01*
X136395903Y-117792000D02*
G75*
G03X136395903Y-117792000I-1419903J0D01*
G01*
X135928000Y-72009000D02*
G75*
G03X135928000Y-72009000I-2540000J0D01*
G01*
X129578000Y-68199000D02*
X137198000Y-68199000D01*
X137198000Y-68199000D02*
X137198000Y-75819000D01*
X137198000Y-75819000D02*
X129578000Y-75819000D01*
X129578000Y-68199000D02*
X129578000Y-75819000D01*
X135928000Y-82702400D02*
G75*
G03X135928000Y-82702400I-2540000J0D01*
G01*
X129578000Y-78892400D02*
X137198000Y-78892400D01*
X137198000Y-78892400D02*
X137198000Y-86512400D01*
X137198000Y-86512400D02*
X129578000Y-86512400D01*
X129578000Y-78892400D02*
X129578000Y-86512400D01*
X165672000Y-70802500D02*
X165672000Y-91122500D01*
X160592000Y-91122500D02*
X160592000Y-70802500D01*
X160592000Y-70802500D02*
X165672000Y-70802500D01*
X164402000Y-70802500D02*
X164402000Y-72072500D01*
X164402000Y-72072500D02*
X161862000Y-72072500D01*
X161862000Y-72072500D02*
X161862000Y-70802500D01*
X165672000Y-91122500D02*
X160592000Y-91122500D01*
X120332000Y-111760000D02*
X120332000Y-113030000D01*
X120332000Y-113030000D02*
X117792000Y-113030000D01*
X117792000Y-113030000D02*
X117792000Y-111760000D01*
X121602000Y-111760000D02*
X121602000Y-121920000D01*
X121602000Y-121920000D02*
X116522000Y-121920000D01*
X116522000Y-121920000D02*
X116522000Y-111760000D01*
X116522000Y-111760000D02*
X121602000Y-111760000D01*
X164427000Y-97434000D02*
X164427000Y-97434000D01*
X164427000Y-97434000D02*
X164427000Y-98704000D01*
X164427000Y-98704000D02*
X161887000Y-98704000D01*
X161887000Y-98704000D02*
X161887000Y-97434000D01*
X165697000Y-97434000D02*
X165697000Y-120294000D01*
X165697000Y-120294000D02*
X160617000Y-120294000D01*
X160617000Y-120294000D02*
X160617000Y-97434000D01*
X160617000Y-97434000D02*
X165697000Y-97434000D01*
X175298000Y-70815200D02*
X175298000Y-70815200D01*
X175298000Y-70815200D02*
X175298000Y-72085200D01*
X175298000Y-72085200D02*
X172758000Y-72085200D01*
X172758000Y-72085200D02*
X172758000Y-70815200D01*
X176568000Y-70815200D02*
X176568000Y-93675200D01*
X176568000Y-93675200D02*
X171488000Y-93675200D01*
X171488000Y-93675200D02*
X171488000Y-70815200D01*
X171488000Y-70815200D02*
X176568000Y-70815200D01*
X175387000Y-97422000D02*
X175387000Y-97422000D01*
X175387000Y-97422000D02*
X175387000Y-98692000D01*
X175387000Y-98692000D02*
X172847000Y-98692000D01*
X172847000Y-98692000D02*
X172847000Y-97422000D01*
X176657000Y-97422000D02*
X176657000Y-120282000D01*
X176657000Y-120282000D02*
X171577000Y-120282000D01*
X171577000Y-120282000D02*
X171577000Y-97422000D01*
X171577000Y-97422000D02*
X176657000Y-97422000D01*
X120167000Y-69697600D02*
X120167000Y-69697600D01*
X120167000Y-69697600D02*
X120167000Y-70967600D01*
X120167000Y-70967600D02*
X117627000Y-70967600D01*
X117627000Y-70967600D02*
X117627000Y-69697600D01*
X125247000Y-69697600D02*
X125247000Y-107797600D01*
X125247000Y-107797600D02*
X112547000Y-107797600D01*
X112547000Y-107797600D02*
X112547000Y-69697600D01*
X112547000Y-69697600D02*
X125247000Y-69697600D01*
X138112000Y-104267000D02*
X138112000Y-97917000D01*
X133032000Y-104267000D02*
X133032000Y-97917000D01*
X135572000Y-95377000D02*
G75*
G03X133032000Y-97917000I0J-2540000D01*
G01*
X138112000Y-97917000D02*
G75*
G03X135572000Y-95377000I-2540000J0D01*
G01*
X133032000Y-104267000D02*
G75*
G03X135572000Y-106807000I2540000J0D01*
G01*
X135572000Y-106807000D02*
G75*
G03X138112000Y-104267000I0J2540000D01*
G01*
X145580100Y-124764800D02*
X150660100Y-124764800D01*
X145580100Y-127304800D02*
X150660100Y-127304800D01*
D13*
X145580100Y-127304800D02*
X145580100Y-124764800D01*
X150660100Y-124764800D02*
X150660100Y-127304800D01*
D10*
X108648500Y-124129800D02*
X108648500Y-73329800D01*
X106108500Y-73329800D02*
X106108500Y-124129800D01*
X106108500Y-73329800D02*
X108648500Y-73329800D01*
D13*
X108648500Y-124129800D02*
X106108500Y-124129800D01*
D10*
X183121300Y-124129800D02*
X183121300Y-73329800D01*
X180581300Y-73329800D02*
X180581300Y-124129800D01*
X180581300Y-73329800D02*
X183121300Y-73329800D01*
D13*
X183121300Y-124129800D02*
X180581300Y-124129800D01*
D14*
X177190400Y-123520200D02*
X177190400Y-128092200D01*
X177190400Y-128092200D02*
X157378400Y-128092200D01*
X157378400Y-128092200D02*
X157378400Y-123520200D01*
X157378400Y-123520200D02*
X177190400Y-123520200D01*
D10*
X115328700Y-129438400D02*
X122948700Y-129438400D01*
X122948700Y-126898400D02*
X115328700Y-126898400D01*
D13*
X122948700Y-126898400D02*
X122948700Y-129438400D01*
X115328700Y-129438400D02*
X115328700Y-126898400D01*
D10*
X130136900Y-115036600D02*
X129628900Y-115544600D01*
X129628900Y-115544600D02*
X129628900Y-114528600D01*
X129628900Y-114528600D02*
X130162300Y-115036600D01*
X130136900Y-115036600D02*
X130517900Y-115036600D01*
X129628900Y-115036600D02*
X129247900Y-115036600D01*
X130136900Y-115544600D02*
X130136900Y-114528600D01*
X129628900Y-115544600D02*
X129628900Y-114528600D01*
X135991600Y-115049300D02*
X136499600Y-114541300D01*
X136499600Y-114541300D02*
X136499600Y-115557300D01*
X136499600Y-115557300D02*
X135966200Y-115049300D01*
X135991600Y-115049300D02*
X135610600Y-115049300D01*
X136499600Y-115049300D02*
X136880600Y-115049300D01*
X135991600Y-114541300D02*
X135991600Y-115557300D01*
X136499600Y-114541300D02*
X136499600Y-115557300D01*
X159154834Y-69534043D02*
X159107215Y-69581662D01*
X158964358Y-69629281D01*
X158869120Y-69629281D01*
X158726262Y-69581662D01*
X158631024Y-69486424D01*
X158583405Y-69391186D01*
X158535786Y-69200710D01*
X158535786Y-69057852D01*
X158583405Y-68867376D01*
X158631024Y-68772138D01*
X158726262Y-68676900D01*
X158869120Y-68629281D01*
X158964358Y-68629281D01*
X159107215Y-68676900D01*
X159154834Y-68724519D01*
X159726262Y-69057852D02*
X159631024Y-69010233D01*
X159583405Y-68962614D01*
X159535786Y-68867376D01*
X159535786Y-68819757D01*
X159583405Y-68724519D01*
X159631024Y-68676900D01*
X159726262Y-68629281D01*
X159916739Y-68629281D01*
X160011977Y-68676900D01*
X160059596Y-68724519D01*
X160107215Y-68819757D01*
X160107215Y-68867376D01*
X160059596Y-68962614D01*
X160011977Y-69010233D01*
X159916739Y-69057852D01*
X159726262Y-69057852D01*
X159631024Y-69105471D01*
X159583405Y-69153090D01*
X159535786Y-69248329D01*
X159535786Y-69438805D01*
X159583405Y-69534043D01*
X159631024Y-69581662D01*
X159726262Y-69629281D01*
X159916739Y-69629281D01*
X160011977Y-69581662D01*
X160059596Y-69534043D01*
X160107215Y-69438805D01*
X160107215Y-69248329D01*
X160059596Y-69153090D01*
X160011977Y-69105471D01*
X159916739Y-69057852D01*
X128779543Y-98655166D02*
X128827162Y-98702785D01*
X128874781Y-98845642D01*
X128874781Y-98940880D01*
X128827162Y-99083738D01*
X128731924Y-99178976D01*
X128636686Y-99226595D01*
X128446210Y-99274214D01*
X128303352Y-99274214D01*
X128112876Y-99226595D01*
X128017638Y-99178976D01*
X127922400Y-99083738D01*
X127874781Y-98940880D01*
X127874781Y-98845642D01*
X127922400Y-98702785D01*
X127970019Y-98655166D01*
X128874781Y-97702785D02*
X128874781Y-98274214D01*
X128874781Y-97988500D02*
X127874781Y-97988500D01*
X128017638Y-98083738D01*
X128112876Y-98178976D01*
X128160495Y-98274214D01*
X128716043Y-104192366D02*
X128763662Y-104239985D01*
X128811281Y-104382842D01*
X128811281Y-104478080D01*
X128763662Y-104620938D01*
X128668424Y-104716176D01*
X128573186Y-104763795D01*
X128382710Y-104811414D01*
X128239852Y-104811414D01*
X128049376Y-104763795D01*
X127954138Y-104716176D01*
X127858900Y-104620938D01*
X127811281Y-104478080D01*
X127811281Y-104382842D01*
X127858900Y-104239985D01*
X127906519Y-104192366D01*
X127906519Y-103811414D02*
X127858900Y-103763795D01*
X127811281Y-103668557D01*
X127811281Y-103430461D01*
X127858900Y-103335223D01*
X127906519Y-103287604D01*
X128001757Y-103239985D01*
X128096995Y-103239985D01*
X128239852Y-103287604D01*
X128811281Y-103859033D01*
X128811281Y-103239985D01*
X112241034Y-121705643D02*
X112193415Y-121753262D01*
X112050558Y-121800881D01*
X111955320Y-121800881D01*
X111812462Y-121753262D01*
X111717224Y-121658024D01*
X111669605Y-121562786D01*
X111621986Y-121372310D01*
X111621986Y-121229452D01*
X111669605Y-121038976D01*
X111717224Y-120943738D01*
X111812462Y-120848500D01*
X111955320Y-120800881D01*
X112050558Y-120800881D01*
X112193415Y-120848500D01*
X112241034Y-120896119D01*
X112574367Y-120800881D02*
X113193415Y-120800881D01*
X112860081Y-121181833D01*
X113002939Y-121181833D01*
X113098177Y-121229452D01*
X113145796Y-121277071D01*
X113193415Y-121372310D01*
X113193415Y-121610405D01*
X113145796Y-121705643D01*
X113098177Y-121753262D01*
X113002939Y-121800881D01*
X112717224Y-121800881D01*
X112621986Y-121753262D01*
X112574367Y-121705643D01*
X122439134Y-124461543D02*
X122391515Y-124509162D01*
X122248658Y-124556781D01*
X122153420Y-124556781D01*
X122010562Y-124509162D01*
X121915324Y-124413924D01*
X121867705Y-124318686D01*
X121820086Y-124128210D01*
X121820086Y-123985352D01*
X121867705Y-123794876D01*
X121915324Y-123699638D01*
X122010562Y-123604400D01*
X122153420Y-123556781D01*
X122248658Y-123556781D01*
X122391515Y-123604400D01*
X122439134Y-123652019D01*
X123296277Y-123890114D02*
X123296277Y-124556781D01*
X123058181Y-123509162D02*
X122820086Y-124223448D01*
X123439134Y-124223448D01*
X170026034Y-69534043D02*
X169978415Y-69581662D01*
X169835558Y-69629281D01*
X169740320Y-69629281D01*
X169597462Y-69581662D01*
X169502224Y-69486424D01*
X169454605Y-69391186D01*
X169406986Y-69200710D01*
X169406986Y-69057852D01*
X169454605Y-68867376D01*
X169502224Y-68772138D01*
X169597462Y-68676900D01*
X169740320Y-68629281D01*
X169835558Y-68629281D01*
X169978415Y-68676900D01*
X170026034Y-68724519D01*
X170502224Y-69629281D02*
X170692700Y-69629281D01*
X170787939Y-69581662D01*
X170835558Y-69534043D01*
X170930796Y-69391186D01*
X170978415Y-69200710D01*
X170978415Y-68819757D01*
X170930796Y-68724519D01*
X170883177Y-68676900D01*
X170787939Y-68629281D01*
X170597462Y-68629281D01*
X170502224Y-68676900D01*
X170454605Y-68724519D01*
X170406986Y-68819757D01*
X170406986Y-69057852D01*
X170454605Y-69153090D01*
X170502224Y-69200710D01*
X170597462Y-69248329D01*
X170787939Y-69248329D01*
X170883177Y-69200710D01*
X170930796Y-69153090D01*
X170978415Y-69057852D01*
X158678643Y-96178643D02*
X158631024Y-96226262D01*
X158488167Y-96273881D01*
X158392929Y-96273881D01*
X158250071Y-96226262D01*
X158154833Y-96131024D01*
X158107214Y-96035786D01*
X158059595Y-95845310D01*
X158059595Y-95702452D01*
X158107214Y-95511976D01*
X158154833Y-95416738D01*
X158250071Y-95321500D01*
X158392929Y-95273881D01*
X158488167Y-95273881D01*
X158631024Y-95321500D01*
X158678643Y-95369119D01*
X159631024Y-96273881D02*
X159059595Y-96273881D01*
X159345309Y-96273881D02*
X159345309Y-95273881D01*
X159250071Y-95416738D01*
X159154833Y-95511976D01*
X159059595Y-95559595D01*
X160250071Y-95273881D02*
X160345310Y-95273881D01*
X160440548Y-95321500D01*
X160488167Y-95369119D01*
X160535786Y-95464357D01*
X160583405Y-95654833D01*
X160583405Y-95892929D01*
X160535786Y-96083405D01*
X160488167Y-96178643D01*
X160440548Y-96226262D01*
X160345310Y-96273881D01*
X160250071Y-96273881D01*
X160154833Y-96226262D01*
X160107214Y-96178643D01*
X160059595Y-96083405D01*
X160011976Y-95892929D01*
X160011976Y-95654833D01*
X160059595Y-95464357D01*
X160107214Y-95369119D01*
X160154833Y-95321500D01*
X160250071Y-95273881D01*
X169613343Y-96216743D02*
X169565724Y-96264362D01*
X169422867Y-96311981D01*
X169327629Y-96311981D01*
X169184771Y-96264362D01*
X169089533Y-96169124D01*
X169041914Y-96073886D01*
X168994295Y-95883410D01*
X168994295Y-95740552D01*
X169041914Y-95550076D01*
X169089533Y-95454838D01*
X169184771Y-95359600D01*
X169327629Y-95311981D01*
X169422867Y-95311981D01*
X169565724Y-95359600D01*
X169613343Y-95407219D01*
X170565724Y-96311981D02*
X169994295Y-96311981D01*
X170280009Y-96311981D02*
X170280009Y-95311981D01*
X170184771Y-95454838D01*
X170089533Y-95550076D01*
X169994295Y-95597695D01*
X171518105Y-96311981D02*
X170946676Y-96311981D01*
X171232390Y-96311981D02*
X171232390Y-95311981D01*
X171137152Y-95454838D01*
X171041914Y-95550076D01*
X170946676Y-95597695D01*
X114869934Y-109780343D02*
X114822315Y-109827962D01*
X114679458Y-109875581D01*
X114584220Y-109875581D01*
X114441362Y-109827962D01*
X114346124Y-109732724D01*
X114298505Y-109637486D01*
X114250886Y-109447010D01*
X114250886Y-109304152D01*
X114298505Y-109113676D01*
X114346124Y-109018438D01*
X114441362Y-108923200D01*
X114584220Y-108875581D01*
X114679458Y-108875581D01*
X114822315Y-108923200D01*
X114869934Y-108970819D01*
X115774696Y-108875581D02*
X115298505Y-108875581D01*
X115250886Y-109351771D01*
X115298505Y-109304152D01*
X115393743Y-109256533D01*
X115631839Y-109256533D01*
X115727077Y-109304152D01*
X115774696Y-109351771D01*
X115822315Y-109447010D01*
X115822315Y-109685105D01*
X115774696Y-109780343D01*
X115727077Y-109827962D01*
X115631839Y-109875581D01*
X115393743Y-109875581D01*
X115298505Y-109827962D01*
X115250886Y-109780343D01*
X128830343Y-92927466D02*
X128877962Y-92975085D01*
X128925581Y-93117942D01*
X128925581Y-93213180D01*
X128877962Y-93356038D01*
X128782724Y-93451276D01*
X128687486Y-93498895D01*
X128497010Y-93546514D01*
X128354152Y-93546514D01*
X128163676Y-93498895D01*
X128068438Y-93451276D01*
X127973200Y-93356038D01*
X127925581Y-93213180D01*
X127925581Y-93117942D01*
X127973200Y-92975085D01*
X128020819Y-92927466D01*
X127925581Y-92070323D02*
X127925581Y-92260800D01*
X127973200Y-92356038D01*
X128020819Y-92403657D01*
X128163676Y-92498895D01*
X128354152Y-92546514D01*
X128735105Y-92546514D01*
X128830343Y-92498895D01*
X128877962Y-92451276D01*
X128925581Y-92356038D01*
X128925581Y-92165561D01*
X128877962Y-92070323D01*
X128830343Y-92022704D01*
X128735105Y-91975085D01*
X128497010Y-91975085D01*
X128401771Y-92022704D01*
X128354152Y-92070323D01*
X128306533Y-92165561D01*
X128306533Y-92356038D01*
X128354152Y-92451276D01*
X128401771Y-92498895D01*
X128497010Y-92546514D01*
X135329634Y-91593943D02*
X135282015Y-91641562D01*
X135139158Y-91689181D01*
X135043920Y-91689181D01*
X134901062Y-91641562D01*
X134805824Y-91546324D01*
X134758205Y-91451086D01*
X134710586Y-91260610D01*
X134710586Y-91117752D01*
X134758205Y-90927276D01*
X134805824Y-90832038D01*
X134901062Y-90736800D01*
X135043920Y-90689181D01*
X135139158Y-90689181D01*
X135282015Y-90736800D01*
X135329634Y-90784419D01*
X135662967Y-90689181D02*
X136329634Y-90689181D01*
X135901062Y-91689181D01*
X142989395Y-69886581D02*
X142989395Y-70696105D01*
X143037014Y-70791343D01*
X143084633Y-70838962D01*
X143179871Y-70886581D01*
X143370348Y-70886581D01*
X143465586Y-70838962D01*
X143513205Y-70791343D01*
X143560824Y-70696105D01*
X143560824Y-69886581D01*
X143989395Y-69981819D02*
X144037014Y-69934200D01*
X144132252Y-69886581D01*
X144370348Y-69886581D01*
X144465586Y-69934200D01*
X144513205Y-69981819D01*
X144560824Y-70077057D01*
X144560824Y-70172295D01*
X144513205Y-70315152D01*
X143941776Y-70886581D01*
X144560824Y-70886581D01*
X148108967Y-102605648D02*
X148108967Y-102129457D01*
X148394681Y-102700886D02*
X147394681Y-102367553D01*
X148394681Y-102034219D01*
X147394681Y-101843743D02*
X147394681Y-101272314D01*
X148394681Y-101558029D02*
X147394681Y-101558029D01*
X148394681Y-100938981D02*
X147394681Y-100938981D01*
X148108967Y-100605647D01*
X147394681Y-100272314D01*
X148394681Y-100272314D01*
X147870871Y-99796124D02*
X147870871Y-99462790D01*
X148394681Y-99319933D02*
X148394681Y-99796124D01*
X147394681Y-99796124D01*
X147394681Y-99319933D01*
X147442300Y-98367552D02*
X147394681Y-98462790D01*
X147394681Y-98605647D01*
X147442300Y-98748505D01*
X147537538Y-98843743D01*
X147632776Y-98891362D01*
X147823252Y-98938981D01*
X147966110Y-98938981D01*
X148156586Y-98891362D01*
X148251824Y-98843743D01*
X148347062Y-98748505D01*
X148394681Y-98605647D01*
X148394681Y-98510409D01*
X148347062Y-98367552D01*
X148299443Y-98319933D01*
X147966110Y-98319933D01*
X147966110Y-98510409D01*
X148108967Y-97938981D02*
X148108967Y-97462790D01*
X148394681Y-98034219D02*
X147394681Y-97700886D01*
X148394681Y-97367552D01*
X148394681Y-96510409D02*
X148394681Y-97081838D01*
X148394681Y-96796124D02*
X147394681Y-96796124D01*
X147537538Y-96891362D01*
X147632776Y-96986600D01*
X147680395Y-97081838D01*
X147489919Y-96129457D02*
X147442300Y-96081838D01*
X147394681Y-95986600D01*
X147394681Y-95748504D01*
X147442300Y-95653266D01*
X147489919Y-95605647D01*
X147585157Y-95558028D01*
X147680395Y-95558028D01*
X147823252Y-95605647D01*
X148394681Y-96177076D01*
X148394681Y-95558028D01*
X147823252Y-94986600D02*
X147775633Y-95081838D01*
X147728014Y-95129457D01*
X147632776Y-95177076D01*
X147585157Y-95177076D01*
X147489919Y-95129457D01*
X147442300Y-95081838D01*
X147394681Y-94986600D01*
X147394681Y-94796123D01*
X147442300Y-94700885D01*
X147489919Y-94653266D01*
X147585157Y-94605647D01*
X147632776Y-94605647D01*
X147728014Y-94653266D01*
X147775633Y-94700885D01*
X147823252Y-94796123D01*
X147823252Y-94986600D01*
X147870871Y-95081838D01*
X147918490Y-95129457D01*
X148013729Y-95177076D01*
X148204205Y-95177076D01*
X148299443Y-95129457D01*
X148347062Y-95081838D01*
X148394681Y-94986600D01*
X148394681Y-94796123D01*
X148347062Y-94700885D01*
X148299443Y-94653266D01*
X148204205Y-94605647D01*
X148013729Y-94605647D01*
X147918490Y-94653266D01*
X147870871Y-94700885D01*
X147823252Y-94796123D01*
X147728014Y-93748504D02*
X148394681Y-93748504D01*
X147347062Y-93986600D02*
X148061348Y-94224695D01*
X148061348Y-93605647D01*
X148394681Y-93224695D02*
X147394681Y-93224695D01*
X147394681Y-92843742D01*
X147442300Y-92748504D01*
X147489919Y-92700885D01*
X147585157Y-92653266D01*
X147728014Y-92653266D01*
X147823252Y-92700885D01*
X147870871Y-92748504D01*
X147918490Y-92843742D01*
X147918490Y-93224695D01*
X148013729Y-92224695D02*
X148013729Y-91462790D01*
X148394681Y-90986600D02*
X147394681Y-90986600D01*
X147394681Y-90605647D01*
X147442300Y-90510409D01*
X147489919Y-90462790D01*
X147585157Y-90415171D01*
X147728014Y-90415171D01*
X147823252Y-90462790D01*
X147870871Y-90510409D01*
X147918490Y-90605647D01*
X147918490Y-90986600D01*
X147394681Y-89986600D02*
X148204205Y-89986600D01*
X148299443Y-89938981D01*
X148347062Y-89891362D01*
X148394681Y-89796124D01*
X148394681Y-89605647D01*
X148347062Y-89510409D01*
X148299443Y-89462790D01*
X148204205Y-89415171D01*
X147394681Y-89415171D01*
X139292105Y-128735081D02*
X139292105Y-127735081D01*
X139673058Y-127735081D01*
X139768296Y-127782700D01*
X139815915Y-127830319D01*
X139863534Y-127925557D01*
X139863534Y-128068414D01*
X139815915Y-128163652D01*
X139768296Y-128211271D01*
X139673058Y-128258890D01*
X139292105Y-128258890D01*
X140196867Y-127735081D02*
X140815915Y-127735081D01*
X140482581Y-128116033D01*
X140625439Y-128116033D01*
X140720677Y-128163652D01*
X140768296Y-128211271D01*
X140815915Y-128306510D01*
X140815915Y-128544605D01*
X140768296Y-128639843D01*
X140720677Y-128687462D01*
X140625439Y-128735081D01*
X140339724Y-128735081D01*
X140244486Y-128687462D01*
X140196867Y-128639843D01*
X138768295Y-129132081D02*
X138768295Y-129941605D01*
X138815914Y-130036843D01*
X138863533Y-130084462D01*
X138958771Y-130132081D01*
X139149248Y-130132081D01*
X139244486Y-130084462D01*
X139292105Y-130036843D01*
X139339724Y-129941605D01*
X139339724Y-129132081D01*
X139768295Y-130084462D02*
X139911152Y-130132081D01*
X140149248Y-130132081D01*
X140244486Y-130084462D01*
X140292105Y-130036843D01*
X140339724Y-129941605D01*
X140339724Y-129846367D01*
X140292105Y-129751129D01*
X140244486Y-129703510D01*
X140149248Y-129655890D01*
X139958771Y-129608271D01*
X139863533Y-129560652D01*
X139815914Y-129513033D01*
X139768295Y-129417795D01*
X139768295Y-129322557D01*
X139815914Y-129227319D01*
X139863533Y-129179700D01*
X139958771Y-129132081D01*
X140196867Y-129132081D01*
X140339724Y-129179700D01*
X141101629Y-129608271D02*
X141244486Y-129655890D01*
X141292105Y-129703510D01*
X141339724Y-129798748D01*
X141339724Y-129941605D01*
X141292105Y-130036843D01*
X141244486Y-130084462D01*
X141149248Y-130132081D01*
X140768295Y-130132081D01*
X140768295Y-129132081D01*
X141101629Y-129132081D01*
X141196867Y-129179700D01*
X141244486Y-129227319D01*
X141292105Y-129322557D01*
X141292105Y-129417795D01*
X141244486Y-129513033D01*
X141196867Y-129560652D01*
X141101629Y-129608271D01*
X140768295Y-129608271D01*
X127303234Y-109824781D02*
X126969900Y-109348590D01*
X126731805Y-109824781D02*
X126731805Y-108824781D01*
X127112758Y-108824781D01*
X127207996Y-108872400D01*
X127255615Y-108920019D01*
X127303234Y-109015257D01*
X127303234Y-109158114D01*
X127255615Y-109253352D01*
X127207996Y-109300971D01*
X127112758Y-109348590D01*
X126731805Y-109348590D01*
X128255615Y-109824781D02*
X127684186Y-109824781D01*
X127969900Y-109824781D02*
X127969900Y-108824781D01*
X127874662Y-108967638D01*
X127779424Y-109062876D01*
X127684186Y-109110495D01*
X128395434Y-118308381D02*
X128062100Y-117832190D01*
X127824005Y-118308381D02*
X127824005Y-117308381D01*
X128204958Y-117308381D01*
X128300196Y-117356000D01*
X128347815Y-117403619D01*
X128395434Y-117498857D01*
X128395434Y-117641714D01*
X128347815Y-117736952D01*
X128300196Y-117784571D01*
X128204958Y-117832190D01*
X127824005Y-117832190D01*
X128776386Y-117403619D02*
X128824005Y-117356000D01*
X128919243Y-117308381D01*
X129157339Y-117308381D01*
X129252577Y-117356000D01*
X129300196Y-117403619D01*
X129347815Y-117498857D01*
X129347815Y-117594095D01*
X129300196Y-117736952D01*
X128728767Y-118308381D01*
X129347815Y-118308381D01*
X137400234Y-118181381D02*
X137066900Y-117705190D01*
X136828805Y-118181381D02*
X136828805Y-117181381D01*
X137209758Y-117181381D01*
X137304996Y-117229000D01*
X137352615Y-117276619D01*
X137400234Y-117371857D01*
X137400234Y-117514714D01*
X137352615Y-117609952D01*
X137304996Y-117657571D01*
X137209758Y-117705190D01*
X136828805Y-117705190D01*
X137733567Y-117181381D02*
X138352615Y-117181381D01*
X138019281Y-117562333D01*
X138162139Y-117562333D01*
X138257377Y-117609952D01*
X138304996Y-117657571D01*
X138352615Y-117752810D01*
X138352615Y-117990905D01*
X138304996Y-118086143D01*
X138257377Y-118133762D01*
X138162139Y-118181381D01*
X137876424Y-118181381D01*
X137781186Y-118133762D01*
X137733567Y-118086143D01*
X132054767Y-72413762D02*
X132197624Y-72461381D01*
X132435720Y-72461381D01*
X132530958Y-72413762D01*
X132578577Y-72366143D01*
X132626196Y-72270905D01*
X132626196Y-72175667D01*
X132578577Y-72080429D01*
X132530958Y-72032810D01*
X132435720Y-71985190D01*
X132245243Y-71937571D01*
X132150005Y-71889952D01*
X132102386Y-71842333D01*
X132054767Y-71747095D01*
X132054767Y-71651857D01*
X132102386Y-71556619D01*
X132150005Y-71509000D01*
X132245243Y-71461381D01*
X132483339Y-71461381D01*
X132626196Y-71509000D01*
X132959529Y-71461381D02*
X133197624Y-72461381D01*
X133388101Y-71747095D01*
X133578577Y-72461381D01*
X133816672Y-71461381D01*
X134721434Y-72461381D02*
X134150005Y-72461381D01*
X134435719Y-72461381D02*
X134435719Y-71461381D01*
X134340481Y-71604238D01*
X134245243Y-71699476D01*
X134150005Y-71747095D01*
X131986519Y-77198481D02*
X131653185Y-76722290D01*
X131415090Y-77198481D02*
X131415090Y-76198481D01*
X131796043Y-76198481D01*
X131891281Y-76246100D01*
X131938900Y-76293719D01*
X131986519Y-76388957D01*
X131986519Y-76531814D01*
X131938900Y-76627052D01*
X131891281Y-76674671D01*
X131796043Y-76722290D01*
X131415090Y-76722290D01*
X132415090Y-76674671D02*
X132748424Y-76674671D01*
X132891281Y-77198481D02*
X132415090Y-77198481D01*
X132415090Y-76198481D01*
X132891281Y-76198481D01*
X133272233Y-77150862D02*
X133415090Y-77198481D01*
X133653186Y-77198481D01*
X133748424Y-77150862D01*
X133796043Y-77103243D01*
X133843662Y-77008005D01*
X133843662Y-76912767D01*
X133796043Y-76817529D01*
X133748424Y-76769910D01*
X133653186Y-76722290D01*
X133462709Y-76674671D01*
X133367471Y-76627052D01*
X133319852Y-76579433D01*
X133272233Y-76484195D01*
X133272233Y-76388957D01*
X133319852Y-76293719D01*
X133367471Y-76246100D01*
X133462709Y-76198481D01*
X133700805Y-76198481D01*
X133843662Y-76246100D01*
X134272233Y-76674671D02*
X134605567Y-76674671D01*
X134748424Y-77198481D02*
X134272233Y-77198481D01*
X134272233Y-76198481D01*
X134748424Y-76198481D01*
X135034138Y-76198481D02*
X135605567Y-76198481D01*
X135319852Y-77198481D02*
X135319852Y-76198481D01*
X132054767Y-83132562D02*
X132197624Y-83180181D01*
X132435720Y-83180181D01*
X132530958Y-83132562D01*
X132578577Y-83084943D01*
X132626196Y-82989705D01*
X132626196Y-82894467D01*
X132578577Y-82799229D01*
X132530958Y-82751610D01*
X132435720Y-82703990D01*
X132245243Y-82656371D01*
X132150005Y-82608752D01*
X132102386Y-82561133D01*
X132054767Y-82465895D01*
X132054767Y-82370657D01*
X132102386Y-82275419D01*
X132150005Y-82227800D01*
X132245243Y-82180181D01*
X132483339Y-82180181D01*
X132626196Y-82227800D01*
X132959529Y-82180181D02*
X133197624Y-83180181D01*
X133388101Y-82465895D01*
X133578577Y-83180181D01*
X133816672Y-82180181D01*
X134150005Y-82275419D02*
X134197624Y-82227800D01*
X134292862Y-82180181D01*
X134530958Y-82180181D01*
X134626196Y-82227800D01*
X134673815Y-82275419D01*
X134721434Y-82370657D01*
X134721434Y-82465895D01*
X134673815Y-82608752D01*
X134102386Y-83180181D01*
X134721434Y-83180181D01*
X132081758Y-87533171D02*
X132224615Y-87580790D01*
X132272234Y-87628410D01*
X132319853Y-87723648D01*
X132319853Y-87866505D01*
X132272234Y-87961743D01*
X132224615Y-88009362D01*
X132129377Y-88056981D01*
X131748424Y-88056981D01*
X131748424Y-87056981D01*
X132081758Y-87056981D01*
X132176996Y-87104600D01*
X132224615Y-87152219D01*
X132272234Y-87247457D01*
X132272234Y-87342695D01*
X132224615Y-87437933D01*
X132176996Y-87485552D01*
X132081758Y-87533171D01*
X131748424Y-87533171D01*
X132938900Y-87056981D02*
X133129377Y-87056981D01*
X133224615Y-87104600D01*
X133319853Y-87199838D01*
X133367472Y-87390314D01*
X133367472Y-87723648D01*
X133319853Y-87914124D01*
X133224615Y-88009362D01*
X133129377Y-88056981D01*
X132938900Y-88056981D01*
X132843662Y-88009362D01*
X132748424Y-87914124D01*
X132700805Y-87723648D01*
X132700805Y-87390314D01*
X132748424Y-87199838D01*
X132843662Y-87104600D01*
X132938900Y-87056981D01*
X133986519Y-87056981D02*
X134176996Y-87056981D01*
X134272234Y-87104600D01*
X134367472Y-87199838D01*
X134415091Y-87390314D01*
X134415091Y-87723648D01*
X134367472Y-87914124D01*
X134272234Y-88009362D01*
X134176996Y-88056981D01*
X133986519Y-88056981D01*
X133891281Y-88009362D01*
X133796043Y-87914124D01*
X133748424Y-87723648D01*
X133748424Y-87390314D01*
X133796043Y-87199838D01*
X133891281Y-87104600D01*
X133986519Y-87056981D01*
X134700805Y-87056981D02*
X135272234Y-87056981D01*
X134986519Y-88056981D02*
X134986519Y-87056981D01*
X161023395Y-72464681D02*
X161023395Y-73274205D01*
X161071014Y-73369443D01*
X161118633Y-73417062D01*
X161213871Y-73464681D01*
X161404348Y-73464681D01*
X161499586Y-73417062D01*
X161547205Y-73369443D01*
X161594824Y-73274205D01*
X161594824Y-72464681D01*
X161975776Y-72464681D02*
X162594824Y-72464681D01*
X162261490Y-72845633D01*
X162404348Y-72845633D01*
X162499586Y-72893252D01*
X162547205Y-72940871D01*
X162594824Y-73036110D01*
X162594824Y-73274205D01*
X162547205Y-73369443D01*
X162499586Y-73417062D01*
X162404348Y-73464681D01*
X162118633Y-73464681D01*
X162023395Y-73417062D01*
X161975776Y-73369443D01*
X162583881Y-82724405D02*
X162583881Y-82057738D01*
X163583881Y-82486310D01*
X162917214Y-81248214D02*
X163583881Y-81248214D01*
X162536262Y-81486310D02*
X163250548Y-81724405D01*
X163250548Y-81105357D01*
X162583881Y-80533929D02*
X162583881Y-80438690D01*
X162631500Y-80343452D01*
X162679119Y-80295833D01*
X162774357Y-80248214D01*
X162964833Y-80200595D01*
X163202929Y-80200595D01*
X163393405Y-80248214D01*
X163488643Y-80295833D01*
X163536262Y-80343452D01*
X163583881Y-80438690D01*
X163583881Y-80533929D01*
X163536262Y-80629167D01*
X163488643Y-80676786D01*
X163393405Y-80724405D01*
X163202929Y-80772024D01*
X162964833Y-80772024D01*
X162774357Y-80724405D01*
X162679119Y-80676786D01*
X162631500Y-80629167D01*
X162583881Y-80533929D01*
X162583881Y-79581548D02*
X162583881Y-79486309D01*
X162631500Y-79391071D01*
X162679119Y-79343452D01*
X162774357Y-79295833D01*
X162964833Y-79248214D01*
X163202929Y-79248214D01*
X163393405Y-79295833D01*
X163488643Y-79343452D01*
X163536262Y-79391071D01*
X163583881Y-79486309D01*
X163583881Y-79581548D01*
X163536262Y-79676786D01*
X163488643Y-79724405D01*
X163393405Y-79772024D01*
X163202929Y-79819643D01*
X162964833Y-79819643D01*
X162774357Y-79772024D01*
X162679119Y-79724405D01*
X162631500Y-79676786D01*
X162583881Y-79581548D01*
X116916295Y-113320581D02*
X116916295Y-114130105D01*
X116963914Y-114225343D01*
X117011533Y-114272962D01*
X117106771Y-114320581D01*
X117297248Y-114320581D01*
X117392486Y-114272962D01*
X117440105Y-114225343D01*
X117487724Y-114130105D01*
X117487724Y-113320581D01*
X117868676Y-113320581D02*
X118535343Y-113320581D01*
X118106771Y-114320581D01*
X118514881Y-118601905D02*
X118514881Y-117935238D01*
X119514881Y-118363810D01*
X118514881Y-117125714D02*
X118514881Y-117316191D01*
X118562500Y-117411429D01*
X118610119Y-117459048D01*
X118752976Y-117554286D01*
X118943452Y-117601905D01*
X119324405Y-117601905D01*
X119419643Y-117554286D01*
X119467262Y-117506667D01*
X119514881Y-117411429D01*
X119514881Y-117220952D01*
X119467262Y-117125714D01*
X119419643Y-117078095D01*
X119324405Y-117030476D01*
X119086310Y-117030476D01*
X118991071Y-117078095D01*
X118943452Y-117125714D01*
X118895833Y-117220952D01*
X118895833Y-117411429D01*
X118943452Y-117506667D01*
X118991071Y-117554286D01*
X119086310Y-117601905D01*
X118514881Y-116173333D02*
X118514881Y-116363810D01*
X118562500Y-116459048D01*
X118610119Y-116506667D01*
X118752976Y-116601905D01*
X118943452Y-116649524D01*
X119324405Y-116649524D01*
X119419643Y-116601905D01*
X119467262Y-116554286D01*
X119514881Y-116459048D01*
X119514881Y-116268571D01*
X119467262Y-116173333D01*
X119419643Y-116125714D01*
X119324405Y-116078095D01*
X119086310Y-116078095D01*
X118991071Y-116125714D01*
X118943452Y-116173333D01*
X118895833Y-116268571D01*
X118895833Y-116459048D01*
X118943452Y-116554286D01*
X118991071Y-116601905D01*
X119086310Y-116649524D01*
X118514881Y-115459048D02*
X118514881Y-115363809D01*
X118562500Y-115268571D01*
X118610119Y-115220952D01*
X118705357Y-115173333D01*
X118895833Y-115125714D01*
X119133929Y-115125714D01*
X119324405Y-115173333D01*
X119419643Y-115220952D01*
X119467262Y-115268571D01*
X119514881Y-115363809D01*
X119514881Y-115459048D01*
X119467262Y-115554286D01*
X119419643Y-115601905D01*
X119324405Y-115649524D01*
X119133929Y-115697143D01*
X118895833Y-115697143D01*
X118705357Y-115649524D01*
X118610119Y-115601905D01*
X118562500Y-115554286D01*
X118514881Y-115459048D01*
X161099595Y-99172781D02*
X161099595Y-99982305D01*
X161147214Y-100077543D01*
X161194833Y-100125162D01*
X161290071Y-100172781D01*
X161480548Y-100172781D01*
X161575786Y-100125162D01*
X161623405Y-100077543D01*
X161671024Y-99982305D01*
X161671024Y-99172781D01*
X162623405Y-99172781D02*
X162147214Y-99172781D01*
X162099595Y-99648971D01*
X162147214Y-99601352D01*
X162242452Y-99553733D01*
X162480548Y-99553733D01*
X162575786Y-99601352D01*
X162623405Y-99648971D01*
X162671024Y-99744210D01*
X162671024Y-99982305D01*
X162623405Y-100077543D01*
X162575786Y-100125162D01*
X162480548Y-100172781D01*
X162242452Y-100172781D01*
X162147214Y-100125162D01*
X162099595Y-100077543D01*
X162942614Y-110115195D02*
X163609281Y-110115195D01*
X162561662Y-110353291D02*
X163275948Y-110591386D01*
X163275948Y-109972338D01*
X162609281Y-109115195D02*
X162609281Y-109591386D01*
X163085471Y-109639005D01*
X163037852Y-109591386D01*
X162990233Y-109496148D01*
X162990233Y-109258052D01*
X163037852Y-109162814D01*
X163085471Y-109115195D01*
X163180710Y-109067576D01*
X163418805Y-109067576D01*
X163514043Y-109115195D01*
X163561662Y-109162814D01*
X163609281Y-109258052D01*
X163609281Y-109496148D01*
X163561662Y-109591386D01*
X163514043Y-109639005D01*
X162704519Y-108686624D02*
X162656900Y-108639005D01*
X162609281Y-108543767D01*
X162609281Y-108305671D01*
X162656900Y-108210433D01*
X162704519Y-108162814D01*
X162799757Y-108115195D01*
X162894995Y-108115195D01*
X163037852Y-108162814D01*
X163609281Y-108734243D01*
X163609281Y-108115195D01*
X162609281Y-107496148D02*
X162609281Y-107400909D01*
X162656900Y-107305671D01*
X162704519Y-107258052D01*
X162799757Y-107210433D01*
X162990233Y-107162814D01*
X163228329Y-107162814D01*
X163418805Y-107210433D01*
X163514043Y-107258052D01*
X163561662Y-107305671D01*
X163609281Y-107400909D01*
X163609281Y-107496148D01*
X163561662Y-107591386D01*
X163514043Y-107639005D01*
X163418805Y-107686624D01*
X163228329Y-107734243D01*
X162990233Y-107734243D01*
X162799757Y-107686624D01*
X162704519Y-107639005D01*
X162656900Y-107591386D01*
X162609281Y-107496148D01*
X171881895Y-72426581D02*
X171881895Y-73236105D01*
X171929514Y-73331343D01*
X171977133Y-73378962D01*
X172072371Y-73426581D01*
X172262848Y-73426581D01*
X172358086Y-73378962D01*
X172405705Y-73331343D01*
X172453324Y-73236105D01*
X172453324Y-72426581D01*
X173358086Y-72759914D02*
X173358086Y-73426581D01*
X173119990Y-72378962D02*
X172881895Y-73093248D01*
X173500943Y-73093248D01*
X173813814Y-83483295D02*
X174480481Y-83483295D01*
X173432862Y-83721391D02*
X174147148Y-83959486D01*
X174147148Y-83340438D01*
X173480481Y-82769010D02*
X173480481Y-82673771D01*
X173528100Y-82578533D01*
X173575719Y-82530914D01*
X173670957Y-82483295D01*
X173861433Y-82435676D01*
X174099529Y-82435676D01*
X174290005Y-82483295D01*
X174385243Y-82530914D01*
X174432862Y-82578533D01*
X174480481Y-82673771D01*
X174480481Y-82769010D01*
X174432862Y-82864248D01*
X174385243Y-82911867D01*
X174290005Y-82959486D01*
X174099529Y-83007105D01*
X173861433Y-83007105D01*
X173670957Y-82959486D01*
X173575719Y-82911867D01*
X173528100Y-82864248D01*
X173480481Y-82769010D01*
X173480481Y-81530914D02*
X173480481Y-82007105D01*
X173956671Y-82054724D01*
X173909052Y-82007105D01*
X173861433Y-81911867D01*
X173861433Y-81673771D01*
X173909052Y-81578533D01*
X173956671Y-81530914D01*
X174051910Y-81483295D01*
X174290005Y-81483295D01*
X174385243Y-81530914D01*
X174432862Y-81578533D01*
X174480481Y-81673771D01*
X174480481Y-81911867D01*
X174432862Y-82007105D01*
X174385243Y-82054724D01*
X174480481Y-80530914D02*
X174480481Y-81102343D01*
X174480481Y-80816629D02*
X173480481Y-80816629D01*
X173623338Y-80911867D01*
X173718576Y-81007105D01*
X173766195Y-81102343D01*
X171983495Y-99033081D02*
X171983495Y-99842605D01*
X172031114Y-99937843D01*
X172078733Y-99985462D01*
X172173971Y-100033081D01*
X172364448Y-100033081D01*
X172459686Y-99985462D01*
X172507305Y-99937843D01*
X172554924Y-99842605D01*
X172554924Y-99033081D01*
X173459686Y-99033081D02*
X173269209Y-99033081D01*
X173173971Y-99080700D01*
X173126352Y-99128319D01*
X173031114Y-99271176D01*
X172983495Y-99461652D01*
X172983495Y-99842605D01*
X173031114Y-99937843D01*
X173078733Y-99985462D01*
X173173971Y-100033081D01*
X173364448Y-100033081D01*
X173459686Y-99985462D01*
X173507305Y-99937843D01*
X173554924Y-99842605D01*
X173554924Y-99604510D01*
X173507305Y-99509271D01*
X173459686Y-99461652D01*
X173364448Y-99414033D01*
X173173971Y-99414033D01*
X173078733Y-99461652D01*
X173031114Y-99509271D01*
X172983495Y-99604510D01*
X173902714Y-110102495D02*
X174569381Y-110102495D01*
X173521762Y-110340591D02*
X174236048Y-110578686D01*
X174236048Y-109959638D01*
X173569381Y-109388210D02*
X173569381Y-109292971D01*
X173617000Y-109197733D01*
X173664619Y-109150114D01*
X173759857Y-109102495D01*
X173950333Y-109054876D01*
X174188429Y-109054876D01*
X174378905Y-109102495D01*
X174474143Y-109150114D01*
X174521762Y-109197733D01*
X174569381Y-109292971D01*
X174569381Y-109388210D01*
X174521762Y-109483448D01*
X174474143Y-109531067D01*
X174378905Y-109578686D01*
X174188429Y-109626305D01*
X173950333Y-109626305D01*
X173759857Y-109578686D01*
X173664619Y-109531067D01*
X173617000Y-109483448D01*
X173569381Y-109388210D01*
X173569381Y-108150114D02*
X173569381Y-108626305D01*
X174045571Y-108673924D01*
X173997952Y-108626305D01*
X173950333Y-108531067D01*
X173950333Y-108292971D01*
X173997952Y-108197733D01*
X174045571Y-108150114D01*
X174140810Y-108102495D01*
X174378905Y-108102495D01*
X174474143Y-108150114D01*
X174521762Y-108197733D01*
X174569381Y-108292971D01*
X174569381Y-108531067D01*
X174521762Y-108626305D01*
X174474143Y-108673924D01*
X174569381Y-107150114D02*
X174569381Y-107721543D01*
X174569381Y-107435829D02*
X173569381Y-107435829D01*
X173712238Y-107531067D01*
X173807476Y-107626305D01*
X173855095Y-107721543D01*
X113233295Y-70254881D02*
X113233295Y-71064405D01*
X113280914Y-71159643D01*
X113328533Y-71207262D01*
X113423771Y-71254881D01*
X113614248Y-71254881D01*
X113709486Y-71207262D01*
X113757105Y-71159643D01*
X113804724Y-71064405D01*
X113804724Y-70254881D01*
X114804724Y-71254881D02*
X114233295Y-71254881D01*
X114519009Y-71254881D02*
X114519009Y-70254881D01*
X114423771Y-70397738D01*
X114328533Y-70492976D01*
X114233295Y-70540595D01*
X119254543Y-96688871D02*
X119302162Y-96736490D01*
X119349781Y-96879347D01*
X119349781Y-96974585D01*
X119302162Y-97117443D01*
X119206924Y-97212681D01*
X119111686Y-97260300D01*
X118921210Y-97307919D01*
X118778352Y-97307919D01*
X118587876Y-97260300D01*
X118492638Y-97212681D01*
X118397400Y-97117443D01*
X118349781Y-96974585D01*
X118349781Y-96879347D01*
X118397400Y-96736490D01*
X118445019Y-96688871D01*
X119349781Y-96260300D02*
X118349781Y-96260300D01*
X118349781Y-96022205D01*
X118397400Y-95879347D01*
X118492638Y-95784109D01*
X118587876Y-95736490D01*
X118778352Y-95688871D01*
X118921210Y-95688871D01*
X119111686Y-95736490D01*
X119206924Y-95784109D01*
X119302162Y-95879347D01*
X119349781Y-96022205D01*
X119349781Y-96260300D01*
X118349781Y-95355538D02*
X118349781Y-94688871D01*
X119349781Y-95117443D01*
X118683114Y-93879347D02*
X119349781Y-93879347D01*
X118302162Y-94117443D02*
X119016448Y-94355538D01*
X119016448Y-93736490D01*
X119349781Y-93355538D02*
X118349781Y-93355538D01*
X118825971Y-93355538D02*
X118825971Y-92784109D01*
X119349781Y-92784109D02*
X118349781Y-92784109D01*
X119254543Y-91736490D02*
X119302162Y-91784109D01*
X119349781Y-91926966D01*
X119349781Y-92022204D01*
X119302162Y-92165062D01*
X119206924Y-92260300D01*
X119111686Y-92307919D01*
X118921210Y-92355538D01*
X118778352Y-92355538D01*
X118587876Y-92307919D01*
X118492638Y-92260300D01*
X118397400Y-92165062D01*
X118349781Y-92022204D01*
X118349781Y-91926966D01*
X118397400Y-91784109D01*
X118445019Y-91736490D01*
X118445019Y-91355538D02*
X118397400Y-91307919D01*
X118349781Y-91212681D01*
X118349781Y-90974585D01*
X118397400Y-90879347D01*
X118445019Y-90831728D01*
X118540257Y-90784109D01*
X118635495Y-90784109D01*
X118778352Y-90831728D01*
X119349781Y-91403157D01*
X119349781Y-90784109D01*
X118445019Y-90403157D02*
X118397400Y-90355538D01*
X118349781Y-90260300D01*
X118349781Y-90022204D01*
X118397400Y-89926966D01*
X118445019Y-89879347D01*
X118540257Y-89831728D01*
X118635495Y-89831728D01*
X118778352Y-89879347D01*
X119349781Y-90450776D01*
X119349781Y-89831728D01*
X119349781Y-88879347D02*
X119349781Y-89450776D01*
X119349781Y-89165062D02*
X118349781Y-89165062D01*
X118492638Y-89260300D01*
X118587876Y-89355538D01*
X118635495Y-89450776D01*
X118349781Y-88260300D02*
X118349781Y-88165061D01*
X118397400Y-88069823D01*
X118445019Y-88022204D01*
X118540257Y-87974585D01*
X118730733Y-87926966D01*
X118968829Y-87926966D01*
X119159305Y-87974585D01*
X119254543Y-88022204D01*
X119302162Y-88069823D01*
X119349781Y-88165061D01*
X119349781Y-88260300D01*
X119302162Y-88355538D01*
X119254543Y-88403157D01*
X119159305Y-88450776D01*
X118968829Y-88498395D01*
X118730733Y-88498395D01*
X118540257Y-88450776D01*
X118445019Y-88403157D01*
X118397400Y-88355538D01*
X118349781Y-88260300D01*
X118349781Y-87069823D02*
X118349781Y-87260300D01*
X118397400Y-87355538D01*
X118445019Y-87403157D01*
X118587876Y-87498395D01*
X118778352Y-87546014D01*
X119159305Y-87546014D01*
X119254543Y-87498395D01*
X119302162Y-87450776D01*
X119349781Y-87355538D01*
X119349781Y-87165061D01*
X119302162Y-87069823D01*
X119254543Y-87022204D01*
X119159305Y-86974585D01*
X118921210Y-86974585D01*
X118825971Y-87022204D01*
X118778352Y-87069823D01*
X118730733Y-87165061D01*
X118730733Y-87355538D01*
X118778352Y-87450776D01*
X118825971Y-87498395D01*
X118921210Y-87546014D01*
X118302162Y-85831728D02*
X119587876Y-86688871D01*
X119349781Y-85498395D02*
X118349781Y-85498395D01*
X119064067Y-85165061D01*
X118349781Y-84831728D01*
X119349781Y-84831728D01*
X118349781Y-84498395D02*
X118349781Y-83926966D01*
X119349781Y-84212681D02*
X118349781Y-84212681D01*
X118778352Y-83450776D02*
X118730733Y-83546014D01*
X118683114Y-83593633D01*
X118587876Y-83641252D01*
X118540257Y-83641252D01*
X118445019Y-83593633D01*
X118397400Y-83546014D01*
X118349781Y-83450776D01*
X118349781Y-83260299D01*
X118397400Y-83165061D01*
X118445019Y-83117442D01*
X118540257Y-83069823D01*
X118587876Y-83069823D01*
X118683114Y-83117442D01*
X118730733Y-83165061D01*
X118778352Y-83260299D01*
X118778352Y-83450776D01*
X118825971Y-83546014D01*
X118873590Y-83593633D01*
X118968829Y-83641252D01*
X119159305Y-83641252D01*
X119254543Y-83593633D01*
X119302162Y-83546014D01*
X119349781Y-83450776D01*
X119349781Y-83260299D01*
X119302162Y-83165061D01*
X119254543Y-83117442D01*
X119159305Y-83069823D01*
X118968829Y-83069823D01*
X118873590Y-83117442D01*
X118825971Y-83165061D01*
X118778352Y-83260299D01*
X118778352Y-82498395D02*
X118730733Y-82593633D01*
X118683114Y-82641252D01*
X118587876Y-82688871D01*
X118540257Y-82688871D01*
X118445019Y-82641252D01*
X118397400Y-82593633D01*
X118349781Y-82498395D01*
X118349781Y-82307918D01*
X118397400Y-82212680D01*
X118445019Y-82165061D01*
X118540257Y-82117442D01*
X118587876Y-82117442D01*
X118683114Y-82165061D01*
X118730733Y-82212680D01*
X118778352Y-82307918D01*
X118778352Y-82498395D01*
X118825971Y-82593633D01*
X118873590Y-82641252D01*
X118968829Y-82688871D01*
X119159305Y-82688871D01*
X119254543Y-82641252D01*
X119302162Y-82593633D01*
X119349781Y-82498395D01*
X119349781Y-82307918D01*
X119302162Y-82212680D01*
X119254543Y-82165061D01*
X119159305Y-82117442D01*
X118968829Y-82117442D01*
X118873590Y-82165061D01*
X118825971Y-82212680D01*
X118778352Y-82307918D01*
X118349781Y-81498395D02*
X118349781Y-81403156D01*
X118397400Y-81307918D01*
X118445019Y-81260299D01*
X118540257Y-81212680D01*
X118730733Y-81165061D01*
X118968829Y-81165061D01*
X119159305Y-81212680D01*
X119254543Y-81260299D01*
X119302162Y-81307918D01*
X119349781Y-81403156D01*
X119349781Y-81498395D01*
X119302162Y-81593633D01*
X119254543Y-81641252D01*
X119159305Y-81688871D01*
X118968829Y-81736490D01*
X118730733Y-81736490D01*
X118540257Y-81688871D01*
X118445019Y-81641252D01*
X118397400Y-81593633D01*
X118349781Y-81498395D01*
X118778352Y-80593633D02*
X118730733Y-80688871D01*
X118683114Y-80736490D01*
X118587876Y-80784109D01*
X118540257Y-80784109D01*
X118445019Y-80736490D01*
X118397400Y-80688871D01*
X118349781Y-80593633D01*
X118349781Y-80403156D01*
X118397400Y-80307918D01*
X118445019Y-80260299D01*
X118540257Y-80212680D01*
X118587876Y-80212680D01*
X118683114Y-80260299D01*
X118730733Y-80307918D01*
X118778352Y-80403156D01*
X118778352Y-80593633D01*
X118825971Y-80688871D01*
X118873590Y-80736490D01*
X118968829Y-80784109D01*
X119159305Y-80784109D01*
X119254543Y-80736490D01*
X119302162Y-80688871D01*
X119349781Y-80593633D01*
X119349781Y-80403156D01*
X119302162Y-80307918D01*
X119254543Y-80260299D01*
X119159305Y-80212680D01*
X118968829Y-80212680D01*
X118873590Y-80260299D01*
X118825971Y-80307918D01*
X118778352Y-80403156D01*
X134762976Y-100544381D02*
X135429643Y-101544381D01*
X135429643Y-100544381D02*
X134762976Y-101544381D01*
X136334405Y-101544381D02*
X135762976Y-101544381D01*
X136048690Y-101544381D02*
X136048690Y-100544381D01*
X135953452Y-100687238D01*
X135858214Y-100782476D01*
X135762976Y-100830095D01*
X133920124Y-108224581D02*
X133348695Y-108224581D01*
X133634409Y-108224581D02*
X133634409Y-107224581D01*
X133539171Y-107367438D01*
X133443933Y-107462676D01*
X133348695Y-107510295D01*
X134777267Y-107224581D02*
X134586790Y-107224581D01*
X134491552Y-107272200D01*
X134443933Y-107319819D01*
X134348695Y-107462676D01*
X134301076Y-107653152D01*
X134301076Y-108034105D01*
X134348695Y-108129343D01*
X134396314Y-108176962D01*
X134491552Y-108224581D01*
X134682029Y-108224581D01*
X134777267Y-108176962D01*
X134824886Y-108129343D01*
X134872505Y-108034105D01*
X134872505Y-107796010D01*
X134824886Y-107700771D01*
X134777267Y-107653152D01*
X134682029Y-107605533D01*
X134491552Y-107605533D01*
X134396314Y-107653152D01*
X134348695Y-107700771D01*
X134301076Y-107796010D01*
X135301076Y-108224581D02*
X135301076Y-107224581D01*
X135634410Y-107938867D01*
X135967743Y-107224581D01*
X135967743Y-108224581D01*
X136443933Y-108224581D02*
X136443933Y-107224581D01*
X136443933Y-107700771D02*
X137015362Y-107700771D01*
X137015362Y-108224581D02*
X137015362Y-107224581D01*
X137396314Y-107557914D02*
X137920124Y-107557914D01*
X137396314Y-108224581D01*
X137920124Y-108224581D01*
D15*
X147653285Y-124288913D02*
X147653285Y-123656453D01*
X147894222Y-123656453D01*
X147954456Y-123686570D01*
X147984573Y-123716687D01*
X148014690Y-123776921D01*
X148014690Y-123867273D01*
X147984573Y-123927507D01*
X147954456Y-123957624D01*
X147894222Y-123987741D01*
X147653285Y-123987741D01*
X148556799Y-123867273D02*
X148556799Y-124288913D01*
X148406213Y-123626336D02*
X148255628Y-124078093D01*
X148647150Y-124078093D01*
X146659419Y-128322796D02*
X146749770Y-128352913D01*
X146900356Y-128352913D01*
X146960590Y-128322796D01*
X146990707Y-128292679D01*
X147020824Y-128232444D01*
X147020824Y-128172210D01*
X146990707Y-128111976D01*
X146960590Y-128081859D01*
X146900356Y-128051741D01*
X146779887Y-128021624D01*
X146719653Y-127991507D01*
X146689536Y-127961390D01*
X146659419Y-127901156D01*
X146659419Y-127840921D01*
X146689536Y-127780687D01*
X146719653Y-127750570D01*
X146779887Y-127720453D01*
X146930473Y-127720453D01*
X147020824Y-127750570D01*
X147291879Y-128021624D02*
X147502699Y-128021624D01*
X147593050Y-128352913D02*
X147291879Y-128352913D01*
X147291879Y-127720453D01*
X147593050Y-127720453D01*
X148225510Y-128352913D02*
X148014690Y-128051741D01*
X147864105Y-128352913D02*
X147864105Y-127720453D01*
X148105042Y-127720453D01*
X148165276Y-127750570D01*
X148195393Y-127780687D01*
X148225510Y-127840921D01*
X148225510Y-127931273D01*
X148195393Y-127991507D01*
X148165276Y-128021624D01*
X148105042Y-128051741D01*
X147864105Y-128051741D01*
X148496565Y-128352913D02*
X148496565Y-127720453D01*
X148767619Y-128172210D02*
X149068790Y-128172210D01*
X148707384Y-128352913D02*
X148918204Y-127720453D01*
X149129024Y-128352913D01*
X149641016Y-128352913D02*
X149339845Y-128352913D01*
X149339845Y-127720453D01*
X106949785Y-72993613D02*
X106949785Y-72361153D01*
X107190722Y-72361153D01*
X107250956Y-72391270D01*
X107281073Y-72421387D01*
X107311190Y-72481621D01*
X107311190Y-72571973D01*
X107281073Y-72632207D01*
X107250956Y-72662324D01*
X107190722Y-72692441D01*
X106949785Y-72692441D01*
X107913533Y-72993613D02*
X107552128Y-72993613D01*
X107732830Y-72993613D02*
X107732830Y-72361153D01*
X107672596Y-72451504D01*
X107612362Y-72511739D01*
X107552128Y-72541856D01*
X105572379Y-100717531D02*
X105602496Y-100747648D01*
X105632613Y-100837999D01*
X105632613Y-100898233D01*
X105602496Y-100988585D01*
X105542261Y-101048819D01*
X105482027Y-101078936D01*
X105361559Y-101109053D01*
X105271207Y-101109053D01*
X105150739Y-101078936D01*
X105090504Y-101048819D01*
X105030270Y-100988585D01*
X105000153Y-100898233D01*
X105000153Y-100837999D01*
X105030270Y-100747648D01*
X105060387Y-100717531D01*
X105000153Y-100326008D02*
X105000153Y-100205539D01*
X105030270Y-100145305D01*
X105090504Y-100085071D01*
X105210973Y-100054953D01*
X105421793Y-100054953D01*
X105542261Y-100085071D01*
X105602496Y-100145305D01*
X105632613Y-100205539D01*
X105632613Y-100326008D01*
X105602496Y-100386242D01*
X105542261Y-100446476D01*
X105421793Y-100476593D01*
X105210973Y-100476593D01*
X105090504Y-100446476D01*
X105030270Y-100386242D01*
X105000153Y-100326008D01*
X105632613Y-99783899D02*
X105000153Y-99783899D01*
X105451910Y-99573079D01*
X105000153Y-99362259D01*
X105632613Y-99362259D01*
X105632613Y-99061088D02*
X105000153Y-99061088D01*
X105000153Y-98820151D01*
X105030270Y-98759917D01*
X105060387Y-98729800D01*
X105120621Y-98699683D01*
X105210973Y-98699683D01*
X105271207Y-98729800D01*
X105301324Y-98759917D01*
X105331441Y-98820151D01*
X105331441Y-99061088D01*
X105000153Y-98428628D02*
X105512144Y-98428628D01*
X105572379Y-98398511D01*
X105602496Y-98368394D01*
X105632613Y-98308160D01*
X105632613Y-98187691D01*
X105602496Y-98127457D01*
X105572379Y-98097340D01*
X105512144Y-98067223D01*
X105000153Y-98067223D01*
X105000153Y-97856403D02*
X105000153Y-97494997D01*
X105632613Y-97675700D02*
X105000153Y-97675700D01*
X105301324Y-97284177D02*
X105301324Y-97073357D01*
X105632613Y-96983006D02*
X105632613Y-97284177D01*
X105000153Y-97284177D01*
X105000153Y-96983006D01*
X105632613Y-96350546D02*
X105331441Y-96561366D01*
X105632613Y-96711951D02*
X105000153Y-96711951D01*
X105000153Y-96471014D01*
X105030270Y-96410780D01*
X105060387Y-96380663D01*
X105120621Y-96350546D01*
X105210973Y-96350546D01*
X105271207Y-96380663D01*
X105301324Y-96410780D01*
X105331441Y-96471014D01*
X105331441Y-96711951D01*
X181422585Y-72980913D02*
X181422585Y-72348453D01*
X181663522Y-72348453D01*
X181723756Y-72378570D01*
X181753873Y-72408687D01*
X181783990Y-72468921D01*
X181783990Y-72559273D01*
X181753873Y-72619507D01*
X181723756Y-72649624D01*
X181663522Y-72679741D01*
X181422585Y-72679741D01*
X182024928Y-72408687D02*
X182055045Y-72378570D01*
X182115279Y-72348453D01*
X182265865Y-72348453D01*
X182326099Y-72378570D01*
X182356216Y-72408687D01*
X182386333Y-72468921D01*
X182386333Y-72529156D01*
X182356216Y-72619507D01*
X181994810Y-72980913D01*
X182386333Y-72980913D01*
X180105413Y-101003644D02*
X179472953Y-101003644D01*
X180105413Y-100642239D02*
X179744007Y-100913293D01*
X179472953Y-100642239D02*
X179834359Y-101003644D01*
X179774124Y-100371184D02*
X179774124Y-100160364D01*
X180105413Y-100070013D02*
X180105413Y-100371184D01*
X179472953Y-100371184D01*
X179472953Y-100070013D01*
X179804241Y-99678490D02*
X180105413Y-99678490D01*
X179472953Y-99889310D02*
X179804241Y-99678490D01*
X179472953Y-99467670D01*
X179774124Y-99046029D02*
X179804241Y-98955678D01*
X179834359Y-98925561D01*
X179894593Y-98895444D01*
X179984944Y-98895444D01*
X180045179Y-98925561D01*
X180075296Y-98955678D01*
X180105413Y-99015912D01*
X180105413Y-99256849D01*
X179472953Y-99256849D01*
X179472953Y-99046029D01*
X179503070Y-98985795D01*
X179533187Y-98955678D01*
X179593421Y-98925561D01*
X179653656Y-98925561D01*
X179713890Y-98955678D01*
X179744007Y-98985795D01*
X179774124Y-99046029D01*
X179774124Y-99256849D01*
X179472953Y-98503921D02*
X179472953Y-98383452D01*
X179503070Y-98323218D01*
X179563304Y-98262984D01*
X179683773Y-98232866D01*
X179894593Y-98232866D01*
X180015061Y-98262984D01*
X180075296Y-98323218D01*
X180105413Y-98383452D01*
X180105413Y-98503921D01*
X180075296Y-98564155D01*
X180015061Y-98624389D01*
X179894593Y-98654506D01*
X179683773Y-98654506D01*
X179563304Y-98624389D01*
X179503070Y-98564155D01*
X179472953Y-98503921D01*
X179924710Y-97991929D02*
X179924710Y-97690758D01*
X180105413Y-98052164D02*
X179472953Y-97841344D01*
X180105413Y-97630524D01*
X180105413Y-97058298D02*
X179804241Y-97269118D01*
X180105413Y-97419703D02*
X179472953Y-97419703D01*
X179472953Y-97178766D01*
X179503070Y-97118532D01*
X179533187Y-97088415D01*
X179593421Y-97058298D01*
X179683773Y-97058298D01*
X179744007Y-97088415D01*
X179774124Y-97118532D01*
X179804241Y-97178766D01*
X179804241Y-97419703D01*
X180105413Y-96787243D02*
X179472953Y-96787243D01*
X179472953Y-96636658D01*
X179503070Y-96546306D01*
X179563304Y-96486072D01*
X179623539Y-96455955D01*
X179744007Y-96425838D01*
X179834359Y-96425838D01*
X179954827Y-96455955D01*
X180015061Y-96486072D01*
X180075296Y-96546306D01*
X180105413Y-96636658D01*
X180105413Y-96787243D01*
D16*
X166521796Y-122963819D02*
X166521796Y-121947819D01*
X166908843Y-121947819D01*
X167005605Y-121996200D01*
X167053986Y-122044581D01*
X167102367Y-122141343D01*
X167102367Y-122286486D01*
X167053986Y-122383248D01*
X167005605Y-122431629D01*
X166908843Y-122480010D01*
X166521796Y-122480010D01*
X168021605Y-121947819D02*
X167537796Y-121947819D01*
X167489415Y-122431629D01*
X167537796Y-122383248D01*
X167634558Y-122334867D01*
X167876462Y-122334867D01*
X167973224Y-122383248D01*
X168021605Y-122431629D01*
X168069986Y-122528390D01*
X168069986Y-122770295D01*
X168021605Y-122867057D01*
X167973224Y-122915438D01*
X167876462Y-122963819D01*
X167634558Y-122963819D01*
X167537796Y-122915438D01*
X167489415Y-122867057D01*
X164683319Y-129572657D02*
X164634938Y-129621038D01*
X164489795Y-129669419D01*
X164393033Y-129669419D01*
X164247891Y-129621038D01*
X164151129Y-129524276D01*
X164102748Y-129427514D01*
X164054367Y-129233990D01*
X164054367Y-129088848D01*
X164102748Y-128895324D01*
X164151129Y-128798562D01*
X164247891Y-128701800D01*
X164393033Y-128653419D01*
X164489795Y-128653419D01*
X164634938Y-128701800D01*
X164683319Y-128750181D01*
X165312272Y-128653419D02*
X165505795Y-128653419D01*
X165602557Y-128701800D01*
X165699319Y-128798562D01*
X165747700Y-128992086D01*
X165747700Y-129330752D01*
X165699319Y-129524276D01*
X165602557Y-129621038D01*
X165505795Y-129669419D01*
X165312272Y-129669419D01*
X165215510Y-129621038D01*
X165118748Y-129524276D01*
X165070367Y-129330752D01*
X165070367Y-128992086D01*
X165118748Y-128798562D01*
X165215510Y-128701800D01*
X165312272Y-128653419D01*
X166183129Y-129669419D02*
X166183129Y-128653419D01*
X166763700Y-129669419D01*
X166763700Y-128653419D01*
X167102367Y-128653419D02*
X167682938Y-128653419D01*
X167392653Y-129669419D02*
X167392653Y-128653419D01*
X168602176Y-129669419D02*
X168263510Y-129185610D01*
X168021605Y-129669419D02*
X168021605Y-128653419D01*
X168408652Y-128653419D01*
X168505414Y-128701800D01*
X168553795Y-128750181D01*
X168602176Y-128846943D01*
X168602176Y-128992086D01*
X168553795Y-129088848D01*
X168505414Y-129137229D01*
X168408652Y-129185610D01*
X168021605Y-129185610D01*
X169231129Y-128653419D02*
X169424652Y-128653419D01*
X169521414Y-128701800D01*
X169618176Y-128798562D01*
X169666557Y-128992086D01*
X169666557Y-129330752D01*
X169618176Y-129524276D01*
X169521414Y-129621038D01*
X169424652Y-129669419D01*
X169231129Y-129669419D01*
X169134367Y-129621038D01*
X169037605Y-129524276D01*
X168989224Y-129330752D01*
X168989224Y-128992086D01*
X169037605Y-128798562D01*
X169134367Y-128701800D01*
X169231129Y-128653419D01*
X170585795Y-129669419D02*
X170101986Y-129669419D01*
X170101986Y-128653419D01*
D15*
X118927881Y-125955153D02*
X118927881Y-126406910D01*
X118897763Y-126497261D01*
X118837529Y-126557496D01*
X118747178Y-126587613D01*
X118686943Y-126587613D01*
X119560340Y-126587613D02*
X119198935Y-126587613D01*
X119379637Y-126587613D02*
X119379637Y-125955153D01*
X119319403Y-126045504D01*
X119259169Y-126105739D01*
X119198935Y-126135856D01*
X117678019Y-130321413D02*
X117678019Y-129688953D01*
X117918956Y-129688953D01*
X117979190Y-129719070D01*
X118009307Y-129749187D01*
X118039424Y-129809421D01*
X118039424Y-129899773D01*
X118009307Y-129960007D01*
X117979190Y-129990124D01*
X117918956Y-130020241D01*
X117678019Y-130020241D01*
X118430947Y-129688953D02*
X118551416Y-129688953D01*
X118611650Y-129719070D01*
X118671884Y-129779304D01*
X118702002Y-129899773D01*
X118702002Y-130110593D01*
X118671884Y-130231061D01*
X118611650Y-130291296D01*
X118551416Y-130321413D01*
X118430947Y-130321413D01*
X118370713Y-130291296D01*
X118310479Y-130231061D01*
X118280362Y-130110593D01*
X118280362Y-129899773D01*
X118310479Y-129779304D01*
X118370713Y-129719070D01*
X118430947Y-129688953D01*
X118912821Y-129688953D02*
X119063407Y-130321413D01*
X119183876Y-129869656D01*
X119304344Y-130321413D01*
X119454930Y-129688953D01*
X119695867Y-129990124D02*
X119906687Y-129990124D01*
X119997038Y-130321413D02*
X119695867Y-130321413D01*
X119695867Y-129688953D01*
X119997038Y-129688953D01*
X120629498Y-130321413D02*
X120418678Y-130020241D01*
X120268093Y-130321413D02*
X120268093Y-129688953D01*
X120509030Y-129688953D01*
X120569264Y-129719070D01*
X120599381Y-129749187D01*
X120629498Y-129809421D01*
X120629498Y-129899773D01*
X120599381Y-129960007D01*
X120569264Y-129990124D01*
X120509030Y-130020241D01*
X120268093Y-130020241D01*
D17*
X129513853Y-113687990D02*
X129513853Y-113187990D01*
X129632900Y-113187990D01*
X129704329Y-113211800D01*
X129751948Y-113259419D01*
X129775757Y-113307038D01*
X129799567Y-113402276D01*
X129799567Y-113473705D01*
X129775757Y-113568943D01*
X129751948Y-113616562D01*
X129704329Y-113664181D01*
X129632900Y-113687990D01*
X129513853Y-113687990D01*
X130275757Y-113687990D02*
X129990043Y-113687990D01*
X130132900Y-113687990D02*
X130132900Y-113187990D01*
X130085281Y-113259419D01*
X130037662Y-113307038D01*
X129990043Y-113330848D01*
X135876553Y-113700690D02*
X135876553Y-113200690D01*
X135995600Y-113200690D01*
X136067029Y-113224500D01*
X136114648Y-113272119D01*
X136138457Y-113319738D01*
X136162267Y-113414976D01*
X136162267Y-113486405D01*
X136138457Y-113581643D01*
X136114648Y-113629262D01*
X136067029Y-113676881D01*
X135995600Y-113700690D01*
X135876553Y-113700690D01*
X136352743Y-113248310D02*
X136376553Y-113224500D01*
X136424172Y-113200690D01*
X136543219Y-113200690D01*
X136590838Y-113224500D01*
X136614648Y-113248310D01*
X136638457Y-113295929D01*
X136638457Y-113343548D01*
X136614648Y-113414976D01*
X136328934Y-113700690D01*
X136638457Y-113700690D01*
%LPC*%
D18*
X164414200Y-69176900D03*
D19*
X161914200Y-69176900D03*
D18*
X130390900Y-99568000D03*
D19*
X130390900Y-97068000D03*
D18*
X130390900Y-105105200D03*
D19*
X130390900Y-102605200D03*
D18*
X112433100Y-116840000D03*
D19*
X112433100Y-119340000D03*
D18*
X117805200Y-124129800D03*
D19*
X120305200Y-124129800D03*
D18*
X175285400Y-69176900D03*
D19*
X172785400Y-69176900D03*
D18*
X164414200Y-95821500D03*
D19*
X161914200Y-95821500D03*
D18*
X175348900Y-95859600D03*
D19*
X172848900Y-95859600D03*
D18*
X120256300Y-109410500D03*
D19*
X117756300Y-109410500D03*
D18*
X130390900Y-93840300D03*
D19*
X130390900Y-91340300D03*
D18*
X136842500Y-93281500D03*
D19*
X134342500Y-93281500D03*
D20*
X140322000Y-71843900D03*
D21*
X140322000Y-74383900D03*
X140322000Y-76923900D03*
X140322000Y-79463900D03*
X140322000Y-82003900D03*
X140322000Y-84543900D03*
X140322000Y-87083900D03*
X140322000Y-89623900D03*
X140322000Y-92163900D03*
X140322000Y-94703900D03*
X140322000Y-97243900D03*
X140322000Y-99783900D03*
X140322000Y-102323900D03*
X140322000Y-104863900D03*
X140322000Y-107403900D03*
X140322000Y-109943900D03*
X140322000Y-112483900D03*
X140322000Y-115023900D03*
X140322000Y-117563900D03*
X140322000Y-120103900D03*
X155562000Y-120103900D03*
X155562000Y-117563900D03*
X155562000Y-115023900D03*
X155562000Y-112483900D03*
X155562000Y-109943900D03*
X155562000Y-107403900D03*
X155562000Y-104863900D03*
X155562000Y-102323900D03*
X155562000Y-99783900D03*
X155562000Y-97243900D03*
X155562000Y-94703900D03*
X155562000Y-92163900D03*
X155562000Y-89623900D03*
X155562000Y-87083900D03*
X155562000Y-84543900D03*
X155562000Y-82003900D03*
X155562000Y-79463900D03*
X155562000Y-76923900D03*
X155562000Y-74383900D03*
X155562000Y-71843900D03*
D22*
X137114000Y-128294000D03*
X129814000Y-128294000D03*
D23*
X134264000Y-124444000D03*
X132664000Y-124444000D03*
X135064000Y-123244000D03*
X133464000Y-123244000D03*
X131864000Y-123244000D03*
D21*
X127635000Y-111633000D03*
X130175000Y-111633000D03*
X131153000Y-117805000D03*
X131153000Y-120345000D03*
X134976000Y-117792000D03*
X134976000Y-120332000D03*
X137198000Y-69469000D03*
X137198000Y-74549000D03*
X129578000Y-69469000D03*
X129578000Y-74549000D03*
X137198000Y-80162400D03*
X137198000Y-85242400D03*
X129578000Y-80162400D03*
X129578000Y-85242400D03*
D20*
X159322000Y-73342500D03*
D21*
X159322000Y-75882500D03*
X159322000Y-78422500D03*
X159322000Y-80962500D03*
X159322000Y-83502500D03*
X159322000Y-86042500D03*
X159322000Y-88582500D03*
X166942000Y-88582500D03*
X166942000Y-86042500D03*
X166942000Y-83502500D03*
X166942000Y-80962500D03*
X166942000Y-78422500D03*
X166942000Y-75882500D03*
X166942000Y-73342500D03*
D20*
X115252000Y-113030000D03*
D21*
X115252000Y-115570000D03*
X115252000Y-118110000D03*
X115252000Y-120650000D03*
X122872000Y-120650000D03*
X122872000Y-118110000D03*
X122872000Y-115570000D03*
X122872000Y-113030000D03*
D20*
X159347000Y-99974000D03*
D21*
X159347000Y-102514000D03*
X159347000Y-105054000D03*
X159347000Y-107594000D03*
X159347000Y-110134000D03*
X159347000Y-112674000D03*
X159347000Y-115214000D03*
X159347000Y-117754000D03*
X166967000Y-117754000D03*
X166967000Y-115214000D03*
X166967000Y-112674000D03*
X166967000Y-110134000D03*
X166967000Y-107594000D03*
X166967000Y-105054000D03*
X166967000Y-102514000D03*
X166967000Y-99974000D03*
D20*
X170218000Y-73355200D03*
D21*
X170218000Y-75895200D03*
X170218000Y-78435200D03*
X170218000Y-80975200D03*
X170218000Y-83515200D03*
X170218000Y-86055200D03*
X170218000Y-88595200D03*
X170218000Y-91135200D03*
X177838000Y-91135200D03*
X177838000Y-88595200D03*
X177838000Y-86055200D03*
X177838000Y-83515200D03*
X177838000Y-80975200D03*
X177838000Y-78435200D03*
X177838000Y-75895200D03*
X177838000Y-73355200D03*
D20*
X170307000Y-99962000D03*
D21*
X170307000Y-102502000D03*
X170307000Y-105042000D03*
X170307000Y-107582000D03*
X170307000Y-110122000D03*
X170307000Y-112662000D03*
X170307000Y-115202000D03*
X170307000Y-117742000D03*
X177927000Y-117742000D03*
X177927000Y-115202000D03*
X177927000Y-112662000D03*
X177927000Y-110122000D03*
X177927000Y-107582000D03*
X177927000Y-105042000D03*
X177927000Y-102502000D03*
X177927000Y-99962000D03*
D20*
X111277000Y-72237600D03*
D21*
X111277000Y-74777600D03*
X111277000Y-77317600D03*
X111277000Y-79857600D03*
X111277000Y-82397600D03*
X111277000Y-84937600D03*
X111277000Y-87477600D03*
X111277000Y-90017600D03*
X111277000Y-92557600D03*
X111277000Y-95097600D03*
X111277000Y-97637600D03*
X111277000Y-100177600D03*
X111277000Y-102717600D03*
X111277000Y-105257600D03*
X126517000Y-105257600D03*
X126517000Y-102717600D03*
X126517000Y-100177600D03*
X126517000Y-97637600D03*
X126517000Y-95097600D03*
X126517000Y-92557600D03*
X126517000Y-90017600D03*
X126517000Y-87477600D03*
X126517000Y-84937600D03*
X126517000Y-82397600D03*
X126517000Y-79857600D03*
X126517000Y-77317600D03*
X126517000Y-74777600D03*
X126517000Y-72237600D03*
D24*
X135572000Y-103632000D03*
X135572000Y-98552000D03*
D25*
X149390100Y-126034800D03*
D26*
X146850100Y-126034800D03*
D25*
X107378500Y-122859800D03*
D26*
X107378500Y-120319800D03*
X107378500Y-117779800D03*
X107378500Y-115239800D03*
X107378500Y-112699800D03*
X107378500Y-110159800D03*
X107378500Y-107619800D03*
X107378500Y-105079800D03*
X107378500Y-102539800D03*
X107378500Y-99999800D03*
X107378500Y-97459800D03*
X107378500Y-94919800D03*
X107378500Y-92379800D03*
X107378500Y-89839800D03*
X107378500Y-87299800D03*
X107378500Y-84759800D03*
X107378500Y-82219800D03*
X107378500Y-79679800D03*
X107378500Y-77139800D03*
X107378500Y-74599800D03*
D25*
X181851300Y-122859800D03*
D26*
X181851300Y-120319800D03*
X181851300Y-117779800D03*
X181851300Y-115239800D03*
X181851300Y-112699800D03*
X181851300Y-110159800D03*
X181851300Y-107619800D03*
X181851300Y-105079800D03*
X181851300Y-102539800D03*
X181851300Y-99999800D03*
X181851300Y-97459800D03*
X181851300Y-94919800D03*
X181851300Y-92379800D03*
X181851300Y-89839800D03*
X181851300Y-87299800D03*
X181851300Y-84759800D03*
X181851300Y-82219800D03*
X181851300Y-79679800D03*
X181851300Y-77139800D03*
X181851300Y-74599800D03*
D25*
X176174400Y-124536200D03*
D26*
X176174400Y-127076200D03*
X173634400Y-124536200D03*
X173634400Y-127076200D03*
X171094400Y-124536200D03*
X171094400Y-127076200D03*
X168554400Y-124536200D03*
X168554400Y-127076200D03*
X166014400Y-124536200D03*
X166014400Y-127076200D03*
X163474400Y-124536200D03*
X163474400Y-127076200D03*
X160934400Y-124536200D03*
X160934400Y-127076200D03*
X158394400Y-124536200D03*
X158394400Y-127076200D03*
D25*
X116598700Y-128168400D03*
D26*
X119138700Y-128168400D03*
X121678700Y-128168400D03*
D21*
X131152900Y-115036600D03*
X128612900Y-115036600D03*
X134975600Y-115049300D03*
X137515600Y-115049300D03*
M02*
