M48
;DRILL file {KiCad 4.0.3-stable} date 08/24/16 11:57:03
;FORMAT={-:-/ absolute / inch / decimal}
FMAT,2
INCH,TZ
T1C0.015
T2C0.028
T3C0.030
T4C0.031
T5C0.032
T6C0.032
T7C0.039
T8C0.040
T9C0.157
%
G90
G05
M72
T1
X4.2897Y-4.3476
X4.4256Y-4.3894
X4.4528Y-3.7468
X4.5106Y-4.3025
X4.584Y-3.6576
X4.6Y-4.57
X4.6234Y-3.4422
X4.6588Y-4.9356
X4.95Y-4.92
X4.9776Y-4.2114
X5.31Y-3.215
X5.43Y-2.908
X5.446Y-2.836
X5.61Y-3.881
X5.949Y-4.728
X6.354Y-4.074
X6.9169Y-4.138
T2
X5.217Y-4.8412
X5.2485Y-4.8884
X5.28Y-4.8412
X5.3115Y-4.8884
X5.343Y-4.8412
T3
X5.3375Y-3.88
X5.3375Y-4.08
T4
X5.1335Y-3.6945
X5.1335Y-3.92
X5.1335Y-4.138
X5.3875Y-3.6725
X6.473Y-2.7235
X6.473Y-3.7725
X6.901Y-2.7235
X6.9035Y-3.774
T5
X5.1335Y-3.5961
X5.1335Y-3.8216
X5.1335Y-4.0396
X5.2891Y-3.6725
X6.3746Y-2.7235
X6.3746Y-3.7725
X6.8026Y-2.7235
X6.8051Y-3.774
T6
X4.381Y-2.844
X4.381Y-2.944
X4.381Y-3.044
X4.381Y-3.144
X4.381Y-3.244
X4.381Y-3.344
X4.381Y-3.444
X4.381Y-3.544
X4.381Y-3.644
X4.381Y-3.744
X4.381Y-3.844
X4.381Y-3.944
X4.381Y-4.044
X4.381Y-4.144
X4.42Y-4.46
X4.42Y-4.56
X4.42Y-4.66
X4.42Y-4.76
X4.52Y-4.36
X4.52Y-4.46
X4.52Y-4.56
X4.52Y-4.66
X4.52Y-4.76
X4.52Y-4.86
X4.62Y-4.36
X4.62Y-4.46
X4.62Y-4.76
X4.62Y-4.86
X4.72Y-4.36
X4.72Y-4.46
X4.72Y-4.76
X4.72Y-4.86
X4.82Y-4.36
X4.82Y-4.46
X4.82Y-4.56
X4.82Y-4.66
X4.82Y-4.76
X4.82Y-4.86
X4.92Y-4.46
X4.92Y-4.56
X4.92Y-4.66
X4.92Y-4.76
X4.981Y-2.844
X4.981Y-2.944
X4.981Y-3.044
X4.981Y-3.144
X4.981Y-3.244
X4.981Y-3.344
X4.981Y-3.444
X4.981Y-3.544
X4.981Y-3.644
X4.981Y-3.744
X4.981Y-3.844
X4.981Y-3.944
X4.981Y-4.044
X4.981Y-4.144
X5.11Y-4.43
X5.11Y-4.73
X5.115Y-4.335
X5.215Y-4.43
X5.215Y-4.73
X5.315Y-4.43
X5.315Y-4.73
X5.415Y-4.335
X5.42Y-4.43
X5.42Y-4.73
X5.5245Y-2.8285
X5.5245Y-2.9285
X5.5245Y-3.0285
X5.5245Y-3.1285
X5.5245Y-3.2285
X5.5245Y-3.3285
X5.5245Y-3.4285
X5.5245Y-3.5285
X5.5245Y-3.6285
X5.5245Y-3.7285
X5.5245Y-3.8285
X5.5245Y-3.9285
X5.5245Y-4.0285
X5.5245Y-4.1285
X5.5245Y-4.2285
X5.5245Y-4.3285
X5.5245Y-4.4285
X5.5245Y-4.5285
X5.5245Y-4.6285
X5.5245Y-4.7285
X6.1245Y-2.8285
X6.1245Y-2.9285
X6.1245Y-3.0285
X6.1245Y-3.1285
X6.1245Y-3.2285
X6.1245Y-3.3285
X6.1245Y-3.4285
X6.1245Y-3.5285
X6.1245Y-3.6285
X6.1245Y-3.7285
X6.1245Y-3.8285
X6.1245Y-3.9285
X6.1245Y-4.0285
X6.1245Y-4.1285
X6.1245Y-4.2285
X6.1245Y-4.3285
X6.1245Y-4.4285
X6.1245Y-4.5285
X6.1245Y-4.6285
X6.1245Y-4.7285
X6.2725Y-2.8875
X6.2725Y-2.9875
X6.2725Y-3.0875
X6.2725Y-3.1875
X6.2725Y-3.2875
X6.2725Y-3.3875
X6.2725Y-3.4875
X6.2735Y-3.936
X6.2735Y-4.036
X6.2735Y-4.136
X6.2735Y-4.236
X6.2735Y-4.336
X6.2735Y-4.436
X6.2735Y-4.536
X6.2735Y-4.636
X6.5725Y-2.8875
X6.5725Y-2.9875
X6.5725Y-3.0875
X6.5725Y-3.1875
X6.5725Y-3.2875
X6.5725Y-3.3875
X6.5725Y-3.4875
X6.5735Y-3.936
X6.5735Y-4.036
X6.5735Y-4.136
X6.5735Y-4.236
X6.5735Y-4.336
X6.5735Y-4.436
X6.5735Y-4.536
X6.5735Y-4.636
X6.7015Y-2.888
X6.7015Y-2.988
X6.7015Y-3.088
X6.7015Y-3.188
X6.7015Y-3.288
X6.7015Y-3.388
X6.7015Y-3.488
X6.7015Y-3.588
X6.705Y-3.9355
X6.705Y-4.0355
X6.705Y-4.1355
X6.705Y-4.2355
X6.705Y-4.3355
X6.705Y-4.4355
X6.705Y-4.5355
X6.705Y-4.6355
X7.0015Y-2.888
X7.0015Y-2.988
X7.0015Y-3.088
X7.0015Y-3.188
X7.0015Y-3.288
X7.0015Y-3.388
X7.0015Y-3.488
X7.0015Y-3.588
X7.005Y-3.9355
X7.005Y-4.0355
X7.005Y-4.1355
X7.005Y-4.2355
X7.005Y-4.3355
X7.005Y-4.4355
X7.005Y-4.5355
X7.005Y-4.6355
T7
X5.12Y-2.7628
X5.12Y-2.94
X5.12Y-3.1528
X5.12Y-3.33
X5.3759Y-2.7628
X5.3759Y-2.94
X5.3759Y-3.1528
X5.3759Y-3.33
T8
X4.2275Y-2.937
X4.2275Y-3.037
X4.2275Y-3.137
X4.2275Y-3.237
X4.2275Y-3.337
X4.2275Y-3.437
X4.2275Y-3.537
X4.2275Y-3.637
X4.2275Y-3.737
X4.2275Y-3.837
X4.2275Y-3.937
X4.2275Y-4.037
X4.2275Y-4.137
X4.2275Y-4.237
X4.2275Y-4.337
X4.2275Y-4.437
X4.2275Y-4.537
X4.2275Y-4.637
X4.2275Y-4.837
X4.57Y-5.045
X4.67Y-5.045
X4.77Y-5.045
X5.78Y-5.045
X5.88Y-5.045
X6.236Y-4.903
X6.236Y-5.003
X6.336Y-4.903
X6.336Y-5.003
X6.436Y-4.903
X6.436Y-5.003
X6.536Y-4.903
X6.536Y-5.003
X6.636Y-4.903
X6.636Y-5.003
X6.736Y-4.903
X6.736Y-5.003
X6.836Y-4.903
X6.836Y-5.003
X6.936Y-4.903
X6.936Y-5.003
X7.1595Y-2.937
X7.1595Y-3.037
X7.1595Y-3.137
X7.1595Y-3.237
X7.1595Y-3.337
X7.1595Y-3.437
X7.1595Y-3.537
X7.1595Y-3.637
X7.1595Y-3.737
X7.1595Y-3.837
X7.1595Y-3.937
X7.1595Y-4.037
X7.1595Y-4.137
X7.1595Y-4.237
X7.1595Y-4.337
X7.1595Y-4.437
X7.1595Y-4.537
X7.1595Y-4.637
X7.1595Y-4.837
T9
X4.2438Y-2.7378
X4.2438Y-5.0357
X7.1432Y-5.0357
X7.1442Y-2.7378
T2
X5.1363Y-5.0164G85X5.1363Y-5.0636
G05
X5.4237Y-5.0164G85X5.4237Y-5.0636
G05
T0
M30
