G04 #@! TF.FileFunction,Legend,Top*
%FSLAX46Y46*%
G04 Gerber Fmt 4.6, Leading zero omitted, Abs format (unit mm)*
G04 Created by KiCad (PCBNEW 4.0.0-rc2-stable) date 30.05.2016 17:35:35*
%MOMM*%
G01*
G04 APERTURE LIST*
%ADD10C,0.150000*%
%ADD11C,0.149860*%
%ADD12C,0.304800*%
%ADD13C,0.203200*%
%ADD14C,0.157480*%
%ADD15R,1.300000X1.300000*%
%ADD16C,1.300000*%
%ADD17R,1.397000X1.397000*%
%ADD18C,1.397000*%
%ADD19O,1.100000X2.300000*%
%ADD20C,1.000000*%
%ADD21C,1.422400*%
%ADD22R,1.524000X1.524000*%
%ADD23C,1.524000*%
%ADD24C,4.000000*%
G04 APERTURE END LIST*
D10*
X179492714Y-74485429D02*
X179457000Y-74449715D01*
X179421286Y-74378286D01*
X179421286Y-74199715D01*
X179457000Y-74128286D01*
X179492714Y-74092572D01*
X179564143Y-74056857D01*
X179635571Y-74056857D01*
X179742714Y-74092572D01*
X180171286Y-74521143D01*
X180171286Y-74056857D01*
X179421286Y-73592571D02*
X179421286Y-73521143D01*
X179457000Y-73449714D01*
X179492714Y-73414000D01*
X179564143Y-73378286D01*
X179707000Y-73342571D01*
X179885571Y-73342571D01*
X180028429Y-73378286D01*
X180099857Y-73414000D01*
X180135571Y-73449714D01*
X180171286Y-73521143D01*
X180171286Y-73592571D01*
X180135571Y-73664000D01*
X180099857Y-73699714D01*
X180028429Y-73735429D01*
X179885571Y-73771143D01*
X179707000Y-73771143D01*
X179564143Y-73735429D01*
X179492714Y-73699714D01*
X179457000Y-73664000D01*
X179421286Y-73592571D01*
X180171286Y-123737714D02*
X180171286Y-124166286D01*
X180171286Y-123952000D02*
X179421286Y-123952000D01*
X179528429Y-124023429D01*
X179599857Y-124094857D01*
X179635571Y-124166286D01*
X105070714Y-74485429D02*
X105035000Y-74449715D01*
X104999286Y-74378286D01*
X104999286Y-74199715D01*
X105035000Y-74128286D01*
X105070714Y-74092572D01*
X105142143Y-74056857D01*
X105213571Y-74056857D01*
X105320714Y-74092572D01*
X105749286Y-74521143D01*
X105749286Y-74056857D01*
X104999286Y-73592571D02*
X104999286Y-73521143D01*
X105035000Y-73449714D01*
X105070714Y-73414000D01*
X105142143Y-73378286D01*
X105285000Y-73342571D01*
X105463571Y-73342571D01*
X105606429Y-73378286D01*
X105677857Y-73414000D01*
X105713571Y-73449714D01*
X105749286Y-73521143D01*
X105749286Y-73592571D01*
X105713571Y-73664000D01*
X105677857Y-73699714D01*
X105606429Y-73735429D01*
X105463571Y-73771143D01*
X105285000Y-73771143D01*
X105142143Y-73735429D01*
X105070714Y-73699714D01*
X105035000Y-73664000D01*
X104999286Y-73592571D01*
X105749286Y-123737714D02*
X105749286Y-124166286D01*
X105749286Y-123952000D02*
X104999286Y-123952000D01*
X105106429Y-124023429D01*
X105177857Y-124094857D01*
X105213571Y-124166286D01*
X151224200Y-126374086D02*
X151224200Y-125624086D01*
X151402772Y-125624086D01*
X151509915Y-125659800D01*
X151581343Y-125731229D01*
X151617058Y-125802657D01*
X151652772Y-125945514D01*
X151652772Y-126052657D01*
X151617058Y-126195514D01*
X151581343Y-126266943D01*
X151509915Y-126338371D01*
X151402772Y-126374086D01*
X151224200Y-126374086D01*
X151938486Y-126159800D02*
X152295629Y-126159800D01*
X151867058Y-126374086D02*
X152117058Y-125624086D01*
X152367058Y-126374086D01*
X152509915Y-125624086D02*
X152938486Y-125624086D01*
X152724200Y-126374086D02*
X152724200Y-125624086D01*
X153152772Y-126159800D02*
X153509915Y-126159800D01*
X153081344Y-126374086D02*
X153331344Y-125624086D01*
X153581344Y-126374086D01*
X143520772Y-126353457D02*
X143485058Y-126389171D01*
X143377915Y-126424886D01*
X143306486Y-126424886D01*
X143199343Y-126389171D01*
X143127915Y-126317743D01*
X143092200Y-126246314D01*
X143056486Y-126103457D01*
X143056486Y-125996314D01*
X143092200Y-125853457D01*
X143127915Y-125782029D01*
X143199343Y-125710600D01*
X143306486Y-125674886D01*
X143377915Y-125674886D01*
X143485058Y-125710600D01*
X143520772Y-125746314D01*
X144199343Y-126424886D02*
X143842200Y-126424886D01*
X143842200Y-125674886D01*
X144449343Y-126424886D02*
X144449343Y-125674886D01*
X144877915Y-126424886D02*
X144556486Y-125996314D01*
X144877915Y-125674886D02*
X144449343Y-126103457D01*
X142913629Y-125545600D02*
X145020772Y-125545600D01*
X175999781Y-128611381D02*
X176095020Y-128611381D01*
X176190258Y-128659000D01*
X176237877Y-128706619D01*
X176285496Y-128801857D01*
X176333115Y-128992333D01*
X176333115Y-129230429D01*
X176285496Y-129420905D01*
X176237877Y-129516143D01*
X176190258Y-129563762D01*
X176095020Y-129611381D01*
X175999781Y-129611381D01*
X175904543Y-129563762D01*
X175856924Y-129516143D01*
X175809305Y-129420905D01*
X175761686Y-129230429D01*
X175761686Y-128992333D01*
X175809305Y-128801857D01*
X175856924Y-128706619D01*
X175904543Y-128659000D01*
X175999781Y-128611381D01*
X157946767Y-128725681D02*
X158613434Y-128725681D01*
X158184862Y-129725681D01*
X178138129Y-127030171D02*
X178280986Y-127077790D01*
X178328605Y-127125410D01*
X178376224Y-127220648D01*
X178376224Y-127363505D01*
X178328605Y-127458743D01*
X178280986Y-127506362D01*
X178185748Y-127553981D01*
X177804795Y-127553981D01*
X177804795Y-126553981D01*
X178138129Y-126553981D01*
X178233367Y-126601600D01*
X178280986Y-126649219D01*
X178328605Y-126744457D01*
X178328605Y-126839695D01*
X178280986Y-126934933D01*
X178233367Y-126982552D01*
X178138129Y-127030171D01*
X177804795Y-127030171D01*
X177790505Y-124664767D02*
X178266696Y-124664767D01*
X177695267Y-124950481D02*
X178028600Y-123950481D01*
X178361934Y-124950481D01*
X114333899Y-67823986D02*
X114333899Y-67073986D01*
X114762471Y-67823986D02*
X114441042Y-67395414D01*
X114762471Y-67073986D02*
X114333899Y-67502557D01*
X115369614Y-67788271D02*
X115298185Y-67823986D01*
X115155328Y-67823986D01*
X115083899Y-67788271D01*
X115048185Y-67716843D01*
X115048185Y-67431129D01*
X115083899Y-67359700D01*
X115155328Y-67323986D01*
X115298185Y-67323986D01*
X115369614Y-67359700D01*
X115405328Y-67431129D01*
X115405328Y-67502557D01*
X115048185Y-67573986D01*
X115655328Y-67323986D02*
X115833899Y-67823986D01*
X116012471Y-67323986D02*
X115833899Y-67823986D01*
X115762471Y-68002557D01*
X115726756Y-68038271D01*
X115655328Y-68073986D01*
X116298185Y-67823986D02*
X116298185Y-67323986D01*
X116298185Y-67395414D02*
X116333900Y-67359700D01*
X116405328Y-67323986D01*
X116512471Y-67323986D01*
X116583900Y-67359700D01*
X116619614Y-67431129D01*
X116619614Y-67823986D01*
X116619614Y-67431129D02*
X116655328Y-67359700D01*
X116726757Y-67323986D01*
X116833900Y-67323986D01*
X116905328Y-67359700D01*
X116941043Y-67431129D01*
X116941043Y-67823986D01*
X117619614Y-67823986D02*
X117619614Y-67431129D01*
X117583900Y-67359700D01*
X117512471Y-67323986D01*
X117369614Y-67323986D01*
X117298185Y-67359700D01*
X117619614Y-67788271D02*
X117548185Y-67823986D01*
X117369614Y-67823986D01*
X117298185Y-67788271D01*
X117262471Y-67716843D01*
X117262471Y-67645414D01*
X117298185Y-67573986D01*
X117369614Y-67538271D01*
X117548185Y-67538271D01*
X117619614Y-67502557D01*
X117976756Y-67323986D02*
X117976756Y-67823986D01*
X117976756Y-67395414D02*
X118012471Y-67359700D01*
X118083899Y-67323986D01*
X118191042Y-67323986D01*
X118262471Y-67359700D01*
X118298185Y-67431129D01*
X118298185Y-67823986D01*
X118976756Y-67073986D02*
X118833899Y-67073986D01*
X118762470Y-67109700D01*
X118726756Y-67145414D01*
X118655327Y-67252557D01*
X118619613Y-67395414D01*
X118619613Y-67681129D01*
X118655327Y-67752557D01*
X118691042Y-67788271D01*
X118762470Y-67823986D01*
X118905327Y-67823986D01*
X118976756Y-67788271D01*
X119012470Y-67752557D01*
X119048185Y-67681129D01*
X119048185Y-67502557D01*
X119012470Y-67431129D01*
X118976756Y-67395414D01*
X118905327Y-67359700D01*
X118762470Y-67359700D01*
X118691042Y-67395414D01*
X118655327Y-67431129D01*
X118619613Y-67502557D01*
X119691042Y-67323986D02*
X119691042Y-67823986D01*
X119512471Y-67038271D02*
X119333899Y-67573986D01*
X119798185Y-67573986D01*
X121083900Y-67823986D02*
X120833900Y-67466843D01*
X120655328Y-67823986D02*
X120655328Y-67073986D01*
X120941043Y-67073986D01*
X121012471Y-67109700D01*
X121048186Y-67145414D01*
X121083900Y-67216843D01*
X121083900Y-67323986D01*
X121048186Y-67395414D01*
X121012471Y-67431129D01*
X120941043Y-67466843D01*
X120655328Y-67466843D01*
X121691043Y-67788271D02*
X121619614Y-67823986D01*
X121476757Y-67823986D01*
X121405328Y-67788271D01*
X121369614Y-67716843D01*
X121369614Y-67431129D01*
X121405328Y-67359700D01*
X121476757Y-67323986D01*
X121619614Y-67323986D01*
X121691043Y-67359700D01*
X121726757Y-67431129D01*
X121726757Y-67502557D01*
X121369614Y-67573986D01*
X121976757Y-67323986D02*
X122155328Y-67823986D01*
X122333900Y-67323986D01*
X122619614Y-67752557D02*
X122655329Y-67788271D01*
X122619614Y-67823986D01*
X122583900Y-67788271D01*
X122619614Y-67752557D01*
X122619614Y-67823986D01*
X122905329Y-67073986D02*
X123369615Y-67073986D01*
X123119615Y-67359700D01*
X123226757Y-67359700D01*
X123298186Y-67395414D01*
X123333900Y-67431129D01*
X123369615Y-67502557D01*
X123369615Y-67681129D01*
X123333900Y-67752557D01*
X123298186Y-67788271D01*
X123226757Y-67823986D01*
X123012472Y-67823986D01*
X122941043Y-67788271D01*
X122905329Y-67752557D01*
X112601760Y-68523986D02*
X112744617Y-69023986D01*
X112887474Y-68666843D01*
X113030331Y-69023986D01*
X113173188Y-68523986D01*
X113387474Y-68523986D02*
X113530331Y-69023986D01*
X113673188Y-68666843D01*
X113816045Y-69023986D01*
X113958902Y-68523986D01*
X114173188Y-68523986D02*
X114316045Y-69023986D01*
X114458902Y-68666843D01*
X114601759Y-69023986D01*
X114744616Y-68523986D01*
X115030330Y-68952557D02*
X115066045Y-68988271D01*
X115030330Y-69023986D01*
X114994616Y-68988271D01*
X115030330Y-68952557D01*
X115030330Y-69023986D01*
X115387473Y-69023986D02*
X115387473Y-68273986D01*
X115708902Y-69023986D02*
X115708902Y-68631129D01*
X115673188Y-68559700D01*
X115601759Y-68523986D01*
X115494616Y-68523986D01*
X115423188Y-68559700D01*
X115387473Y-68595414D01*
X116351759Y-68988271D02*
X116280330Y-69023986D01*
X116137473Y-69023986D01*
X116066044Y-68988271D01*
X116030330Y-68916843D01*
X116030330Y-68631129D01*
X116066044Y-68559700D01*
X116137473Y-68523986D01*
X116280330Y-68523986D01*
X116351759Y-68559700D01*
X116387473Y-68631129D01*
X116387473Y-68702557D01*
X116030330Y-68773986D01*
X116708901Y-68523986D02*
X116708901Y-69023986D01*
X116708901Y-68595414D02*
X116744616Y-68559700D01*
X116816044Y-68523986D01*
X116923187Y-68523986D01*
X116994616Y-68559700D01*
X117030330Y-68631129D01*
X117030330Y-69023986D01*
X117387472Y-68523986D02*
X117387472Y-69023986D01*
X117387472Y-68595414D02*
X117423187Y-68559700D01*
X117494615Y-68523986D01*
X117601758Y-68523986D01*
X117673187Y-68559700D01*
X117708901Y-68631129D01*
X117708901Y-69023986D01*
X118066043Y-69023986D02*
X118066043Y-68523986D01*
X118066043Y-68273986D02*
X118030329Y-68309700D01*
X118066043Y-68345414D01*
X118101758Y-68309700D01*
X118066043Y-68273986D01*
X118066043Y-68345414D01*
X118423186Y-68523986D02*
X118423186Y-69023986D01*
X118423186Y-68595414D02*
X118458901Y-68559700D01*
X118530329Y-68523986D01*
X118637472Y-68523986D01*
X118708901Y-68559700D01*
X118744615Y-68631129D01*
X118744615Y-69023986D01*
X119423186Y-68523986D02*
X119423186Y-69131129D01*
X119387472Y-69202557D01*
X119351757Y-69238271D01*
X119280329Y-69273986D01*
X119173186Y-69273986D01*
X119101757Y-69238271D01*
X119423186Y-68988271D02*
X119351757Y-69023986D01*
X119208900Y-69023986D01*
X119137472Y-68988271D01*
X119101757Y-68952557D01*
X119066043Y-68881129D01*
X119066043Y-68666843D01*
X119101757Y-68595414D01*
X119137472Y-68559700D01*
X119208900Y-68523986D01*
X119351757Y-68523986D01*
X119423186Y-68559700D01*
X119780328Y-68738271D02*
X120351757Y-68738271D01*
X120708899Y-69023986D02*
X120708899Y-68273986D01*
X120708899Y-68559700D02*
X120780328Y-68523986D01*
X120923185Y-68523986D01*
X120994614Y-68559700D01*
X121030328Y-68595414D01*
X121066042Y-68666843D01*
X121066042Y-68881129D01*
X121030328Y-68952557D01*
X120994614Y-68988271D01*
X120923185Y-69023986D01*
X120780328Y-69023986D01*
X120708899Y-68988271D01*
X121673185Y-68988271D02*
X121601756Y-69023986D01*
X121458899Y-69023986D01*
X121387470Y-68988271D01*
X121351756Y-68916843D01*
X121351756Y-68631129D01*
X121387470Y-68559700D01*
X121458899Y-68523986D01*
X121601756Y-68523986D01*
X121673185Y-68559700D01*
X121708899Y-68631129D01*
X121708899Y-68702557D01*
X121351756Y-68773986D01*
X122030327Y-69023986D02*
X122030327Y-68273986D01*
X122101756Y-68738271D02*
X122316042Y-69023986D01*
X122316042Y-68523986D02*
X122030327Y-68809700D01*
X122923185Y-68988271D02*
X122851756Y-69023986D01*
X122708899Y-69023986D01*
X122637470Y-68988271D01*
X122601756Y-68916843D01*
X122601756Y-68631129D01*
X122637470Y-68559700D01*
X122708899Y-68523986D01*
X122851756Y-68523986D01*
X122923185Y-68559700D01*
X122958899Y-68631129D01*
X122958899Y-68702557D01*
X122601756Y-68773986D01*
X123387470Y-69023986D02*
X123316042Y-68988271D01*
X123280327Y-68916843D01*
X123280327Y-68273986D01*
X123673184Y-68952557D02*
X123708899Y-68988271D01*
X123673184Y-69023986D01*
X123637470Y-68988271D01*
X123673184Y-68952557D01*
X123673184Y-69023986D01*
X124351756Y-69023986D02*
X124351756Y-68273986D01*
X124351756Y-68988271D02*
X124280327Y-69023986D01*
X124137470Y-69023986D01*
X124066042Y-68988271D01*
X124030327Y-68952557D01*
X123994613Y-68881129D01*
X123994613Y-68666843D01*
X124030327Y-68595414D01*
X124066042Y-68559700D01*
X124137470Y-68523986D01*
X124280327Y-68523986D01*
X124351756Y-68559700D01*
X124994613Y-68988271D02*
X124923184Y-69023986D01*
X124780327Y-69023986D01*
X124708898Y-68988271D01*
X124673184Y-68916843D01*
X124673184Y-68631129D01*
X124708898Y-68559700D01*
X124780327Y-68523986D01*
X124923184Y-68523986D01*
X124994613Y-68559700D01*
X125030327Y-68631129D01*
X125030327Y-68702557D01*
X124673184Y-68773986D01*
X164664000Y-70426900D02*
X161664000Y-70426900D01*
X161664000Y-67926900D02*
X164664000Y-67926900D01*
X129141000Y-99818000D02*
X129141000Y-96818000D01*
X131641000Y-96818000D02*
X131641000Y-99818000D01*
X129141000Y-105355000D02*
X129141000Y-102355000D01*
X131641000Y-102355000D02*
X131641000Y-105355000D01*
X175535000Y-70426900D02*
X172535000Y-70426900D01*
X172535000Y-67926900D02*
X175535000Y-67926900D01*
X164664000Y-97071500D02*
X161664000Y-97071500D01*
X161664000Y-94571500D02*
X164664000Y-94571500D01*
X175599000Y-97109600D02*
X172599000Y-97109600D01*
X172599000Y-94609600D02*
X175599000Y-94609600D01*
X129141000Y-94090300D02*
X129141000Y-91090300D01*
X131641000Y-91090300D02*
X131641000Y-94090300D01*
X137092000Y-94531500D02*
X134092000Y-94531500D01*
X134092000Y-92031500D02*
X137092000Y-92031500D01*
X149212000Y-69303900D02*
X149212000Y-70573900D01*
X149212000Y-70573900D02*
X146672000Y-70573900D01*
X146672000Y-70573900D02*
X146672000Y-69303900D01*
X154292000Y-69303900D02*
X154292000Y-122643900D01*
X154292000Y-122643900D02*
X141592000Y-122643900D01*
X141592000Y-122643900D02*
X141592000Y-69303900D01*
X141592000Y-69303900D02*
X154292000Y-69303900D01*
X130262000Y-131266000D02*
X130262000Y-122266000D01*
X130262000Y-122266000D02*
X137962000Y-122266000D01*
X137962000Y-122266000D02*
X137962000Y-131266000D01*
X137962000Y-131266000D02*
X130262000Y-131266000D01*
X138512000Y-124766000D02*
X138512000Y-122266000D01*
X138512000Y-122266000D02*
X137112000Y-122266000D01*
X137112000Y-122266000D02*
X137112000Y-124766000D01*
X137112000Y-124766000D02*
X138512000Y-124766000D01*
X129712000Y-124766000D02*
X129712000Y-122266000D01*
X129712000Y-122266000D02*
X131112000Y-122266000D01*
X131112000Y-122266000D02*
X131112000Y-124766000D01*
X131112000Y-124766000D02*
X129712000Y-124766000D01*
X130912000Y-128516000D02*
X137312000Y-128516000D01*
X137312000Y-128516000D02*
X137312000Y-131766000D01*
X137312000Y-131766000D02*
X130912000Y-131766000D01*
X130912000Y-131766000D02*
X130912000Y-128516000D01*
X129540000Y-111506000D02*
X132080000Y-111506000D01*
X130959903Y-111506000D02*
G75*
G03X130959903Y-111506000I-1419903J0D01*
G01*
X132080000Y-117602000D02*
X132080000Y-120142000D01*
X133499903Y-117602000D02*
G75*
G03X133499903Y-117602000I-1419903J0D01*
G01*
X135382000Y-117602000D02*
X135382000Y-120142000D01*
X136801903Y-117602000D02*
G75*
G03X136801903Y-117602000I-1419903J0D01*
G01*
X135928000Y-72009000D02*
G75*
G03X135928000Y-72009000I-2540000J0D01*
G01*
X129578000Y-68199000D02*
X137198000Y-68199000D01*
X137198000Y-68199000D02*
X137198000Y-75819000D01*
X137198000Y-75819000D02*
X129578000Y-75819000D01*
X129578000Y-68199000D02*
X129578000Y-75819000D01*
X135928000Y-82702400D02*
G75*
G03X135928000Y-82702400I-2540000J0D01*
G01*
X129578000Y-78892400D02*
X137198000Y-78892400D01*
X137198000Y-78892400D02*
X137198000Y-86512400D01*
X137198000Y-86512400D02*
X129578000Y-86512400D01*
X129578000Y-78892400D02*
X129578000Y-86512400D01*
X165672000Y-70802500D02*
X165672000Y-91122500D01*
X160592000Y-91122500D02*
X160592000Y-70802500D01*
X160592000Y-70802500D02*
X165672000Y-70802500D01*
X164402000Y-70802500D02*
X164402000Y-72072500D01*
X164402000Y-72072500D02*
X161862000Y-72072500D01*
X161862000Y-72072500D02*
X161862000Y-70802500D01*
X165672000Y-91122500D02*
X160592000Y-91122500D01*
X164427000Y-97434000D02*
X164427000Y-97434000D01*
X164427000Y-97434000D02*
X164427000Y-98704000D01*
X164427000Y-98704000D02*
X161887000Y-98704000D01*
X161887000Y-98704000D02*
X161887000Y-97434000D01*
X165697000Y-97434000D02*
X165697000Y-120294000D01*
X165697000Y-120294000D02*
X160617000Y-120294000D01*
X160617000Y-120294000D02*
X160617000Y-97434000D01*
X160617000Y-97434000D02*
X165697000Y-97434000D01*
X175298000Y-70815200D02*
X175298000Y-70815200D01*
X175298000Y-70815200D02*
X175298000Y-72085200D01*
X175298000Y-72085200D02*
X172758000Y-72085200D01*
X172758000Y-72085200D02*
X172758000Y-70815200D01*
X176568000Y-70815200D02*
X176568000Y-93675200D01*
X176568000Y-93675200D02*
X171488000Y-93675200D01*
X171488000Y-93675200D02*
X171488000Y-70815200D01*
X171488000Y-70815200D02*
X176568000Y-70815200D01*
X175387000Y-97422000D02*
X175387000Y-97422000D01*
X175387000Y-97422000D02*
X175387000Y-98692000D01*
X175387000Y-98692000D02*
X172847000Y-98692000D01*
X172847000Y-98692000D02*
X172847000Y-97422000D01*
X176657000Y-97422000D02*
X176657000Y-120282000D01*
X176657000Y-120282000D02*
X171577000Y-120282000D01*
X171577000Y-120282000D02*
X171577000Y-97422000D01*
X171577000Y-97422000D02*
X176657000Y-97422000D01*
X120167000Y-69697600D02*
X120167000Y-69697600D01*
X120167000Y-69697600D02*
X120167000Y-70967600D01*
X120167000Y-70967600D02*
X117627000Y-70967600D01*
X117627000Y-70967600D02*
X117627000Y-69697600D01*
X125247000Y-69697600D02*
X125247000Y-107797600D01*
X125247000Y-107797600D02*
X112547000Y-107797600D01*
X112547000Y-107797600D02*
X112547000Y-69697600D01*
X112547000Y-69697600D02*
X125247000Y-69697600D01*
X138112000Y-104267000D02*
X138112000Y-97917000D01*
X133032000Y-104267000D02*
X133032000Y-97917000D01*
X135572000Y-95377000D02*
G75*
G03X133032000Y-97917000I0J-2540000D01*
G01*
X138112000Y-97917000D02*
G75*
G03X135572000Y-95377000I-2540000J0D01*
G01*
X133032000Y-104267000D02*
G75*
G03X135572000Y-106807000I2540000J0D01*
G01*
X135572000Y-106807000D02*
G75*
G03X138112000Y-104267000I0J2540000D01*
G01*
X145580000Y-124765000D02*
X150660000Y-124765000D01*
X145580000Y-127305000D02*
X150660000Y-127305000D01*
D11*
X145580000Y-127305000D02*
X145580000Y-124765000D01*
X150660000Y-124765000D02*
X150660000Y-127305000D01*
D10*
X108648000Y-124129800D02*
X108648000Y-73329800D01*
X106108000Y-73329800D02*
X106108000Y-124129800D01*
X106108000Y-73329800D02*
X108648000Y-73329800D01*
D11*
X108648000Y-124129800D02*
X106108000Y-124129800D01*
D10*
X183121000Y-124129800D02*
X183121000Y-73329800D01*
X180581000Y-73329800D02*
X180581000Y-124129800D01*
X180581000Y-73329800D02*
X183121000Y-73329800D01*
D11*
X183121000Y-124129800D02*
X180581000Y-124129800D01*
D12*
X177190000Y-123520000D02*
X177190000Y-128092000D01*
X177190000Y-128092000D02*
X157378000Y-128092000D01*
X157378000Y-128092000D02*
X157378000Y-123520000D01*
X157378000Y-123520000D02*
X177190000Y-123520000D01*
D10*
X114808000Y-129413000D02*
X122428000Y-129413000D01*
X122428000Y-126873000D02*
X114808000Y-126873000D01*
D11*
X122428000Y-126873000D02*
X122428000Y-129413000D01*
X114808000Y-129413000D02*
X114808000Y-126873000D01*
D10*
X131064000Y-115062000D02*
X130556000Y-115570000D01*
X130556000Y-115570000D02*
X130556000Y-114554000D01*
X130556000Y-114554000D02*
X131089400Y-115062000D01*
X131064000Y-115062000D02*
X131445000Y-115062000D01*
X130556000Y-115062000D02*
X130175000Y-115062000D01*
X131064000Y-115570000D02*
X131064000Y-114554000D01*
X130556000Y-115570000D02*
X130556000Y-114554000D01*
X136398000Y-115062000D02*
X136906000Y-114554000D01*
X136906000Y-114554000D02*
X136906000Y-115570000D01*
X136906000Y-115570000D02*
X136372600Y-115062000D01*
X136398000Y-115062000D02*
X136017000Y-115062000D01*
X136906000Y-115062000D02*
X137287000Y-115062000D01*
X136398000Y-114554000D02*
X136398000Y-115570000D01*
X136906000Y-114554000D02*
X136906000Y-115570000D01*
X112618000Y-109094000D02*
X110618000Y-111094000D01*
X110618000Y-111094000D02*
X110618000Y-125094000D01*
X110618000Y-125094000D02*
X126618000Y-125094000D01*
X126618000Y-125094000D02*
X126618000Y-109094000D01*
X126618000Y-109094000D02*
X112618000Y-109094000D01*
X159154634Y-69534043D02*
X159107015Y-69581662D01*
X158964158Y-69629281D01*
X158868920Y-69629281D01*
X158726062Y-69581662D01*
X158630824Y-69486424D01*
X158583205Y-69391186D01*
X158535586Y-69200710D01*
X158535586Y-69057852D01*
X158583205Y-68867376D01*
X158630824Y-68772138D01*
X158726062Y-68676900D01*
X158868920Y-68629281D01*
X158964158Y-68629281D01*
X159107015Y-68676900D01*
X159154634Y-68724519D01*
X159726062Y-69057852D02*
X159630824Y-69010233D01*
X159583205Y-68962614D01*
X159535586Y-68867376D01*
X159535586Y-68819757D01*
X159583205Y-68724519D01*
X159630824Y-68676900D01*
X159726062Y-68629281D01*
X159916539Y-68629281D01*
X160011777Y-68676900D01*
X160059396Y-68724519D01*
X160107015Y-68819757D01*
X160107015Y-68867376D01*
X160059396Y-68962614D01*
X160011777Y-69010233D01*
X159916539Y-69057852D01*
X159726062Y-69057852D01*
X159630824Y-69105471D01*
X159583205Y-69153090D01*
X159535586Y-69248329D01*
X159535586Y-69438805D01*
X159583205Y-69534043D01*
X159630824Y-69581662D01*
X159726062Y-69629281D01*
X159916539Y-69629281D01*
X160011777Y-69581662D01*
X160059396Y-69534043D01*
X160107015Y-69438805D01*
X160107015Y-69248329D01*
X160059396Y-69153090D01*
X160011777Y-69105471D01*
X159916539Y-69057852D01*
X128779643Y-98655166D02*
X128827262Y-98702785D01*
X128874881Y-98845642D01*
X128874881Y-98940880D01*
X128827262Y-99083738D01*
X128732024Y-99178976D01*
X128636786Y-99226595D01*
X128446310Y-99274214D01*
X128303452Y-99274214D01*
X128112976Y-99226595D01*
X128017738Y-99178976D01*
X127922500Y-99083738D01*
X127874881Y-98940880D01*
X127874881Y-98845642D01*
X127922500Y-98702785D01*
X127970119Y-98655166D01*
X128874881Y-97702785D02*
X128874881Y-98274214D01*
X128874881Y-97988500D02*
X127874881Y-97988500D01*
X128017738Y-98083738D01*
X128112976Y-98178976D01*
X128160595Y-98274214D01*
X128716143Y-104192166D02*
X128763762Y-104239785D01*
X128811381Y-104382642D01*
X128811381Y-104477880D01*
X128763762Y-104620738D01*
X128668524Y-104715976D01*
X128573286Y-104763595D01*
X128382810Y-104811214D01*
X128239952Y-104811214D01*
X128049476Y-104763595D01*
X127954238Y-104715976D01*
X127859000Y-104620738D01*
X127811381Y-104477880D01*
X127811381Y-104382642D01*
X127859000Y-104239785D01*
X127906619Y-104192166D01*
X127906619Y-103811214D02*
X127859000Y-103763595D01*
X127811381Y-103668357D01*
X127811381Y-103430261D01*
X127859000Y-103335023D01*
X127906619Y-103287404D01*
X128001857Y-103239785D01*
X128097095Y-103239785D01*
X128239952Y-103287404D01*
X128811381Y-103858833D01*
X128811381Y-103239785D01*
X170025634Y-69534043D02*
X169978015Y-69581662D01*
X169835158Y-69629281D01*
X169739920Y-69629281D01*
X169597062Y-69581662D01*
X169501824Y-69486424D01*
X169454205Y-69391186D01*
X169406586Y-69200710D01*
X169406586Y-69057852D01*
X169454205Y-68867376D01*
X169501824Y-68772138D01*
X169597062Y-68676900D01*
X169739920Y-68629281D01*
X169835158Y-68629281D01*
X169978015Y-68676900D01*
X170025634Y-68724519D01*
X170501824Y-69629281D02*
X170692300Y-69629281D01*
X170787539Y-69581662D01*
X170835158Y-69534043D01*
X170930396Y-69391186D01*
X170978015Y-69200710D01*
X170978015Y-68819757D01*
X170930396Y-68724519D01*
X170882777Y-68676900D01*
X170787539Y-68629281D01*
X170597062Y-68629281D01*
X170501824Y-68676900D01*
X170454205Y-68724519D01*
X170406586Y-68819757D01*
X170406586Y-69057852D01*
X170454205Y-69153090D01*
X170501824Y-69200710D01*
X170597062Y-69248329D01*
X170787539Y-69248329D01*
X170882777Y-69200710D01*
X170930396Y-69153090D01*
X170978015Y-69057852D01*
X158678443Y-96178643D02*
X158630824Y-96226262D01*
X158487967Y-96273881D01*
X158392729Y-96273881D01*
X158249871Y-96226262D01*
X158154633Y-96131024D01*
X158107014Y-96035786D01*
X158059395Y-95845310D01*
X158059395Y-95702452D01*
X158107014Y-95511976D01*
X158154633Y-95416738D01*
X158249871Y-95321500D01*
X158392729Y-95273881D01*
X158487967Y-95273881D01*
X158630824Y-95321500D01*
X158678443Y-95369119D01*
X159630824Y-96273881D02*
X159059395Y-96273881D01*
X159345109Y-96273881D02*
X159345109Y-95273881D01*
X159249871Y-95416738D01*
X159154633Y-95511976D01*
X159059395Y-95559595D01*
X160249871Y-95273881D02*
X160345110Y-95273881D01*
X160440348Y-95321500D01*
X160487967Y-95369119D01*
X160535586Y-95464357D01*
X160583205Y-95654833D01*
X160583205Y-95892929D01*
X160535586Y-96083405D01*
X160487967Y-96178643D01*
X160440348Y-96226262D01*
X160345110Y-96273881D01*
X160249871Y-96273881D01*
X160154633Y-96226262D01*
X160107014Y-96178643D01*
X160059395Y-96083405D01*
X160011776Y-95892929D01*
X160011776Y-95654833D01*
X160059395Y-95464357D01*
X160107014Y-95369119D01*
X160154633Y-95321500D01*
X160249871Y-95273881D01*
X169613443Y-96216743D02*
X169565824Y-96264362D01*
X169422967Y-96311981D01*
X169327729Y-96311981D01*
X169184871Y-96264362D01*
X169089633Y-96169124D01*
X169042014Y-96073886D01*
X168994395Y-95883410D01*
X168994395Y-95740552D01*
X169042014Y-95550076D01*
X169089633Y-95454838D01*
X169184871Y-95359600D01*
X169327729Y-95311981D01*
X169422967Y-95311981D01*
X169565824Y-95359600D01*
X169613443Y-95407219D01*
X170565824Y-96311981D02*
X169994395Y-96311981D01*
X170280109Y-96311981D02*
X170280109Y-95311981D01*
X170184871Y-95454838D01*
X170089633Y-95550076D01*
X169994395Y-95597695D01*
X171518205Y-96311981D02*
X170946776Y-96311981D01*
X171232490Y-96311981D02*
X171232490Y-95311981D01*
X171137252Y-95454838D01*
X171042014Y-95550076D01*
X170946776Y-95597695D01*
X128830443Y-92927466D02*
X128878062Y-92975085D01*
X128925681Y-93117942D01*
X128925681Y-93213180D01*
X128878062Y-93356038D01*
X128782824Y-93451276D01*
X128687586Y-93498895D01*
X128497110Y-93546514D01*
X128354252Y-93546514D01*
X128163776Y-93498895D01*
X128068538Y-93451276D01*
X127973300Y-93356038D01*
X127925681Y-93213180D01*
X127925681Y-93117942D01*
X127973300Y-92975085D01*
X128020919Y-92927466D01*
X127925681Y-92070323D02*
X127925681Y-92260800D01*
X127973300Y-92356038D01*
X128020919Y-92403657D01*
X128163776Y-92498895D01*
X128354252Y-92546514D01*
X128735205Y-92546514D01*
X128830443Y-92498895D01*
X128878062Y-92451276D01*
X128925681Y-92356038D01*
X128925681Y-92165561D01*
X128878062Y-92070323D01*
X128830443Y-92022704D01*
X128735205Y-91975085D01*
X128497110Y-91975085D01*
X128401871Y-92022704D01*
X128354252Y-92070323D01*
X128306633Y-92165561D01*
X128306633Y-92356038D01*
X128354252Y-92451276D01*
X128401871Y-92498895D01*
X128497110Y-92546514D01*
X135329134Y-91593943D02*
X135281515Y-91641562D01*
X135138658Y-91689181D01*
X135043420Y-91689181D01*
X134900562Y-91641562D01*
X134805324Y-91546324D01*
X134757705Y-91451086D01*
X134710086Y-91260610D01*
X134710086Y-91117752D01*
X134757705Y-90927276D01*
X134805324Y-90832038D01*
X134900562Y-90736800D01*
X135043420Y-90689181D01*
X135138658Y-90689181D01*
X135281515Y-90736800D01*
X135329134Y-90784419D01*
X135662467Y-90689181D02*
X136329134Y-90689181D01*
X135900562Y-91689181D01*
X142989395Y-69886581D02*
X142989395Y-70696105D01*
X143037014Y-70791343D01*
X143084633Y-70838962D01*
X143179871Y-70886581D01*
X143370348Y-70886581D01*
X143465586Y-70838962D01*
X143513205Y-70791343D01*
X143560824Y-70696105D01*
X143560824Y-69886581D01*
X143989395Y-69981819D02*
X144037014Y-69934200D01*
X144132252Y-69886581D01*
X144370348Y-69886581D01*
X144465586Y-69934200D01*
X144513205Y-69981819D01*
X144560824Y-70077057D01*
X144560824Y-70172295D01*
X144513205Y-70315152D01*
X143941776Y-70886581D01*
X144560824Y-70886581D01*
X148108967Y-102605648D02*
X148108967Y-102129457D01*
X148394681Y-102700886D02*
X147394681Y-102367553D01*
X148394681Y-102034219D01*
X147394681Y-101843743D02*
X147394681Y-101272314D01*
X148394681Y-101558029D02*
X147394681Y-101558029D01*
X148394681Y-100938981D02*
X147394681Y-100938981D01*
X148108967Y-100605647D01*
X147394681Y-100272314D01*
X148394681Y-100272314D01*
X147870871Y-99796124D02*
X147870871Y-99462790D01*
X148394681Y-99319933D02*
X148394681Y-99796124D01*
X147394681Y-99796124D01*
X147394681Y-99319933D01*
X147442300Y-98367552D02*
X147394681Y-98462790D01*
X147394681Y-98605647D01*
X147442300Y-98748505D01*
X147537538Y-98843743D01*
X147632776Y-98891362D01*
X147823252Y-98938981D01*
X147966110Y-98938981D01*
X148156586Y-98891362D01*
X148251824Y-98843743D01*
X148347062Y-98748505D01*
X148394681Y-98605647D01*
X148394681Y-98510409D01*
X148347062Y-98367552D01*
X148299443Y-98319933D01*
X147966110Y-98319933D01*
X147966110Y-98510409D01*
X148108967Y-97938981D02*
X148108967Y-97462790D01*
X148394681Y-98034219D02*
X147394681Y-97700886D01*
X148394681Y-97367552D01*
X148394681Y-96510409D02*
X148394681Y-97081838D01*
X148394681Y-96796124D02*
X147394681Y-96796124D01*
X147537538Y-96891362D01*
X147632776Y-96986600D01*
X147680395Y-97081838D01*
X147489919Y-96129457D02*
X147442300Y-96081838D01*
X147394681Y-95986600D01*
X147394681Y-95748504D01*
X147442300Y-95653266D01*
X147489919Y-95605647D01*
X147585157Y-95558028D01*
X147680395Y-95558028D01*
X147823252Y-95605647D01*
X148394681Y-96177076D01*
X148394681Y-95558028D01*
X147823252Y-94986600D02*
X147775633Y-95081838D01*
X147728014Y-95129457D01*
X147632776Y-95177076D01*
X147585157Y-95177076D01*
X147489919Y-95129457D01*
X147442300Y-95081838D01*
X147394681Y-94986600D01*
X147394681Y-94796123D01*
X147442300Y-94700885D01*
X147489919Y-94653266D01*
X147585157Y-94605647D01*
X147632776Y-94605647D01*
X147728014Y-94653266D01*
X147775633Y-94700885D01*
X147823252Y-94796123D01*
X147823252Y-94986600D01*
X147870871Y-95081838D01*
X147918490Y-95129457D01*
X148013729Y-95177076D01*
X148204205Y-95177076D01*
X148299443Y-95129457D01*
X148347062Y-95081838D01*
X148394681Y-94986600D01*
X148394681Y-94796123D01*
X148347062Y-94700885D01*
X148299443Y-94653266D01*
X148204205Y-94605647D01*
X148013729Y-94605647D01*
X147918490Y-94653266D01*
X147870871Y-94700885D01*
X147823252Y-94796123D01*
X147728014Y-93748504D02*
X148394681Y-93748504D01*
X147347062Y-93986600D02*
X148061348Y-94224695D01*
X148061348Y-93605647D01*
X148394681Y-93224695D02*
X147394681Y-93224695D01*
X147394681Y-92843742D01*
X147442300Y-92748504D01*
X147489919Y-92700885D01*
X147585157Y-92653266D01*
X147728014Y-92653266D01*
X147823252Y-92700885D01*
X147870871Y-92748504D01*
X147918490Y-92843742D01*
X147918490Y-93224695D01*
X148013729Y-92224695D02*
X148013729Y-91462790D01*
X148394681Y-90986600D02*
X147394681Y-90986600D01*
X147394681Y-90605647D01*
X147442300Y-90510409D01*
X147489919Y-90462790D01*
X147585157Y-90415171D01*
X147728014Y-90415171D01*
X147823252Y-90462790D01*
X147870871Y-90510409D01*
X147918490Y-90605647D01*
X147918490Y-90986600D01*
X147394681Y-89986600D02*
X148204205Y-89986600D01*
X148299443Y-89938981D01*
X148347062Y-89891362D01*
X148394681Y-89796124D01*
X148394681Y-89605647D01*
X148347062Y-89510409D01*
X148299443Y-89462790D01*
X148204205Y-89415171D01*
X147394681Y-89415171D01*
X139940105Y-128457081D02*
X139940105Y-127457081D01*
X140321058Y-127457081D01*
X140416296Y-127504700D01*
X140463915Y-127552319D01*
X140511534Y-127647557D01*
X140511534Y-127790414D01*
X140463915Y-127885652D01*
X140416296Y-127933271D01*
X140321058Y-127980890D01*
X139940105Y-127980890D01*
X140844867Y-127457081D02*
X141463915Y-127457081D01*
X141130581Y-127838033D01*
X141273439Y-127838033D01*
X141368677Y-127885652D01*
X141416296Y-127933271D01*
X141463915Y-128028510D01*
X141463915Y-128266605D01*
X141416296Y-128361843D01*
X141368677Y-128409462D01*
X141273439Y-128457081D01*
X140987724Y-128457081D01*
X140892486Y-128409462D01*
X140844867Y-128361843D01*
X139416295Y-128854081D02*
X139416295Y-129663605D01*
X139463914Y-129758843D01*
X139511533Y-129806462D01*
X139606771Y-129854081D01*
X139797248Y-129854081D01*
X139892486Y-129806462D01*
X139940105Y-129758843D01*
X139987724Y-129663605D01*
X139987724Y-128854081D01*
X140416295Y-129806462D02*
X140559152Y-129854081D01*
X140797248Y-129854081D01*
X140892486Y-129806462D01*
X140940105Y-129758843D01*
X140987724Y-129663605D01*
X140987724Y-129568367D01*
X140940105Y-129473129D01*
X140892486Y-129425510D01*
X140797248Y-129377890D01*
X140606771Y-129330271D01*
X140511533Y-129282652D01*
X140463914Y-129235033D01*
X140416295Y-129139795D01*
X140416295Y-129044557D01*
X140463914Y-128949319D01*
X140511533Y-128901700D01*
X140606771Y-128854081D01*
X140844867Y-128854081D01*
X140987724Y-128901700D01*
X141749629Y-129330271D02*
X141892486Y-129377890D01*
X141940105Y-129425510D01*
X141987724Y-129520748D01*
X141987724Y-129663605D01*
X141940105Y-129758843D01*
X141892486Y-129806462D01*
X141797248Y-129854081D01*
X141416295Y-129854081D01*
X141416295Y-128854081D01*
X141749629Y-128854081D01*
X141844867Y-128901700D01*
X141892486Y-128949319D01*
X141940105Y-129044557D01*
X141940105Y-129139795D01*
X141892486Y-129235033D01*
X141844867Y-129282652D01*
X141749629Y-129330271D01*
X141416295Y-129330271D01*
X131151334Y-110053381D02*
X130818000Y-109577190D01*
X130579905Y-110053381D02*
X130579905Y-109053381D01*
X130960858Y-109053381D01*
X131056096Y-109101000D01*
X131103715Y-109148619D01*
X131151334Y-109243857D01*
X131151334Y-109386714D01*
X131103715Y-109481952D01*
X131056096Y-109529571D01*
X130960858Y-109577190D01*
X130579905Y-109577190D01*
X132103715Y-110053381D02*
X131532286Y-110053381D01*
X131818000Y-110053381D02*
X131818000Y-109053381D01*
X131722762Y-109196238D01*
X131627524Y-109291476D01*
X131532286Y-109339095D01*
X129322434Y-118105381D02*
X128989100Y-117629190D01*
X128751005Y-118105381D02*
X128751005Y-117105381D01*
X129131958Y-117105381D01*
X129227196Y-117153000D01*
X129274815Y-117200619D01*
X129322434Y-117295857D01*
X129322434Y-117438714D01*
X129274815Y-117533952D01*
X129227196Y-117581571D01*
X129131958Y-117629190D01*
X128751005Y-117629190D01*
X129703386Y-117200619D02*
X129751005Y-117153000D01*
X129846243Y-117105381D01*
X130084339Y-117105381D01*
X130179577Y-117153000D01*
X130227196Y-117200619D01*
X130274815Y-117295857D01*
X130274815Y-117391095D01*
X130227196Y-117533952D01*
X129655767Y-118105381D01*
X130274815Y-118105381D01*
X137806234Y-117991381D02*
X137472900Y-117515190D01*
X137234805Y-117991381D02*
X137234805Y-116991381D01*
X137615758Y-116991381D01*
X137710996Y-117039000D01*
X137758615Y-117086619D01*
X137806234Y-117181857D01*
X137806234Y-117324714D01*
X137758615Y-117419952D01*
X137710996Y-117467571D01*
X137615758Y-117515190D01*
X137234805Y-117515190D01*
X138139567Y-116991381D02*
X138758615Y-116991381D01*
X138425281Y-117372333D01*
X138568139Y-117372333D01*
X138663377Y-117419952D01*
X138710996Y-117467571D01*
X138758615Y-117562810D01*
X138758615Y-117800905D01*
X138710996Y-117896143D01*
X138663377Y-117943762D01*
X138568139Y-117991381D01*
X138282424Y-117991381D01*
X138187186Y-117943762D01*
X138139567Y-117896143D01*
X132054767Y-72413762D02*
X132197624Y-72461381D01*
X132435720Y-72461381D01*
X132530958Y-72413762D01*
X132578577Y-72366143D01*
X132626196Y-72270905D01*
X132626196Y-72175667D01*
X132578577Y-72080429D01*
X132530958Y-72032810D01*
X132435720Y-71985190D01*
X132245243Y-71937571D01*
X132150005Y-71889952D01*
X132102386Y-71842333D01*
X132054767Y-71747095D01*
X132054767Y-71651857D01*
X132102386Y-71556619D01*
X132150005Y-71509000D01*
X132245243Y-71461381D01*
X132483339Y-71461381D01*
X132626196Y-71509000D01*
X132959529Y-71461381D02*
X133197624Y-72461381D01*
X133388101Y-71747095D01*
X133578577Y-72461381D01*
X133816672Y-71461381D01*
X134721434Y-72461381D02*
X134150005Y-72461381D01*
X134435719Y-72461381D02*
X134435719Y-71461381D01*
X134340481Y-71604238D01*
X134245243Y-71699476D01*
X134150005Y-71747095D01*
X131986519Y-77198481D02*
X131653185Y-76722290D01*
X131415090Y-77198481D02*
X131415090Y-76198481D01*
X131796043Y-76198481D01*
X131891281Y-76246100D01*
X131938900Y-76293719D01*
X131986519Y-76388957D01*
X131986519Y-76531814D01*
X131938900Y-76627052D01*
X131891281Y-76674671D01*
X131796043Y-76722290D01*
X131415090Y-76722290D01*
X132415090Y-76674671D02*
X132748424Y-76674671D01*
X132891281Y-77198481D02*
X132415090Y-77198481D01*
X132415090Y-76198481D01*
X132891281Y-76198481D01*
X133272233Y-77150862D02*
X133415090Y-77198481D01*
X133653186Y-77198481D01*
X133748424Y-77150862D01*
X133796043Y-77103243D01*
X133843662Y-77008005D01*
X133843662Y-76912767D01*
X133796043Y-76817529D01*
X133748424Y-76769910D01*
X133653186Y-76722290D01*
X133462709Y-76674671D01*
X133367471Y-76627052D01*
X133319852Y-76579433D01*
X133272233Y-76484195D01*
X133272233Y-76388957D01*
X133319852Y-76293719D01*
X133367471Y-76246100D01*
X133462709Y-76198481D01*
X133700805Y-76198481D01*
X133843662Y-76246100D01*
X134272233Y-76674671D02*
X134605567Y-76674671D01*
X134748424Y-77198481D02*
X134272233Y-77198481D01*
X134272233Y-76198481D01*
X134748424Y-76198481D01*
X135034138Y-76198481D02*
X135605567Y-76198481D01*
X135319852Y-77198481D02*
X135319852Y-76198481D01*
X132054767Y-83132562D02*
X132197624Y-83180181D01*
X132435720Y-83180181D01*
X132530958Y-83132562D01*
X132578577Y-83084943D01*
X132626196Y-82989705D01*
X132626196Y-82894467D01*
X132578577Y-82799229D01*
X132530958Y-82751610D01*
X132435720Y-82703990D01*
X132245243Y-82656371D01*
X132150005Y-82608752D01*
X132102386Y-82561133D01*
X132054767Y-82465895D01*
X132054767Y-82370657D01*
X132102386Y-82275419D01*
X132150005Y-82227800D01*
X132245243Y-82180181D01*
X132483339Y-82180181D01*
X132626196Y-82227800D01*
X132959529Y-82180181D02*
X133197624Y-83180181D01*
X133388101Y-82465895D01*
X133578577Y-83180181D01*
X133816672Y-82180181D01*
X134150005Y-82275419D02*
X134197624Y-82227800D01*
X134292862Y-82180181D01*
X134530958Y-82180181D01*
X134626196Y-82227800D01*
X134673815Y-82275419D01*
X134721434Y-82370657D01*
X134721434Y-82465895D01*
X134673815Y-82608752D01*
X134102386Y-83180181D01*
X134721434Y-83180181D01*
X132081758Y-87533171D02*
X132224615Y-87580790D01*
X132272234Y-87628410D01*
X132319853Y-87723648D01*
X132319853Y-87866505D01*
X132272234Y-87961743D01*
X132224615Y-88009362D01*
X132129377Y-88056981D01*
X131748424Y-88056981D01*
X131748424Y-87056981D01*
X132081758Y-87056981D01*
X132176996Y-87104600D01*
X132224615Y-87152219D01*
X132272234Y-87247457D01*
X132272234Y-87342695D01*
X132224615Y-87437933D01*
X132176996Y-87485552D01*
X132081758Y-87533171D01*
X131748424Y-87533171D01*
X132938900Y-87056981D02*
X133129377Y-87056981D01*
X133224615Y-87104600D01*
X133319853Y-87199838D01*
X133367472Y-87390314D01*
X133367472Y-87723648D01*
X133319853Y-87914124D01*
X133224615Y-88009362D01*
X133129377Y-88056981D01*
X132938900Y-88056981D01*
X132843662Y-88009362D01*
X132748424Y-87914124D01*
X132700805Y-87723648D01*
X132700805Y-87390314D01*
X132748424Y-87199838D01*
X132843662Y-87104600D01*
X132938900Y-87056981D01*
X133986519Y-87056981D02*
X134176996Y-87056981D01*
X134272234Y-87104600D01*
X134367472Y-87199838D01*
X134415091Y-87390314D01*
X134415091Y-87723648D01*
X134367472Y-87914124D01*
X134272234Y-88009362D01*
X134176996Y-88056981D01*
X133986519Y-88056981D01*
X133891281Y-88009362D01*
X133796043Y-87914124D01*
X133748424Y-87723648D01*
X133748424Y-87390314D01*
X133796043Y-87199838D01*
X133891281Y-87104600D01*
X133986519Y-87056981D01*
X134700805Y-87056981D02*
X135272234Y-87056981D01*
X134986519Y-88056981D02*
X134986519Y-87056981D01*
X161023395Y-72464681D02*
X161023395Y-73274205D01*
X161071014Y-73369443D01*
X161118633Y-73417062D01*
X161213871Y-73464681D01*
X161404348Y-73464681D01*
X161499586Y-73417062D01*
X161547205Y-73369443D01*
X161594824Y-73274205D01*
X161594824Y-72464681D01*
X161975776Y-72464681D02*
X162594824Y-72464681D01*
X162261490Y-72845633D01*
X162404348Y-72845633D01*
X162499586Y-72893252D01*
X162547205Y-72940871D01*
X162594824Y-73036110D01*
X162594824Y-73274205D01*
X162547205Y-73369443D01*
X162499586Y-73417062D01*
X162404348Y-73464681D01*
X162118633Y-73464681D01*
X162023395Y-73417062D01*
X161975776Y-73369443D01*
X162583881Y-82724405D02*
X162583881Y-82057738D01*
X163583881Y-82486310D01*
X162917214Y-81248214D02*
X163583881Y-81248214D01*
X162536262Y-81486310D02*
X163250548Y-81724405D01*
X163250548Y-81105357D01*
X162583881Y-80533929D02*
X162583881Y-80438690D01*
X162631500Y-80343452D01*
X162679119Y-80295833D01*
X162774357Y-80248214D01*
X162964833Y-80200595D01*
X163202929Y-80200595D01*
X163393405Y-80248214D01*
X163488643Y-80295833D01*
X163536262Y-80343452D01*
X163583881Y-80438690D01*
X163583881Y-80533929D01*
X163536262Y-80629167D01*
X163488643Y-80676786D01*
X163393405Y-80724405D01*
X163202929Y-80772024D01*
X162964833Y-80772024D01*
X162774357Y-80724405D01*
X162679119Y-80676786D01*
X162631500Y-80629167D01*
X162583881Y-80533929D01*
X162583881Y-79581548D02*
X162583881Y-79486309D01*
X162631500Y-79391071D01*
X162679119Y-79343452D01*
X162774357Y-79295833D01*
X162964833Y-79248214D01*
X163202929Y-79248214D01*
X163393405Y-79295833D01*
X163488643Y-79343452D01*
X163536262Y-79391071D01*
X163583881Y-79486309D01*
X163583881Y-79581548D01*
X163536262Y-79676786D01*
X163488643Y-79724405D01*
X163393405Y-79772024D01*
X163202929Y-79819643D01*
X162964833Y-79819643D01*
X162774357Y-79772024D01*
X162679119Y-79724405D01*
X162631500Y-79676786D01*
X162583881Y-79581548D01*
X161099595Y-99172781D02*
X161099595Y-99982305D01*
X161147214Y-100077543D01*
X161194833Y-100125162D01*
X161290071Y-100172781D01*
X161480548Y-100172781D01*
X161575786Y-100125162D01*
X161623405Y-100077543D01*
X161671024Y-99982305D01*
X161671024Y-99172781D01*
X162623405Y-99172781D02*
X162147214Y-99172781D01*
X162099595Y-99648971D01*
X162147214Y-99601352D01*
X162242452Y-99553733D01*
X162480548Y-99553733D01*
X162575786Y-99601352D01*
X162623405Y-99648971D01*
X162671024Y-99744210D01*
X162671024Y-99982305D01*
X162623405Y-100077543D01*
X162575786Y-100125162D01*
X162480548Y-100172781D01*
X162242452Y-100172781D01*
X162147214Y-100125162D01*
X162099595Y-100077543D01*
X162942614Y-110115195D02*
X163609281Y-110115195D01*
X162561662Y-110353291D02*
X163275948Y-110591386D01*
X163275948Y-109972338D01*
X162609281Y-109115195D02*
X162609281Y-109591386D01*
X163085471Y-109639005D01*
X163037852Y-109591386D01*
X162990233Y-109496148D01*
X162990233Y-109258052D01*
X163037852Y-109162814D01*
X163085471Y-109115195D01*
X163180710Y-109067576D01*
X163418805Y-109067576D01*
X163514043Y-109115195D01*
X163561662Y-109162814D01*
X163609281Y-109258052D01*
X163609281Y-109496148D01*
X163561662Y-109591386D01*
X163514043Y-109639005D01*
X162704519Y-108686624D02*
X162656900Y-108639005D01*
X162609281Y-108543767D01*
X162609281Y-108305671D01*
X162656900Y-108210433D01*
X162704519Y-108162814D01*
X162799757Y-108115195D01*
X162894995Y-108115195D01*
X163037852Y-108162814D01*
X163609281Y-108734243D01*
X163609281Y-108115195D01*
X162609281Y-107496148D02*
X162609281Y-107400909D01*
X162656900Y-107305671D01*
X162704519Y-107258052D01*
X162799757Y-107210433D01*
X162990233Y-107162814D01*
X163228329Y-107162814D01*
X163418805Y-107210433D01*
X163514043Y-107258052D01*
X163561662Y-107305671D01*
X163609281Y-107400909D01*
X163609281Y-107496148D01*
X163561662Y-107591386D01*
X163514043Y-107639005D01*
X163418805Y-107686624D01*
X163228329Y-107734243D01*
X162990233Y-107734243D01*
X162799757Y-107686624D01*
X162704519Y-107639005D01*
X162656900Y-107591386D01*
X162609281Y-107496148D01*
X171881895Y-72426581D02*
X171881895Y-73236105D01*
X171929514Y-73331343D01*
X171977133Y-73378962D01*
X172072371Y-73426581D01*
X172262848Y-73426581D01*
X172358086Y-73378962D01*
X172405705Y-73331343D01*
X172453324Y-73236105D01*
X172453324Y-72426581D01*
X173358086Y-72759914D02*
X173358086Y-73426581D01*
X173119990Y-72378962D02*
X172881895Y-73093248D01*
X173500943Y-73093248D01*
X173813814Y-83483295D02*
X174480481Y-83483295D01*
X173432862Y-83721391D02*
X174147148Y-83959486D01*
X174147148Y-83340438D01*
X173480481Y-82769010D02*
X173480481Y-82673771D01*
X173528100Y-82578533D01*
X173575719Y-82530914D01*
X173670957Y-82483295D01*
X173861433Y-82435676D01*
X174099529Y-82435676D01*
X174290005Y-82483295D01*
X174385243Y-82530914D01*
X174432862Y-82578533D01*
X174480481Y-82673771D01*
X174480481Y-82769010D01*
X174432862Y-82864248D01*
X174385243Y-82911867D01*
X174290005Y-82959486D01*
X174099529Y-83007105D01*
X173861433Y-83007105D01*
X173670957Y-82959486D01*
X173575719Y-82911867D01*
X173528100Y-82864248D01*
X173480481Y-82769010D01*
X173480481Y-81530914D02*
X173480481Y-82007105D01*
X173956671Y-82054724D01*
X173909052Y-82007105D01*
X173861433Y-81911867D01*
X173861433Y-81673771D01*
X173909052Y-81578533D01*
X173956671Y-81530914D01*
X174051910Y-81483295D01*
X174290005Y-81483295D01*
X174385243Y-81530914D01*
X174432862Y-81578533D01*
X174480481Y-81673771D01*
X174480481Y-81911867D01*
X174432862Y-82007105D01*
X174385243Y-82054724D01*
X174480481Y-80530914D02*
X174480481Y-81102343D01*
X174480481Y-80816629D02*
X173480481Y-80816629D01*
X173623338Y-80911867D01*
X173718576Y-81007105D01*
X173766195Y-81102343D01*
X171983495Y-99033081D02*
X171983495Y-99842605D01*
X172031114Y-99937843D01*
X172078733Y-99985462D01*
X172173971Y-100033081D01*
X172364448Y-100033081D01*
X172459686Y-99985462D01*
X172507305Y-99937843D01*
X172554924Y-99842605D01*
X172554924Y-99033081D01*
X173459686Y-99033081D02*
X173269209Y-99033081D01*
X173173971Y-99080700D01*
X173126352Y-99128319D01*
X173031114Y-99271176D01*
X172983495Y-99461652D01*
X172983495Y-99842605D01*
X173031114Y-99937843D01*
X173078733Y-99985462D01*
X173173971Y-100033081D01*
X173364448Y-100033081D01*
X173459686Y-99985462D01*
X173507305Y-99937843D01*
X173554924Y-99842605D01*
X173554924Y-99604510D01*
X173507305Y-99509271D01*
X173459686Y-99461652D01*
X173364448Y-99414033D01*
X173173971Y-99414033D01*
X173078733Y-99461652D01*
X173031114Y-99509271D01*
X172983495Y-99604510D01*
X173902714Y-110102495D02*
X174569381Y-110102495D01*
X173521762Y-110340591D02*
X174236048Y-110578686D01*
X174236048Y-109959638D01*
X173569381Y-109388210D02*
X173569381Y-109292971D01*
X173617000Y-109197733D01*
X173664619Y-109150114D01*
X173759857Y-109102495D01*
X173950333Y-109054876D01*
X174188429Y-109054876D01*
X174378905Y-109102495D01*
X174474143Y-109150114D01*
X174521762Y-109197733D01*
X174569381Y-109292971D01*
X174569381Y-109388210D01*
X174521762Y-109483448D01*
X174474143Y-109531067D01*
X174378905Y-109578686D01*
X174188429Y-109626305D01*
X173950333Y-109626305D01*
X173759857Y-109578686D01*
X173664619Y-109531067D01*
X173617000Y-109483448D01*
X173569381Y-109388210D01*
X173569381Y-108150114D02*
X173569381Y-108626305D01*
X174045571Y-108673924D01*
X173997952Y-108626305D01*
X173950333Y-108531067D01*
X173950333Y-108292971D01*
X173997952Y-108197733D01*
X174045571Y-108150114D01*
X174140810Y-108102495D01*
X174378905Y-108102495D01*
X174474143Y-108150114D01*
X174521762Y-108197733D01*
X174569381Y-108292971D01*
X174569381Y-108531067D01*
X174521762Y-108626305D01*
X174474143Y-108673924D01*
X174569381Y-107150114D02*
X174569381Y-107721543D01*
X174569381Y-107435829D02*
X173569381Y-107435829D01*
X173712238Y-107531067D01*
X173807476Y-107626305D01*
X173855095Y-107721543D01*
X113233295Y-70254881D02*
X113233295Y-71064405D01*
X113280914Y-71159643D01*
X113328533Y-71207262D01*
X113423771Y-71254881D01*
X113614248Y-71254881D01*
X113709486Y-71207262D01*
X113757105Y-71159643D01*
X113804724Y-71064405D01*
X113804724Y-70254881D01*
X114804724Y-71254881D02*
X114233295Y-71254881D01*
X114519009Y-71254881D02*
X114519009Y-70254881D01*
X114423771Y-70397738D01*
X114328533Y-70492976D01*
X114233295Y-70540595D01*
X119349781Y-91379348D02*
X118349781Y-91379348D01*
X119064067Y-91046014D01*
X118349781Y-90712681D01*
X119349781Y-90712681D01*
X118349781Y-90379348D02*
X118349781Y-89807919D01*
X119349781Y-90093634D02*
X118349781Y-90093634D01*
X118778352Y-89331729D02*
X118730733Y-89426967D01*
X118683114Y-89474586D01*
X118587876Y-89522205D01*
X118540257Y-89522205D01*
X118445019Y-89474586D01*
X118397400Y-89426967D01*
X118349781Y-89331729D01*
X118349781Y-89141252D01*
X118397400Y-89046014D01*
X118445019Y-88998395D01*
X118540257Y-88950776D01*
X118587876Y-88950776D01*
X118683114Y-88998395D01*
X118730733Y-89046014D01*
X118778352Y-89141252D01*
X118778352Y-89331729D01*
X118825971Y-89426967D01*
X118873590Y-89474586D01*
X118968829Y-89522205D01*
X119159305Y-89522205D01*
X119254543Y-89474586D01*
X119302162Y-89426967D01*
X119349781Y-89331729D01*
X119349781Y-89141252D01*
X119302162Y-89046014D01*
X119254543Y-88998395D01*
X119159305Y-88950776D01*
X118968829Y-88950776D01*
X118873590Y-88998395D01*
X118825971Y-89046014D01*
X118778352Y-89141252D01*
X118778352Y-88379348D02*
X118730733Y-88474586D01*
X118683114Y-88522205D01*
X118587876Y-88569824D01*
X118540257Y-88569824D01*
X118445019Y-88522205D01*
X118397400Y-88474586D01*
X118349781Y-88379348D01*
X118349781Y-88188871D01*
X118397400Y-88093633D01*
X118445019Y-88046014D01*
X118540257Y-87998395D01*
X118587876Y-87998395D01*
X118683114Y-88046014D01*
X118730733Y-88093633D01*
X118778352Y-88188871D01*
X118778352Y-88379348D01*
X118825971Y-88474586D01*
X118873590Y-88522205D01*
X118968829Y-88569824D01*
X119159305Y-88569824D01*
X119254543Y-88522205D01*
X119302162Y-88474586D01*
X119349781Y-88379348D01*
X119349781Y-88188871D01*
X119302162Y-88093633D01*
X119254543Y-88046014D01*
X119159305Y-87998395D01*
X118968829Y-87998395D01*
X118873590Y-88046014D01*
X118825971Y-88093633D01*
X118778352Y-88188871D01*
X118349781Y-87379348D02*
X118349781Y-87284109D01*
X118397400Y-87188871D01*
X118445019Y-87141252D01*
X118540257Y-87093633D01*
X118730733Y-87046014D01*
X118968829Y-87046014D01*
X119159305Y-87093633D01*
X119254543Y-87141252D01*
X119302162Y-87188871D01*
X119349781Y-87284109D01*
X119349781Y-87379348D01*
X119302162Y-87474586D01*
X119254543Y-87522205D01*
X119159305Y-87569824D01*
X118968829Y-87617443D01*
X118730733Y-87617443D01*
X118540257Y-87569824D01*
X118445019Y-87522205D01*
X118397400Y-87474586D01*
X118349781Y-87379348D01*
X118778352Y-86474586D02*
X118730733Y-86569824D01*
X118683114Y-86617443D01*
X118587876Y-86665062D01*
X118540257Y-86665062D01*
X118445019Y-86617443D01*
X118397400Y-86569824D01*
X118349781Y-86474586D01*
X118349781Y-86284109D01*
X118397400Y-86188871D01*
X118445019Y-86141252D01*
X118540257Y-86093633D01*
X118587876Y-86093633D01*
X118683114Y-86141252D01*
X118730733Y-86188871D01*
X118778352Y-86284109D01*
X118778352Y-86474586D01*
X118825971Y-86569824D01*
X118873590Y-86617443D01*
X118968829Y-86665062D01*
X119159305Y-86665062D01*
X119254543Y-86617443D01*
X119302162Y-86569824D01*
X119349781Y-86474586D01*
X119349781Y-86284109D01*
X119302162Y-86188871D01*
X119254543Y-86141252D01*
X119159305Y-86093633D01*
X118968829Y-86093633D01*
X118873590Y-86141252D01*
X118825971Y-86188871D01*
X118778352Y-86284109D01*
X134762976Y-100544381D02*
X135429643Y-101544381D01*
X135429643Y-100544381D02*
X134762976Y-101544381D01*
X136334405Y-101544381D02*
X135762976Y-101544381D01*
X136048690Y-101544381D02*
X136048690Y-100544381D01*
X135953452Y-100687238D01*
X135858214Y-100782476D01*
X135762976Y-100830095D01*
X133920124Y-108224581D02*
X133348695Y-108224581D01*
X133634409Y-108224581D02*
X133634409Y-107224581D01*
X133539171Y-107367438D01*
X133443933Y-107462676D01*
X133348695Y-107510295D01*
X134777267Y-107224581D02*
X134586790Y-107224581D01*
X134491552Y-107272200D01*
X134443933Y-107319819D01*
X134348695Y-107462676D01*
X134301076Y-107653152D01*
X134301076Y-108034105D01*
X134348695Y-108129343D01*
X134396314Y-108176962D01*
X134491552Y-108224581D01*
X134682029Y-108224581D01*
X134777267Y-108176962D01*
X134824886Y-108129343D01*
X134872505Y-108034105D01*
X134872505Y-107796010D01*
X134824886Y-107700771D01*
X134777267Y-107653152D01*
X134682029Y-107605533D01*
X134491552Y-107605533D01*
X134396314Y-107653152D01*
X134348695Y-107700771D01*
X134301076Y-107796010D01*
X135301076Y-108224581D02*
X135301076Y-107224581D01*
X135634410Y-107938867D01*
X135967743Y-107224581D01*
X135967743Y-108224581D01*
X136443933Y-108224581D02*
X136443933Y-107224581D01*
X136443933Y-107700771D02*
X137015362Y-107700771D01*
X137015362Y-108224581D02*
X137015362Y-107224581D01*
X137396314Y-107557914D02*
X137920124Y-107557914D01*
X137396314Y-108224581D01*
X137920124Y-108224581D01*
D13*
X147317619Y-124379524D02*
X147317619Y-123319524D01*
X147721428Y-123319524D01*
X147822381Y-123370000D01*
X147872857Y-123420476D01*
X147923333Y-123521429D01*
X147923333Y-123672857D01*
X147872857Y-123773810D01*
X147822381Y-123824286D01*
X147721428Y-123874762D01*
X147317619Y-123874762D01*
X148831905Y-123672857D02*
X148831905Y-124379524D01*
X148579524Y-123269048D02*
X148327143Y-124026190D01*
X148983333Y-124026190D01*
X145651905Y-128729048D02*
X145803333Y-128779524D01*
X146055714Y-128779524D01*
X146156667Y-128729048D01*
X146207143Y-128678571D01*
X146257619Y-128577619D01*
X146257619Y-128476667D01*
X146207143Y-128375714D01*
X146156667Y-128325238D01*
X146055714Y-128274762D01*
X145853810Y-128224286D01*
X145752857Y-128173810D01*
X145702381Y-128123333D01*
X145651905Y-128022381D01*
X145651905Y-127921429D01*
X145702381Y-127820476D01*
X145752857Y-127770000D01*
X145853810Y-127719524D01*
X146106190Y-127719524D01*
X146257619Y-127770000D01*
X146711905Y-128224286D02*
X147065238Y-128224286D01*
X147216667Y-128779524D02*
X146711905Y-128779524D01*
X146711905Y-127719524D01*
X147216667Y-127719524D01*
X148276667Y-128779524D02*
X147923334Y-128274762D01*
X147670953Y-128779524D02*
X147670953Y-127719524D01*
X148074762Y-127719524D01*
X148175715Y-127770000D01*
X148226191Y-127820476D01*
X148276667Y-127921429D01*
X148276667Y-128072857D01*
X148226191Y-128173810D01*
X148175715Y-128224286D01*
X148074762Y-128274762D01*
X147670953Y-128274762D01*
X148730953Y-128779524D02*
X148730953Y-127719524D01*
X149185239Y-128476667D02*
X149690001Y-128476667D01*
X149084286Y-128779524D02*
X149437620Y-127719524D01*
X149790953Y-128779524D01*
X150649048Y-128779524D02*
X150144286Y-128779524D01*
X150144286Y-127719524D01*
D14*
X106949285Y-72993613D02*
X106949285Y-72361153D01*
X107190222Y-72361153D01*
X107250456Y-72391270D01*
X107280573Y-72421387D01*
X107310690Y-72481621D01*
X107310690Y-72571973D01*
X107280573Y-72632207D01*
X107250456Y-72662324D01*
X107190222Y-72692441D01*
X106949285Y-72692441D01*
X107913033Y-72993613D02*
X107551628Y-72993613D01*
X107732330Y-72993613D02*
X107732330Y-72361153D01*
X107672096Y-72451504D01*
X107611862Y-72511739D01*
X107551628Y-72541856D01*
X109699879Y-100730231D02*
X109729996Y-100760348D01*
X109760113Y-100850699D01*
X109760113Y-100910933D01*
X109729996Y-101001285D01*
X109669761Y-101061519D01*
X109609527Y-101091636D01*
X109489059Y-101121753D01*
X109398707Y-101121753D01*
X109278239Y-101091636D01*
X109218004Y-101061519D01*
X109157770Y-101001285D01*
X109127653Y-100910933D01*
X109127653Y-100850699D01*
X109157770Y-100760348D01*
X109187887Y-100730231D01*
X109127653Y-100338708D02*
X109127653Y-100218239D01*
X109157770Y-100158005D01*
X109218004Y-100097771D01*
X109338473Y-100067653D01*
X109549293Y-100067653D01*
X109669761Y-100097771D01*
X109729996Y-100158005D01*
X109760113Y-100218239D01*
X109760113Y-100338708D01*
X109729996Y-100398942D01*
X109669761Y-100459176D01*
X109549293Y-100489293D01*
X109338473Y-100489293D01*
X109218004Y-100459176D01*
X109157770Y-100398942D01*
X109127653Y-100338708D01*
X109760113Y-99796599D02*
X109127653Y-99796599D01*
X109579410Y-99585779D01*
X109127653Y-99374959D01*
X109760113Y-99374959D01*
X109760113Y-99073788D02*
X109127653Y-99073788D01*
X109127653Y-98832851D01*
X109157770Y-98772617D01*
X109187887Y-98742500D01*
X109248121Y-98712383D01*
X109338473Y-98712383D01*
X109398707Y-98742500D01*
X109428824Y-98772617D01*
X109458941Y-98832851D01*
X109458941Y-99073788D01*
X109127653Y-98441328D02*
X109639644Y-98441328D01*
X109699879Y-98411211D01*
X109729996Y-98381094D01*
X109760113Y-98320860D01*
X109760113Y-98200391D01*
X109729996Y-98140157D01*
X109699879Y-98110040D01*
X109639644Y-98079923D01*
X109127653Y-98079923D01*
X109127653Y-97869103D02*
X109127653Y-97507697D01*
X109760113Y-97688400D02*
X109127653Y-97688400D01*
X109428824Y-97296877D02*
X109428824Y-97086057D01*
X109760113Y-96995706D02*
X109760113Y-97296877D01*
X109127653Y-97296877D01*
X109127653Y-96995706D01*
X109760113Y-96363246D02*
X109458941Y-96574066D01*
X109760113Y-96724651D02*
X109127653Y-96724651D01*
X109127653Y-96483714D01*
X109157770Y-96423480D01*
X109187887Y-96393363D01*
X109248121Y-96363246D01*
X109338473Y-96363246D01*
X109398707Y-96393363D01*
X109428824Y-96423480D01*
X109458941Y-96483714D01*
X109458941Y-96724651D01*
X181422285Y-72980913D02*
X181422285Y-72348453D01*
X181663222Y-72348453D01*
X181723456Y-72378570D01*
X181753573Y-72408687D01*
X181783690Y-72468921D01*
X181783690Y-72559273D01*
X181753573Y-72619507D01*
X181723456Y-72649624D01*
X181663222Y-72679741D01*
X181422285Y-72679741D01*
X182024628Y-72408687D02*
X182054745Y-72378570D01*
X182114979Y-72348453D01*
X182265565Y-72348453D01*
X182325799Y-72378570D01*
X182355916Y-72408687D01*
X182386033Y-72468921D01*
X182386033Y-72529156D01*
X182355916Y-72619507D01*
X181994510Y-72980913D01*
X182386033Y-72980913D01*
X180105113Y-101003644D02*
X179472653Y-101003644D01*
X180105113Y-100642239D02*
X179743707Y-100913293D01*
X179472653Y-100642239D02*
X179834059Y-101003644D01*
X179773824Y-100371184D02*
X179773824Y-100160364D01*
X180105113Y-100070013D02*
X180105113Y-100371184D01*
X179472653Y-100371184D01*
X179472653Y-100070013D01*
X179803941Y-99678490D02*
X180105113Y-99678490D01*
X179472653Y-99889310D02*
X179803941Y-99678490D01*
X179472653Y-99467670D01*
X179773824Y-99046029D02*
X179803941Y-98955678D01*
X179834059Y-98925561D01*
X179894293Y-98895444D01*
X179984644Y-98895444D01*
X180044879Y-98925561D01*
X180074996Y-98955678D01*
X180105113Y-99015912D01*
X180105113Y-99256849D01*
X179472653Y-99256849D01*
X179472653Y-99046029D01*
X179502770Y-98985795D01*
X179532887Y-98955678D01*
X179593121Y-98925561D01*
X179653356Y-98925561D01*
X179713590Y-98955678D01*
X179743707Y-98985795D01*
X179773824Y-99046029D01*
X179773824Y-99256849D01*
X179472653Y-98503921D02*
X179472653Y-98383452D01*
X179502770Y-98323218D01*
X179563004Y-98262984D01*
X179683473Y-98232866D01*
X179894293Y-98232866D01*
X180014761Y-98262984D01*
X180074996Y-98323218D01*
X180105113Y-98383452D01*
X180105113Y-98503921D01*
X180074996Y-98564155D01*
X180014761Y-98624389D01*
X179894293Y-98654506D01*
X179683473Y-98654506D01*
X179563004Y-98624389D01*
X179502770Y-98564155D01*
X179472653Y-98503921D01*
X179924410Y-97991929D02*
X179924410Y-97690758D01*
X180105113Y-98052164D02*
X179472653Y-97841344D01*
X180105113Y-97630524D01*
X180105113Y-97058298D02*
X179803941Y-97269118D01*
X180105113Y-97419703D02*
X179472653Y-97419703D01*
X179472653Y-97178766D01*
X179502770Y-97118532D01*
X179532887Y-97088415D01*
X179593121Y-97058298D01*
X179683473Y-97058298D01*
X179743707Y-97088415D01*
X179773824Y-97118532D01*
X179803941Y-97178766D01*
X179803941Y-97419703D01*
X180105113Y-96787243D02*
X179472653Y-96787243D01*
X179472653Y-96636658D01*
X179502770Y-96546306D01*
X179563004Y-96486072D01*
X179623239Y-96455955D01*
X179743707Y-96425838D01*
X179834059Y-96425838D01*
X179954527Y-96455955D01*
X180014761Y-96486072D01*
X180074996Y-96546306D01*
X180105113Y-96636658D01*
X180105113Y-96787243D01*
D13*
X166521396Y-122963619D02*
X166521396Y-121947619D01*
X166908443Y-121947619D01*
X167005205Y-121996000D01*
X167053586Y-122044381D01*
X167101967Y-122141143D01*
X167101967Y-122286286D01*
X167053586Y-122383048D01*
X167005205Y-122431429D01*
X166908443Y-122479810D01*
X166521396Y-122479810D01*
X168021205Y-121947619D02*
X167537396Y-121947619D01*
X167489015Y-122431429D01*
X167537396Y-122383048D01*
X167634158Y-122334667D01*
X167876062Y-122334667D01*
X167972824Y-122383048D01*
X168021205Y-122431429D01*
X168069586Y-122528190D01*
X168069586Y-122770095D01*
X168021205Y-122866857D01*
X167972824Y-122915238D01*
X167876062Y-122963619D01*
X167634158Y-122963619D01*
X167537396Y-122915238D01*
X167489015Y-122866857D01*
X164682919Y-129572457D02*
X164634538Y-129620838D01*
X164489395Y-129669219D01*
X164392633Y-129669219D01*
X164247491Y-129620838D01*
X164150729Y-129524076D01*
X164102348Y-129427314D01*
X164053967Y-129233790D01*
X164053967Y-129088648D01*
X164102348Y-128895124D01*
X164150729Y-128798362D01*
X164247491Y-128701600D01*
X164392633Y-128653219D01*
X164489395Y-128653219D01*
X164634538Y-128701600D01*
X164682919Y-128749981D01*
X165311872Y-128653219D02*
X165505395Y-128653219D01*
X165602157Y-128701600D01*
X165698919Y-128798362D01*
X165747300Y-128991886D01*
X165747300Y-129330552D01*
X165698919Y-129524076D01*
X165602157Y-129620838D01*
X165505395Y-129669219D01*
X165311872Y-129669219D01*
X165215110Y-129620838D01*
X165118348Y-129524076D01*
X165069967Y-129330552D01*
X165069967Y-128991886D01*
X165118348Y-128798362D01*
X165215110Y-128701600D01*
X165311872Y-128653219D01*
X166182729Y-129669219D02*
X166182729Y-128653219D01*
X166763300Y-129669219D01*
X166763300Y-128653219D01*
X167101967Y-128653219D02*
X167682538Y-128653219D01*
X167392253Y-129669219D02*
X167392253Y-128653219D01*
X168601776Y-129669219D02*
X168263110Y-129185410D01*
X168021205Y-129669219D02*
X168021205Y-128653219D01*
X168408252Y-128653219D01*
X168505014Y-128701600D01*
X168553395Y-128749981D01*
X168601776Y-128846743D01*
X168601776Y-128991886D01*
X168553395Y-129088648D01*
X168505014Y-129137029D01*
X168408252Y-129185410D01*
X168021205Y-129185410D01*
X169230729Y-128653219D02*
X169424252Y-128653219D01*
X169521014Y-128701600D01*
X169617776Y-128798362D01*
X169666157Y-128991886D01*
X169666157Y-129330552D01*
X169617776Y-129524076D01*
X169521014Y-129620838D01*
X169424252Y-129669219D01*
X169230729Y-129669219D01*
X169133967Y-129620838D01*
X169037205Y-129524076D01*
X168988824Y-129330552D01*
X168988824Y-128991886D01*
X169037205Y-128798362D01*
X169133967Y-128701600D01*
X169230729Y-128653219D01*
X170585395Y-129669219D02*
X170101586Y-129669219D01*
X170101586Y-128653219D01*
D14*
X113618981Y-127797053D02*
X113618981Y-128248810D01*
X113588863Y-128339161D01*
X113528629Y-128399396D01*
X113438278Y-128429513D01*
X113378043Y-128429513D01*
X114251440Y-128429513D02*
X113890035Y-128429513D01*
X114070737Y-128429513D02*
X114070737Y-127797053D01*
X114010503Y-127887404D01*
X113950269Y-127947639D01*
X113890035Y-127977756D01*
D10*
X116896857Y-130464286D02*
X116896857Y-129714286D01*
X117182572Y-129714286D01*
X117254000Y-129750000D01*
X117289715Y-129785714D01*
X117325429Y-129857143D01*
X117325429Y-129964286D01*
X117289715Y-130035714D01*
X117254000Y-130071429D01*
X117182572Y-130107143D01*
X116896857Y-130107143D01*
X117789715Y-129714286D02*
X117932572Y-129714286D01*
X118004000Y-129750000D01*
X118075429Y-129821429D01*
X118111143Y-129964286D01*
X118111143Y-130214286D01*
X118075429Y-130357143D01*
X118004000Y-130428571D01*
X117932572Y-130464286D01*
X117789715Y-130464286D01*
X117718286Y-130428571D01*
X117646857Y-130357143D01*
X117611143Y-130214286D01*
X117611143Y-129964286D01*
X117646857Y-129821429D01*
X117718286Y-129750000D01*
X117789715Y-129714286D01*
X118361143Y-129714286D02*
X118539714Y-130464286D01*
X118682571Y-129928571D01*
X118825429Y-130464286D01*
X119004000Y-129714286D01*
X119289714Y-130071429D02*
X119539714Y-130071429D01*
X119646857Y-130464286D02*
X119289714Y-130464286D01*
X119289714Y-129714286D01*
X119646857Y-129714286D01*
X120396857Y-130464286D02*
X120146857Y-130107143D01*
X119968285Y-130464286D02*
X119968285Y-129714286D01*
X120254000Y-129714286D01*
X120325428Y-129750000D01*
X120361143Y-129785714D01*
X120396857Y-129857143D01*
X120396857Y-129964286D01*
X120361143Y-130035714D01*
X120325428Y-130071429D01*
X120254000Y-130107143D01*
X119968285Y-130107143D01*
X130256428Y-113826486D02*
X130256428Y-113076486D01*
X130435000Y-113076486D01*
X130542143Y-113112200D01*
X130613571Y-113183629D01*
X130649286Y-113255057D01*
X130685000Y-113397914D01*
X130685000Y-113505057D01*
X130649286Y-113647914D01*
X130613571Y-113719343D01*
X130542143Y-113790771D01*
X130435000Y-113826486D01*
X130256428Y-113826486D01*
X131399286Y-113826486D02*
X130970714Y-113826486D01*
X131185000Y-113826486D02*
X131185000Y-113076486D01*
X131113571Y-113183629D01*
X131042143Y-113255057D01*
X130970714Y-113290771D01*
X136098428Y-113826486D02*
X136098428Y-113076486D01*
X136277000Y-113076486D01*
X136384143Y-113112200D01*
X136455571Y-113183629D01*
X136491286Y-113255057D01*
X136527000Y-113397914D01*
X136527000Y-113505057D01*
X136491286Y-113647914D01*
X136455571Y-113719343D01*
X136384143Y-113790771D01*
X136277000Y-113826486D01*
X136098428Y-113826486D01*
X136812714Y-113147914D02*
X136848428Y-113112200D01*
X136919857Y-113076486D01*
X137098428Y-113076486D01*
X137169857Y-113112200D01*
X137205571Y-113147914D01*
X137241286Y-113219343D01*
X137241286Y-113290771D01*
X137205571Y-113397914D01*
X136777000Y-113826486D01*
X137241286Y-113826486D01*
X124356095Y-109546381D02*
X124356095Y-110355905D01*
X124403714Y-110451143D01*
X124451333Y-110498762D01*
X124546571Y-110546381D01*
X124737048Y-110546381D01*
X124832286Y-110498762D01*
X124879905Y-110451143D01*
X124927524Y-110355905D01*
X124927524Y-109546381D01*
X125308476Y-109546381D02*
X125975143Y-109546381D01*
X125546571Y-110546381D01*
X116252952Y-117546381D02*
X116252952Y-116546381D01*
X116586286Y-117260667D01*
X116919619Y-116546381D01*
X116919619Y-117546381D01*
X117252952Y-116546381D02*
X117824381Y-116546381D01*
X117538666Y-117546381D02*
X117538666Y-116546381D01*
X118300571Y-116974952D02*
X118205333Y-116927333D01*
X118157714Y-116879714D01*
X118110095Y-116784476D01*
X118110095Y-116736857D01*
X118157714Y-116641619D01*
X118205333Y-116594000D01*
X118300571Y-116546381D01*
X118491048Y-116546381D01*
X118586286Y-116594000D01*
X118633905Y-116641619D01*
X118681524Y-116736857D01*
X118681524Y-116784476D01*
X118633905Y-116879714D01*
X118586286Y-116927333D01*
X118491048Y-116974952D01*
X118300571Y-116974952D01*
X118205333Y-117022571D01*
X118157714Y-117070190D01*
X118110095Y-117165429D01*
X118110095Y-117355905D01*
X118157714Y-117451143D01*
X118205333Y-117498762D01*
X118300571Y-117546381D01*
X118491048Y-117546381D01*
X118586286Y-117498762D01*
X118633905Y-117451143D01*
X118681524Y-117355905D01*
X118681524Y-117165429D01*
X118633905Y-117070190D01*
X118586286Y-117022571D01*
X118491048Y-116974952D01*
X119252952Y-116974952D02*
X119157714Y-116927333D01*
X119110095Y-116879714D01*
X119062476Y-116784476D01*
X119062476Y-116736857D01*
X119110095Y-116641619D01*
X119157714Y-116594000D01*
X119252952Y-116546381D01*
X119443429Y-116546381D01*
X119538667Y-116594000D01*
X119586286Y-116641619D01*
X119633905Y-116736857D01*
X119633905Y-116784476D01*
X119586286Y-116879714D01*
X119538667Y-116927333D01*
X119443429Y-116974952D01*
X119252952Y-116974952D01*
X119157714Y-117022571D01*
X119110095Y-117070190D01*
X119062476Y-117165429D01*
X119062476Y-117355905D01*
X119110095Y-117451143D01*
X119157714Y-117498762D01*
X119252952Y-117546381D01*
X119443429Y-117546381D01*
X119538667Y-117498762D01*
X119586286Y-117451143D01*
X119633905Y-117355905D01*
X119633905Y-117165429D01*
X119586286Y-117070190D01*
X119538667Y-117022571D01*
X119443429Y-116974952D01*
X120252952Y-116546381D02*
X120348191Y-116546381D01*
X120443429Y-116594000D01*
X120491048Y-116641619D01*
X120538667Y-116736857D01*
X120586286Y-116927333D01*
X120586286Y-117165429D01*
X120538667Y-117355905D01*
X120491048Y-117451143D01*
X120443429Y-117498762D01*
X120348191Y-117546381D01*
X120252952Y-117546381D01*
X120157714Y-117498762D01*
X120110095Y-117451143D01*
X120062476Y-117355905D01*
X120014857Y-117165429D01*
X120014857Y-116927333D01*
X120062476Y-116736857D01*
X120110095Y-116641619D01*
X120157714Y-116594000D01*
X120252952Y-116546381D01*
X121157714Y-116974952D02*
X121062476Y-116927333D01*
X121014857Y-116879714D01*
X120967238Y-116784476D01*
X120967238Y-116736857D01*
X121014857Y-116641619D01*
X121062476Y-116594000D01*
X121157714Y-116546381D01*
X121348191Y-116546381D01*
X121443429Y-116594000D01*
X121491048Y-116641619D01*
X121538667Y-116736857D01*
X121538667Y-116784476D01*
X121491048Y-116879714D01*
X121443429Y-116927333D01*
X121348191Y-116974952D01*
X121157714Y-116974952D01*
X121062476Y-117022571D01*
X121014857Y-117070190D01*
X120967238Y-117165429D01*
X120967238Y-117355905D01*
X121014857Y-117451143D01*
X121062476Y-117498762D01*
X121157714Y-117546381D01*
X121348191Y-117546381D01*
X121443429Y-117498762D01*
X121491048Y-117451143D01*
X121538667Y-117355905D01*
X121538667Y-117165429D01*
X121491048Y-117070190D01*
X121443429Y-117022571D01*
X121348191Y-116974952D01*
%LPC*%
D15*
X164414000Y-69176900D03*
D16*
X161914000Y-69176900D03*
D15*
X130391000Y-99568000D03*
D16*
X130391000Y-97068000D03*
D15*
X130391000Y-105105000D03*
D16*
X130391000Y-102605000D03*
D15*
X175285000Y-69176900D03*
D16*
X172785000Y-69176900D03*
D15*
X164414000Y-95821500D03*
D16*
X161914000Y-95821500D03*
D15*
X175349000Y-95859600D03*
D16*
X172849000Y-95859600D03*
D15*
X130391000Y-93840300D03*
D16*
X130391000Y-91340300D03*
D15*
X136842000Y-93281500D03*
D16*
X134342000Y-93281500D03*
D17*
X140322000Y-71843900D03*
D18*
X140322000Y-74383900D03*
X140322000Y-76923900D03*
X140322000Y-79463900D03*
X140322000Y-82003900D03*
X140322000Y-84543900D03*
X140322000Y-87083900D03*
X140322000Y-89623900D03*
X140322000Y-92163900D03*
X140322000Y-94703900D03*
X140322000Y-97243900D03*
X140322000Y-99783900D03*
X140322000Y-102323900D03*
X140322000Y-104863900D03*
X140322000Y-107403900D03*
X140322000Y-109943900D03*
X140322000Y-112483900D03*
X140322000Y-115023900D03*
X140322000Y-117563900D03*
X140322000Y-120103900D03*
X155562000Y-120103900D03*
X155562000Y-117563900D03*
X155562000Y-115023900D03*
X155562000Y-112483900D03*
X155562000Y-109943900D03*
X155562000Y-107403900D03*
X155562000Y-104863900D03*
X155562000Y-102323900D03*
X155562000Y-99783900D03*
X155562000Y-97243900D03*
X155562000Y-94703900D03*
X155562000Y-92163900D03*
X155562000Y-89623900D03*
X155562000Y-87083900D03*
X155562000Y-84543900D03*
X155562000Y-82003900D03*
X155562000Y-79463900D03*
X155562000Y-76923900D03*
X155562000Y-74383900D03*
X155562000Y-71843900D03*
D19*
X137762000Y-128016000D03*
X130462000Y-128016000D03*
D20*
X134912000Y-124166000D03*
X133312000Y-124166000D03*
X135712000Y-122966000D03*
X134112000Y-122966000D03*
X132512000Y-122966000D03*
D18*
X129540000Y-111506000D03*
X132080000Y-111506000D03*
X132080000Y-117602000D03*
X132080000Y-120142000D03*
X135382000Y-117602000D03*
X135382000Y-120142000D03*
X137198000Y-69469000D03*
X137198000Y-74549000D03*
X129578000Y-69469000D03*
X129578000Y-74549000D03*
X137198000Y-80162400D03*
X137198000Y-85242400D03*
X129578000Y-80162400D03*
X129578000Y-85242400D03*
D17*
X159322000Y-73342500D03*
D18*
X159322000Y-75882500D03*
X159322000Y-78422500D03*
X159322000Y-80962500D03*
X159322000Y-83502500D03*
X159322000Y-86042500D03*
X159322000Y-88582500D03*
X166942000Y-88582500D03*
X166942000Y-86042500D03*
X166942000Y-83502500D03*
X166942000Y-80962500D03*
X166942000Y-78422500D03*
X166942000Y-75882500D03*
X166942000Y-73342500D03*
D17*
X159347000Y-99974000D03*
D18*
X159347000Y-102514000D03*
X159347000Y-105054000D03*
X159347000Y-107594000D03*
X159347000Y-110134000D03*
X159347000Y-112674000D03*
X159347000Y-115214000D03*
X159347000Y-117754000D03*
X166967000Y-117754000D03*
X166967000Y-115214000D03*
X166967000Y-112674000D03*
X166967000Y-110134000D03*
X166967000Y-107594000D03*
X166967000Y-105054000D03*
X166967000Y-102514000D03*
X166967000Y-99974000D03*
D17*
X170218000Y-73355200D03*
D18*
X170218000Y-75895200D03*
X170218000Y-78435200D03*
X170218000Y-80975200D03*
X170218000Y-83515200D03*
X170218000Y-86055200D03*
X170218000Y-88595200D03*
X170218000Y-91135200D03*
X177838000Y-91135200D03*
X177838000Y-88595200D03*
X177838000Y-86055200D03*
X177838000Y-83515200D03*
X177838000Y-80975200D03*
X177838000Y-78435200D03*
X177838000Y-75895200D03*
X177838000Y-73355200D03*
D17*
X170307000Y-99962000D03*
D18*
X170307000Y-102502000D03*
X170307000Y-105042000D03*
X170307000Y-107582000D03*
X170307000Y-110122000D03*
X170307000Y-112662000D03*
X170307000Y-115202000D03*
X170307000Y-117742000D03*
X177927000Y-117742000D03*
X177927000Y-115202000D03*
X177927000Y-112662000D03*
X177927000Y-110122000D03*
X177927000Y-107582000D03*
X177927000Y-105042000D03*
X177927000Y-102502000D03*
X177927000Y-99962000D03*
D17*
X111277000Y-72237600D03*
D18*
X111277000Y-74777600D03*
X111277000Y-77317600D03*
X111277000Y-79857600D03*
X111277000Y-82397600D03*
X111277000Y-84937600D03*
X111277000Y-87477600D03*
X111277000Y-90017600D03*
X111277000Y-92557600D03*
X111277000Y-95097600D03*
X111277000Y-97637600D03*
X111277000Y-100177600D03*
X111277000Y-102717600D03*
X111277000Y-105257600D03*
X126517000Y-105257600D03*
X126517000Y-102717600D03*
X126517000Y-100177600D03*
X126517000Y-97637600D03*
X126517000Y-95097600D03*
X126517000Y-92557600D03*
X126517000Y-90017600D03*
X126517000Y-87477600D03*
X126517000Y-84937600D03*
X126517000Y-82397600D03*
X126517000Y-79857600D03*
X126517000Y-77317600D03*
X126517000Y-74777600D03*
X126517000Y-72237600D03*
D21*
X135572000Y-103632000D03*
X135572000Y-98552000D03*
D22*
X149390000Y-126035000D03*
D23*
X146850000Y-126035000D03*
D22*
X107378000Y-122859800D03*
D23*
X107378000Y-120319800D03*
X107378000Y-117779800D03*
X107378000Y-115239800D03*
X107378000Y-112699800D03*
X107378000Y-110159800D03*
X107378000Y-107619800D03*
X107378000Y-105079800D03*
X107378000Y-102539800D03*
X107378000Y-99999800D03*
X107378000Y-97459800D03*
X107378000Y-94919800D03*
X107378000Y-92379800D03*
X107378000Y-89839800D03*
X107378000Y-87299800D03*
X107378000Y-84759800D03*
X107378000Y-82219800D03*
X107378000Y-79679800D03*
X107378000Y-77139800D03*
X107378000Y-74599800D03*
D22*
X181851000Y-122859800D03*
D23*
X181851000Y-120319800D03*
X181851000Y-117779800D03*
X181851000Y-115239800D03*
X181851000Y-112699800D03*
X181851000Y-110159800D03*
X181851000Y-107619800D03*
X181851000Y-105079800D03*
X181851000Y-102539800D03*
X181851000Y-99999800D03*
X181851000Y-97459800D03*
X181851000Y-94919800D03*
X181851000Y-92379800D03*
X181851000Y-89839800D03*
X181851000Y-87299800D03*
X181851000Y-84759800D03*
X181851000Y-82219800D03*
X181851000Y-79679800D03*
X181851000Y-77139800D03*
X181851000Y-74599800D03*
D22*
X176174000Y-124536000D03*
D23*
X176174000Y-127076000D03*
X173634000Y-124536000D03*
X173634000Y-127076000D03*
X171094000Y-124536000D03*
X171094000Y-127076000D03*
X168554000Y-124536000D03*
X168554000Y-127076000D03*
X166014000Y-124536000D03*
X166014000Y-127076000D03*
X163474000Y-124536000D03*
X163474000Y-127076000D03*
X160934000Y-124536000D03*
X160934000Y-127076000D03*
X158394000Y-124536000D03*
X158394000Y-127076000D03*
D22*
X116078000Y-128143000D03*
D23*
X118618000Y-128143000D03*
X121158000Y-128143000D03*
D18*
X132080000Y-115062000D03*
X129540000Y-115062000D03*
X135382000Y-115062000D03*
X137922000Y-115062000D03*
D24*
X107793000Y-127906000D03*
X181437000Y-127906000D03*
X107793000Y-69540400D03*
X181462000Y-69540400D03*
D17*
X119888000Y-113284000D03*
D18*
X117348000Y-110744000D03*
X117348000Y-113284000D03*
X114808000Y-110744000D03*
X112268000Y-113284000D03*
X114808000Y-113284000D03*
X112268000Y-115824000D03*
X114808000Y-115824000D03*
X112268000Y-118364000D03*
X114808000Y-118364000D03*
X112268000Y-120904000D03*
X114808000Y-123444000D03*
X114808000Y-120904000D03*
X117348000Y-123444000D03*
X117348000Y-120904000D03*
X119888000Y-123444000D03*
X119888000Y-120904000D03*
X122428000Y-123444000D03*
X124968000Y-120904000D03*
X122428000Y-120904000D03*
X124968000Y-118364000D03*
X122428000Y-118364000D03*
X124968000Y-115824000D03*
X122428000Y-115824000D03*
X124968000Y-113284000D03*
X122428000Y-110744000D03*
X122428000Y-113284000D03*
X119888000Y-110744000D03*
M02*
