G04 #@! TF.FileFunction,Soldermask,Top*
%FSLAX46Y46*%
G04 Gerber Fmt 4.6, Leading zero omitted, Abs format (unit mm)*
G04 Created by KiCad (PCBNEW 4.0.0-rc2-stable) date 03.12.2015 10:46:45*
%MOMM*%
G01*
G04 APERTURE LIST*
%ADD10C,0.150000*%
%ADD11C,0.100000*%
%ADD12R,1.300000X1.300000*%
%ADD13C,1.300000*%
%ADD14R,1.397000X1.397000*%
%ADD15C,1.397000*%
%ADD16O,1.100000X2.300000*%
%ADD17C,1.000000*%
%ADD18C,1.422400*%
%ADD19R,1.524000X1.524000*%
%ADD20C,1.524000*%
G04 APERTURE END LIST*
D10*
D11*
X184607200Y-131076700D02*
X184607200Y-128587500D01*
X104622600Y-131076700D02*
X184607200Y-131076700D01*
X104622600Y-128587500D02*
X104622600Y-131076700D01*
X184607200Y-66370200D02*
X184607200Y-68872100D01*
X104622600Y-66370200D02*
X184607200Y-66370200D01*
X104622600Y-68872100D02*
X104622600Y-66370200D01*
X184607200Y-128587500D02*
X184607200Y-68872100D01*
X104622600Y-68872100D02*
X104622600Y-128587500D01*
D12*
X164414200Y-69176900D03*
D13*
X161914200Y-69176900D03*
D12*
X130390900Y-99568000D03*
D13*
X130390900Y-97068000D03*
D12*
X130390900Y-105105200D03*
D13*
X130390900Y-102605200D03*
D12*
X112433100Y-116840000D03*
D13*
X112433100Y-119340000D03*
D12*
X117805200Y-124129800D03*
D13*
X120305200Y-124129800D03*
D12*
X175285400Y-69176900D03*
D13*
X172785400Y-69176900D03*
D12*
X164414200Y-95821500D03*
D13*
X161914200Y-95821500D03*
D12*
X175348900Y-95859600D03*
D13*
X172848900Y-95859600D03*
D12*
X120256300Y-109410500D03*
D13*
X117756300Y-109410500D03*
D12*
X130390900Y-93840300D03*
D13*
X130390900Y-91340300D03*
D12*
X136842500Y-93281500D03*
D13*
X134342500Y-93281500D03*
D14*
X140322000Y-71843900D03*
D15*
X140322000Y-74383900D03*
X140322000Y-76923900D03*
X140322000Y-79463900D03*
X140322000Y-82003900D03*
X140322000Y-84543900D03*
X140322000Y-87083900D03*
X140322000Y-89623900D03*
X140322000Y-92163900D03*
X140322000Y-94703900D03*
X140322000Y-97243900D03*
X140322000Y-99783900D03*
X140322000Y-102323900D03*
X140322000Y-104863900D03*
X140322000Y-107403900D03*
X140322000Y-109943900D03*
X140322000Y-112483900D03*
X140322000Y-115023900D03*
X140322000Y-117563900D03*
X140322000Y-120103900D03*
X155562000Y-120103900D03*
X155562000Y-117563900D03*
X155562000Y-115023900D03*
X155562000Y-112483900D03*
X155562000Y-109943900D03*
X155562000Y-107403900D03*
X155562000Y-104863900D03*
X155562000Y-102323900D03*
X155562000Y-99783900D03*
X155562000Y-97243900D03*
X155562000Y-94703900D03*
X155562000Y-92163900D03*
X155562000Y-89623900D03*
X155562000Y-87083900D03*
X155562000Y-84543900D03*
X155562000Y-82003900D03*
X155562000Y-79463900D03*
X155562000Y-76923900D03*
X155562000Y-74383900D03*
X155562000Y-71843900D03*
D16*
X137114000Y-128294000D03*
X129814000Y-128294000D03*
D17*
X134264000Y-124444000D03*
X132664000Y-124444000D03*
X135064000Y-123244000D03*
X133464000Y-123244000D03*
X131864000Y-123244000D03*
D15*
X127635000Y-111633000D03*
X130175000Y-111633000D03*
X131153000Y-117805000D03*
X131153000Y-120345000D03*
X134976000Y-117792000D03*
X134976000Y-120332000D03*
X137198000Y-69469000D03*
X137198000Y-74549000D03*
X129578000Y-69469000D03*
X129578000Y-74549000D03*
X137198000Y-80162400D03*
X137198000Y-85242400D03*
X129578000Y-80162400D03*
X129578000Y-85242400D03*
D14*
X159322000Y-73342500D03*
D15*
X159322000Y-75882500D03*
X159322000Y-78422500D03*
X159322000Y-80962500D03*
X159322000Y-83502500D03*
X159322000Y-86042500D03*
X159322000Y-88582500D03*
X166942000Y-88582500D03*
X166942000Y-86042500D03*
X166942000Y-83502500D03*
X166942000Y-80962500D03*
X166942000Y-78422500D03*
X166942000Y-75882500D03*
X166942000Y-73342500D03*
D14*
X115252000Y-113030000D03*
D15*
X115252000Y-115570000D03*
X115252000Y-118110000D03*
X115252000Y-120650000D03*
X122872000Y-120650000D03*
X122872000Y-118110000D03*
X122872000Y-115570000D03*
X122872000Y-113030000D03*
D14*
X159347000Y-99974000D03*
D15*
X159347000Y-102514000D03*
X159347000Y-105054000D03*
X159347000Y-107594000D03*
X159347000Y-110134000D03*
X159347000Y-112674000D03*
X159347000Y-115214000D03*
X159347000Y-117754000D03*
X166967000Y-117754000D03*
X166967000Y-115214000D03*
X166967000Y-112674000D03*
X166967000Y-110134000D03*
X166967000Y-107594000D03*
X166967000Y-105054000D03*
X166967000Y-102514000D03*
X166967000Y-99974000D03*
D14*
X170218000Y-73355200D03*
D15*
X170218000Y-75895200D03*
X170218000Y-78435200D03*
X170218000Y-80975200D03*
X170218000Y-83515200D03*
X170218000Y-86055200D03*
X170218000Y-88595200D03*
X170218000Y-91135200D03*
X177838000Y-91135200D03*
X177838000Y-88595200D03*
X177838000Y-86055200D03*
X177838000Y-83515200D03*
X177838000Y-80975200D03*
X177838000Y-78435200D03*
X177838000Y-75895200D03*
X177838000Y-73355200D03*
D14*
X170307000Y-99962000D03*
D15*
X170307000Y-102502000D03*
X170307000Y-105042000D03*
X170307000Y-107582000D03*
X170307000Y-110122000D03*
X170307000Y-112662000D03*
X170307000Y-115202000D03*
X170307000Y-117742000D03*
X177927000Y-117742000D03*
X177927000Y-115202000D03*
X177927000Y-112662000D03*
X177927000Y-110122000D03*
X177927000Y-107582000D03*
X177927000Y-105042000D03*
X177927000Y-102502000D03*
X177927000Y-99962000D03*
D14*
X111277000Y-72237600D03*
D15*
X111277000Y-74777600D03*
X111277000Y-77317600D03*
X111277000Y-79857600D03*
X111277000Y-82397600D03*
X111277000Y-84937600D03*
X111277000Y-87477600D03*
X111277000Y-90017600D03*
X111277000Y-92557600D03*
X111277000Y-95097600D03*
X111277000Y-97637600D03*
X111277000Y-100177600D03*
X111277000Y-102717600D03*
X111277000Y-105257600D03*
X126517000Y-105257600D03*
X126517000Y-102717600D03*
X126517000Y-100177600D03*
X126517000Y-97637600D03*
X126517000Y-95097600D03*
X126517000Y-92557600D03*
X126517000Y-90017600D03*
X126517000Y-87477600D03*
X126517000Y-84937600D03*
X126517000Y-82397600D03*
X126517000Y-79857600D03*
X126517000Y-77317600D03*
X126517000Y-74777600D03*
X126517000Y-72237600D03*
D18*
X135572000Y-103632000D03*
X135572000Y-98552000D03*
D19*
X149390100Y-126034800D03*
D20*
X146850100Y-126034800D03*
D19*
X107378500Y-122859800D03*
D20*
X107378500Y-120319800D03*
X107378500Y-117779800D03*
X107378500Y-115239800D03*
X107378500Y-112699800D03*
X107378500Y-110159800D03*
X107378500Y-107619800D03*
X107378500Y-105079800D03*
X107378500Y-102539800D03*
X107378500Y-99999800D03*
X107378500Y-97459800D03*
X107378500Y-94919800D03*
X107378500Y-92379800D03*
X107378500Y-89839800D03*
X107378500Y-87299800D03*
X107378500Y-84759800D03*
X107378500Y-82219800D03*
X107378500Y-79679800D03*
X107378500Y-77139800D03*
X107378500Y-74599800D03*
D19*
X181851300Y-122859800D03*
D20*
X181851300Y-120319800D03*
X181851300Y-117779800D03*
X181851300Y-115239800D03*
X181851300Y-112699800D03*
X181851300Y-110159800D03*
X181851300Y-107619800D03*
X181851300Y-105079800D03*
X181851300Y-102539800D03*
X181851300Y-99999800D03*
X181851300Y-97459800D03*
X181851300Y-94919800D03*
X181851300Y-92379800D03*
X181851300Y-89839800D03*
X181851300Y-87299800D03*
X181851300Y-84759800D03*
X181851300Y-82219800D03*
X181851300Y-79679800D03*
X181851300Y-77139800D03*
X181851300Y-74599800D03*
D19*
X176174400Y-124536200D03*
D20*
X176174400Y-127076200D03*
X173634400Y-124536200D03*
X173634400Y-127076200D03*
X171094400Y-124536200D03*
X171094400Y-127076200D03*
X168554400Y-124536200D03*
X168554400Y-127076200D03*
X166014400Y-124536200D03*
X166014400Y-127076200D03*
X163474400Y-124536200D03*
X163474400Y-127076200D03*
X160934400Y-124536200D03*
X160934400Y-127076200D03*
X158394400Y-124536200D03*
X158394400Y-127076200D03*
D19*
X116598700Y-128168400D03*
D20*
X119138700Y-128168400D03*
X121678700Y-128168400D03*
D15*
X131152900Y-115036600D03*
X128612900Y-115036600D03*
X134975600Y-115049300D03*
X137515600Y-115049300D03*
M02*
